<?xml version="1.0" encoding="utf-8" standalone="no"?>
<!DOCTYPE svg PUBLIC "-//W3C//DTD SVG 1.1//EN"
  "http://www.w3.org/Graphics/SVG/1.1/DTD/svg11.dtd">
<svg xmlns:xlink="http://www.w3.org/1999/xlink" width="1382.4pt" height="776.88pt" viewBox="0 0 1382.4 776.88" xmlns="http://www.w3.org/2000/svg" version="1.1">
 <metadata>
  <rdf:RDF xmlns:dc="http://purl.org/dc/elements/1.1/" xmlns:cc="http://creativecommons.org/ns#" xmlns:rdf="http://www.w3.org/1999/02/22-rdf-syntax-ns#">
   <cc:Work>
    <dc:type rdf:resource="http://purl.org/dc/dcmitype/StillImage"/>
    <dc:date>2023-01-26T11:03:09.150028</dc:date>
    <dc:format>image/svg+xml</dc:format>
    <dc:creator>
     <cc:Agent>
      <dc:title>Matplotlib v3.6.2, https://matplotlib.org/</dc:title>
     </cc:Agent>
    </dc:creator>
   </cc:Work>
  </rdf:RDF>
 </metadata>
 <defs>
  <style type="text/css">*{stroke-linejoin: round; stroke-linecap: butt}</style>
 </defs>
 <g id="figure_1">
  <g id="patch_1">
   <path d="M 0 776.88
L 1382.4 776.88
L 1382.4 0
L 0 0
z
" style="fill: #ffffff"/>
  </g>
  <g id="axes_1">
   <g id="patch_2">
    <path d="M 172.8 691.4232
L 1244.16 691.4232
L 1244.16 93.2256
L 172.8 93.2256
z
" style="fill: #ffffff"/>
   </g>
   <g id="matplotlib.axis_1">
    <g id="xtick_1">
     <g id="line2d_1">
      <defs>
       <path id="m48c875e61f" d="M 0 0
L 0 3.5
" style="stroke: #000000; stroke-width: 0.8"/>
      </defs>
      <g>
       <use xlink:href="#m48c875e61f" x="270.196364" y="691.4232" style="stroke: #000000; stroke-width: 0.8"/>
      </g>
     </g>
     <g id="text_1">
      <!-- 2 -->
      <g transform="translate(267.015114 706.021637) scale(0.1 -0.1)">
       <defs>
        <path id="DejaVuSans-32" d="M 1228 531
L 3431 531
L 3431 0
L 469 0
L 469 531
Q 828 903 1448 1529
Q 2069 2156 2228 2338
Q 2531 2678 2651 2914
Q 2772 3150 2772 3378
Q 2772 3750 2511 3984
Q 2250 4219 1831 4219
Q 1534 4219 1204 4116
Q 875 4013 500 3803
L 500 4441
Q 881 4594 1212 4672
Q 1544 4750 1819 4750
Q 2544 4750 2975 4387
Q 3406 4025 3406 3419
Q 3406 3131 3298 2873
Q 3191 2616 2906 2266
Q 2828 2175 2409 1742
Q 1991 1309 1228 531
z
" transform="scale(0.015625)"/>
       </defs>
       <use xlink:href="#DejaVuSans-32"/>
      </g>
     </g>
    </g>
    <g id="xtick_2">
     <g id="line2d_2">
      <g>
       <use xlink:href="#m48c875e61f" x="400.058182" y="691.4232" style="stroke: #000000; stroke-width: 0.8"/>
      </g>
     </g>
     <g id="text_2">
      <!-- 4 -->
      <g transform="translate(396.876932 706.021637) scale(0.1 -0.1)">
       <defs>
        <path id="DejaVuSans-34" d="M 2419 4116
L 825 1625
L 2419 1625
L 2419 4116
z
M 2253 4666
L 3047 4666
L 3047 1625
L 3713 1625
L 3713 1100
L 3047 1100
L 3047 0
L 2419 0
L 2419 1100
L 313 1100
L 313 1709
L 2253 4666
z
" transform="scale(0.015625)"/>
       </defs>
       <use xlink:href="#DejaVuSans-34"/>
      </g>
     </g>
    </g>
    <g id="xtick_3">
     <g id="line2d_3">
      <g>
       <use xlink:href="#m48c875e61f" x="529.92" y="691.4232" style="stroke: #000000; stroke-width: 0.8"/>
      </g>
     </g>
     <g id="text_3">
      <!-- 6 -->
      <g transform="translate(526.73875 706.021637) scale(0.1 -0.1)">
       <defs>
        <path id="DejaVuSans-36" d="M 2113 2584
Q 1688 2584 1439 2293
Q 1191 2003 1191 1497
Q 1191 994 1439 701
Q 1688 409 2113 409
Q 2538 409 2786 701
Q 3034 994 3034 1497
Q 3034 2003 2786 2293
Q 2538 2584 2113 2584
z
M 3366 4563
L 3366 3988
Q 3128 4100 2886 4159
Q 2644 4219 2406 4219
Q 1781 4219 1451 3797
Q 1122 3375 1075 2522
Q 1259 2794 1537 2939
Q 1816 3084 2150 3084
Q 2853 3084 3261 2657
Q 3669 2231 3669 1497
Q 3669 778 3244 343
Q 2819 -91 2113 -91
Q 1303 -91 875 529
Q 447 1150 447 2328
Q 447 3434 972 4092
Q 1497 4750 2381 4750
Q 2619 4750 2861 4703
Q 3103 4656 3366 4563
z
" transform="scale(0.015625)"/>
       </defs>
       <use xlink:href="#DejaVuSans-36"/>
      </g>
     </g>
    </g>
    <g id="xtick_4">
     <g id="line2d_4">
      <g>
       <use xlink:href="#m48c875e61f" x="659.781818" y="691.4232" style="stroke: #000000; stroke-width: 0.8"/>
      </g>
     </g>
     <g id="text_4">
      <!-- 8 -->
      <g transform="translate(656.600568 706.021637) scale(0.1 -0.1)">
       <defs>
        <path id="DejaVuSans-38" d="M 2034 2216
Q 1584 2216 1326 1975
Q 1069 1734 1069 1313
Q 1069 891 1326 650
Q 1584 409 2034 409
Q 2484 409 2743 651
Q 3003 894 3003 1313
Q 3003 1734 2745 1975
Q 2488 2216 2034 2216
z
M 1403 2484
Q 997 2584 770 2862
Q 544 3141 544 3541
Q 544 4100 942 4425
Q 1341 4750 2034 4750
Q 2731 4750 3128 4425
Q 3525 4100 3525 3541
Q 3525 3141 3298 2862
Q 3072 2584 2669 2484
Q 3125 2378 3379 2068
Q 3634 1759 3634 1313
Q 3634 634 3220 271
Q 2806 -91 2034 -91
Q 1263 -91 848 271
Q 434 634 434 1313
Q 434 1759 690 2068
Q 947 2378 1403 2484
z
M 1172 3481
Q 1172 3119 1398 2916
Q 1625 2713 2034 2713
Q 2441 2713 2670 2916
Q 2900 3119 2900 3481
Q 2900 3844 2670 4047
Q 2441 4250 2034 4250
Q 1625 4250 1398 4047
Q 1172 3844 1172 3481
z
" transform="scale(0.015625)"/>
       </defs>
       <use xlink:href="#DejaVuSans-38"/>
      </g>
     </g>
    </g>
    <g id="xtick_5">
     <g id="line2d_5">
      <g>
       <use xlink:href="#m48c875e61f" x="789.643636" y="691.4232" style="stroke: #000000; stroke-width: 0.8"/>
      </g>
     </g>
     <g id="text_5">
      <!-- 10 -->
      <g transform="translate(783.281136 706.021637) scale(0.1 -0.1)">
       <defs>
        <path id="DejaVuSans-31" d="M 794 531
L 1825 531
L 1825 4091
L 703 3866
L 703 4441
L 1819 4666
L 2450 4666
L 2450 531
L 3481 531
L 3481 0
L 794 0
L 794 531
z
" transform="scale(0.015625)"/>
        <path id="DejaVuSans-30" d="M 2034 4250
Q 1547 4250 1301 3770
Q 1056 3291 1056 2328
Q 1056 1369 1301 889
Q 1547 409 2034 409
Q 2525 409 2770 889
Q 3016 1369 3016 2328
Q 3016 3291 2770 3770
Q 2525 4250 2034 4250
z
M 2034 4750
Q 2819 4750 3233 4129
Q 3647 3509 3647 2328
Q 3647 1150 3233 529
Q 2819 -91 2034 -91
Q 1250 -91 836 529
Q 422 1150 422 2328
Q 422 3509 836 4129
Q 1250 4750 2034 4750
z
" transform="scale(0.015625)"/>
       </defs>
       <use xlink:href="#DejaVuSans-31"/>
       <use xlink:href="#DejaVuSans-30" x="63.623047"/>
      </g>
     </g>
    </g>
    <g id="xtick_6">
     <g id="line2d_6">
      <g>
       <use xlink:href="#m48c875e61f" x="919.505455" y="691.4232" style="stroke: #000000; stroke-width: 0.8"/>
      </g>
     </g>
     <g id="text_6">
      <!-- 12 -->
      <g transform="translate(913.142955 706.021637) scale(0.1 -0.1)">
       <use xlink:href="#DejaVuSans-31"/>
       <use xlink:href="#DejaVuSans-32" x="63.623047"/>
      </g>
     </g>
    </g>
    <g id="xtick_7">
     <g id="line2d_7">
      <g>
       <use xlink:href="#m48c875e61f" x="1049.367273" y="691.4232" style="stroke: #000000; stroke-width: 0.8"/>
      </g>
     </g>
     <g id="text_7">
      <!-- 14 -->
      <g transform="translate(1043.004773 706.021637) scale(0.1 -0.1)">
       <use xlink:href="#DejaVuSans-31"/>
       <use xlink:href="#DejaVuSans-34" x="63.623047"/>
      </g>
     </g>
    </g>
    <g id="xtick_8">
     <g id="line2d_8">
      <g>
       <use xlink:href="#m48c875e61f" x="1179.229091" y="691.4232" style="stroke: #000000; stroke-width: 0.8"/>
      </g>
     </g>
     <g id="text_8">
      <!-- 16 -->
      <g transform="translate(1172.866591 706.021637) scale(0.1 -0.1)">
       <use xlink:href="#DejaVuSans-31"/>
       <use xlink:href="#DejaVuSans-36" x="63.623047"/>
      </g>
     </g>
    </g>
    <g id="text_9">
     <!-- Image size in mega-pixels -->
     <g transform="translate(643.374531 719.699762) scale(0.1 -0.1)">
      <defs>
       <path id="DejaVuSans-49" d="M 628 4666
L 1259 4666
L 1259 0
L 628 0
L 628 4666
z
" transform="scale(0.015625)"/>
       <path id="DejaVuSans-6d" d="M 3328 2828
Q 3544 3216 3844 3400
Q 4144 3584 4550 3584
Q 5097 3584 5394 3201
Q 5691 2819 5691 2113
L 5691 0
L 5113 0
L 5113 2094
Q 5113 2597 4934 2840
Q 4756 3084 4391 3084
Q 3944 3084 3684 2787
Q 3425 2491 3425 1978
L 3425 0
L 2847 0
L 2847 2094
Q 2847 2600 2669 2842
Q 2491 3084 2119 3084
Q 1678 3084 1418 2786
Q 1159 2488 1159 1978
L 1159 0
L 581 0
L 581 3500
L 1159 3500
L 1159 2956
Q 1356 3278 1631 3431
Q 1906 3584 2284 3584
Q 2666 3584 2933 3390
Q 3200 3197 3328 2828
z
" transform="scale(0.015625)"/>
       <path id="DejaVuSans-61" d="M 2194 1759
Q 1497 1759 1228 1600
Q 959 1441 959 1056
Q 959 750 1161 570
Q 1363 391 1709 391
Q 2188 391 2477 730
Q 2766 1069 2766 1631
L 2766 1759
L 2194 1759
z
M 3341 1997
L 3341 0
L 2766 0
L 2766 531
Q 2569 213 2275 61
Q 1981 -91 1556 -91
Q 1019 -91 701 211
Q 384 513 384 1019
Q 384 1609 779 1909
Q 1175 2209 1959 2209
L 2766 2209
L 2766 2266
Q 2766 2663 2505 2880
Q 2244 3097 1772 3097
Q 1472 3097 1187 3025
Q 903 2953 641 2809
L 641 3341
Q 956 3463 1253 3523
Q 1550 3584 1831 3584
Q 2591 3584 2966 3190
Q 3341 2797 3341 1997
z
" transform="scale(0.015625)"/>
       <path id="DejaVuSans-67" d="M 2906 1791
Q 2906 2416 2648 2759
Q 2391 3103 1925 3103
Q 1463 3103 1205 2759
Q 947 2416 947 1791
Q 947 1169 1205 825
Q 1463 481 1925 481
Q 2391 481 2648 825
Q 2906 1169 2906 1791
z
M 3481 434
Q 3481 -459 3084 -895
Q 2688 -1331 1869 -1331
Q 1566 -1331 1297 -1286
Q 1028 -1241 775 -1147
L 775 -588
Q 1028 -725 1275 -790
Q 1522 -856 1778 -856
Q 2344 -856 2625 -561
Q 2906 -266 2906 331
L 2906 616
Q 2728 306 2450 153
Q 2172 0 1784 0
Q 1141 0 747 490
Q 353 981 353 1791
Q 353 2603 747 3093
Q 1141 3584 1784 3584
Q 2172 3584 2450 3431
Q 2728 3278 2906 2969
L 2906 3500
L 3481 3500
L 3481 434
z
" transform="scale(0.015625)"/>
       <path id="DejaVuSans-65" d="M 3597 1894
L 3597 1613
L 953 1613
Q 991 1019 1311 708
Q 1631 397 2203 397
Q 2534 397 2845 478
Q 3156 559 3463 722
L 3463 178
Q 3153 47 2828 -22
Q 2503 -91 2169 -91
Q 1331 -91 842 396
Q 353 884 353 1716
Q 353 2575 817 3079
Q 1281 3584 2069 3584
Q 2775 3584 3186 3129
Q 3597 2675 3597 1894
z
M 3022 2063
Q 3016 2534 2758 2815
Q 2500 3097 2075 3097
Q 1594 3097 1305 2825
Q 1016 2553 972 2059
L 3022 2063
z
" transform="scale(0.015625)"/>
       <path id="DejaVuSans-20" transform="scale(0.015625)"/>
       <path id="DejaVuSans-73" d="M 2834 3397
L 2834 2853
Q 2591 2978 2328 3040
Q 2066 3103 1784 3103
Q 1356 3103 1142 2972
Q 928 2841 928 2578
Q 928 2378 1081 2264
Q 1234 2150 1697 2047
L 1894 2003
Q 2506 1872 2764 1633
Q 3022 1394 3022 966
Q 3022 478 2636 193
Q 2250 -91 1575 -91
Q 1294 -91 989 -36
Q 684 19 347 128
L 347 722
Q 666 556 975 473
Q 1284 391 1588 391
Q 1994 391 2212 530
Q 2431 669 2431 922
Q 2431 1156 2273 1281
Q 2116 1406 1581 1522
L 1381 1569
Q 847 1681 609 1914
Q 372 2147 372 2553
Q 372 3047 722 3315
Q 1072 3584 1716 3584
Q 2034 3584 2315 3537
Q 2597 3491 2834 3397
z
" transform="scale(0.015625)"/>
       <path id="DejaVuSans-69" d="M 603 3500
L 1178 3500
L 1178 0
L 603 0
L 603 3500
z
M 603 4863
L 1178 4863
L 1178 4134
L 603 4134
L 603 4863
z
" transform="scale(0.015625)"/>
       <path id="DejaVuSans-7a" d="M 353 3500
L 3084 3500
L 3084 2975
L 922 459
L 3084 459
L 3084 0
L 275 0
L 275 525
L 2438 3041
L 353 3041
L 353 3500
z
" transform="scale(0.015625)"/>
       <path id="DejaVuSans-6e" d="M 3513 2113
L 3513 0
L 2938 0
L 2938 2094
Q 2938 2591 2744 2837
Q 2550 3084 2163 3084
Q 1697 3084 1428 2787
Q 1159 2491 1159 1978
L 1159 0
L 581 0
L 581 3500
L 1159 3500
L 1159 2956
Q 1366 3272 1645 3428
Q 1925 3584 2291 3584
Q 2894 3584 3203 3211
Q 3513 2838 3513 2113
z
" transform="scale(0.015625)"/>
       <path id="DejaVuSans-2d" d="M 313 2009
L 1997 2009
L 1997 1497
L 313 1497
L 313 2009
z
" transform="scale(0.015625)"/>
       <path id="DejaVuSans-70" d="M 1159 525
L 1159 -1331
L 581 -1331
L 581 3500
L 1159 3500
L 1159 2969
Q 1341 3281 1617 3432
Q 1894 3584 2278 3584
Q 2916 3584 3314 3078
Q 3713 2572 3713 1747
Q 3713 922 3314 415
Q 2916 -91 2278 -91
Q 1894 -91 1617 61
Q 1341 213 1159 525
z
M 3116 1747
Q 3116 2381 2855 2742
Q 2594 3103 2138 3103
Q 1681 3103 1420 2742
Q 1159 2381 1159 1747
Q 1159 1113 1420 752
Q 1681 391 2138 391
Q 2594 391 2855 752
Q 3116 1113 3116 1747
z
" transform="scale(0.015625)"/>
       <path id="DejaVuSans-78" d="M 3513 3500
L 2247 1797
L 3578 0
L 2900 0
L 1881 1375
L 863 0
L 184 0
L 1544 1831
L 300 3500
L 978 3500
L 1906 2253
L 2834 3500
L 3513 3500
z
" transform="scale(0.015625)"/>
       <path id="DejaVuSans-6c" d="M 603 4863
L 1178 4863
L 1178 0
L 603 0
L 603 4863
z
" transform="scale(0.015625)"/>
      </defs>
      <use xlink:href="#DejaVuSans-49"/>
      <use xlink:href="#DejaVuSans-6d" x="29.492188"/>
      <use xlink:href="#DejaVuSans-61" x="126.904297"/>
      <use xlink:href="#DejaVuSans-67" x="188.183594"/>
      <use xlink:href="#DejaVuSans-65" x="251.660156"/>
      <use xlink:href="#DejaVuSans-20" x="313.183594"/>
      <use xlink:href="#DejaVuSans-73" x="344.970703"/>
      <use xlink:href="#DejaVuSans-69" x="397.070312"/>
      <use xlink:href="#DejaVuSans-7a" x="424.853516"/>
      <use xlink:href="#DejaVuSans-65" x="477.34375"/>
      <use xlink:href="#DejaVuSans-20" x="538.867188"/>
      <use xlink:href="#DejaVuSans-69" x="570.654297"/>
      <use xlink:href="#DejaVuSans-6e" x="598.4375"/>
      <use xlink:href="#DejaVuSans-20" x="661.816406"/>
      <use xlink:href="#DejaVuSans-6d" x="693.603516"/>
      <use xlink:href="#DejaVuSans-65" x="791.015625"/>
      <use xlink:href="#DejaVuSans-67" x="852.539062"/>
      <use xlink:href="#DejaVuSans-61" x="916.015625"/>
      <use xlink:href="#DejaVuSans-2d" x="977.294922"/>
      <use xlink:href="#DejaVuSans-70" x="1013.378906"/>
      <use xlink:href="#DejaVuSans-69" x="1076.855469"/>
      <use xlink:href="#DejaVuSans-78" x="1104.638672"/>
      <use xlink:href="#DejaVuSans-65" x="1160.693359"/>
      <use xlink:href="#DejaVuSans-6c" x="1222.216797"/>
      <use xlink:href="#DejaVuSans-73" x="1250"/>
     </g>
    </g>
   </g>
   <g id="matplotlib.axis_2">
    <g id="ytick_1">
     <g id="line2d_9">
      <defs>
       <path id="m43c5c217c2" d="M 0 0
L -3.5 0
" style="stroke: #000000; stroke-width: 0.8"/>
      </defs>
      <g>
       <use xlink:href="#m43c5c217c2" x="172.8" y="691.4232" style="stroke: #000000; stroke-width: 0.8"/>
      </g>
     </g>
     <g id="text_10">
      <!-- 0.5 -->
      <g transform="translate(149.896875 695.222419) scale(0.1 -0.1)">
       <defs>
        <path id="DejaVuSans-2e" d="M 684 794
L 1344 794
L 1344 0
L 684 0
L 684 794
z
" transform="scale(0.015625)"/>
        <path id="DejaVuSans-35" d="M 691 4666
L 3169 4666
L 3169 4134
L 1269 4134
L 1269 2991
Q 1406 3038 1543 3061
Q 1681 3084 1819 3084
Q 2600 3084 3056 2656
Q 3513 2228 3513 1497
Q 3513 744 3044 326
Q 2575 -91 1722 -91
Q 1428 -91 1123 -41
Q 819 9 494 109
L 494 744
Q 775 591 1075 516
Q 1375 441 1709 441
Q 2250 441 2565 725
Q 2881 1009 2881 1497
Q 2881 1984 2565 2268
Q 2250 2553 1709 2553
Q 1456 2553 1204 2497
Q 953 2441 691 2322
L 691 4666
z
" transform="scale(0.015625)"/>
       </defs>
       <use xlink:href="#DejaVuSans-30"/>
       <use xlink:href="#DejaVuSans-2e" x="63.623047"/>
       <use xlink:href="#DejaVuSans-35" x="95.410156"/>
      </g>
     </g>
    </g>
    <g id="ytick_2">
     <g id="line2d_10">
      <g>
       <use xlink:href="#m43c5c217c2" x="172.8" y="639.634548" style="stroke: #000000; stroke-width: 0.8"/>
      </g>
     </g>
     <g id="text_11">
      <!-- 1 -->
      <g transform="translate(159.4375 643.433767) scale(0.1 -0.1)">
       <use xlink:href="#DejaVuSans-31"/>
      </g>
     </g>
    </g>
    <g id="ytick_3">
     <g id="line2d_11">
      <g>
       <use xlink:href="#m43c5c217c2" x="172.8" y="587.845897" style="stroke: #000000; stroke-width: 0.8"/>
      </g>
     </g>
     <g id="text_12">
      <!-- 2 -->
      <g transform="translate(159.4375 591.645116) scale(0.1 -0.1)">
       <use xlink:href="#DejaVuSans-32"/>
      </g>
     </g>
    </g>
    <g id="ytick_4">
     <g id="line2d_12">
      <g>
       <use xlink:href="#m43c5c217c2" x="172.8" y="519.385024" style="stroke: #000000; stroke-width: 0.8"/>
      </g>
     </g>
     <g id="text_13">
      <!-- 5 -->
      <g transform="translate(159.4375 523.184242) scale(0.1 -0.1)">
       <use xlink:href="#DejaVuSans-35"/>
      </g>
     </g>
    </g>
    <g id="ytick_5">
     <g id="line2d_13">
      <g>
       <use xlink:href="#m43c5c217c2" x="172.8" y="467.596372" style="stroke: #000000; stroke-width: 0.8"/>
      </g>
     </g>
     <g id="text_14">
      <!-- 10 -->
      <g transform="translate(153.075 471.395591) scale(0.1 -0.1)">
       <use xlink:href="#DejaVuSans-31"/>
       <use xlink:href="#DejaVuSans-30" x="63.623047"/>
      </g>
     </g>
    </g>
    <g id="ytick_6">
     <g id="line2d_14">
      <g>
       <use xlink:href="#m43c5c217c2" x="172.8" y="415.807721" style="stroke: #000000; stroke-width: 0.8"/>
      </g>
     </g>
     <g id="text_15">
      <!-- 20 -->
      <g transform="translate(153.075 419.606939) scale(0.1 -0.1)">
       <use xlink:href="#DejaVuSans-32"/>
       <use xlink:href="#DejaVuSans-30" x="63.623047"/>
      </g>
     </g>
    </g>
    <g id="ytick_7">
     <g id="line2d_15">
      <g>
       <use xlink:href="#m43c5c217c2" x="172.8" y="347.346847" style="stroke: #000000; stroke-width: 0.8"/>
      </g>
     </g>
     <g id="text_16">
      <!-- 50 -->
      <g transform="translate(153.075 351.146066) scale(0.1 -0.1)">
       <use xlink:href="#DejaVuSans-35"/>
       <use xlink:href="#DejaVuSans-30" x="63.623047"/>
      </g>
     </g>
    </g>
    <g id="ytick_8">
     <g id="line2d_16">
      <g>
       <use xlink:href="#m43c5c217c2" x="172.8" y="295.558196" style="stroke: #000000; stroke-width: 0.8"/>
      </g>
     </g>
     <g id="text_17">
      <!-- 100 -->
      <g transform="translate(146.7125 299.357414) scale(0.1 -0.1)">
       <use xlink:href="#DejaVuSans-31"/>
       <use xlink:href="#DejaVuSans-30" x="63.623047"/>
       <use xlink:href="#DejaVuSans-30" x="127.246094"/>
      </g>
     </g>
    </g>
    <g id="ytick_9">
     <g id="line2d_17">
      <g>
       <use xlink:href="#m43c5c217c2" x="172.8" y="243.769544" style="stroke: #000000; stroke-width: 0.8"/>
      </g>
     </g>
     <g id="text_18">
      <!-- 200 -->
      <g transform="translate(146.7125 247.568763) scale(0.1 -0.1)">
       <use xlink:href="#DejaVuSans-32"/>
       <use xlink:href="#DejaVuSans-30" x="63.623047"/>
       <use xlink:href="#DejaVuSans-30" x="127.246094"/>
      </g>
     </g>
    </g>
    <g id="ytick_10">
     <g id="line2d_18">
      <g>
       <use xlink:href="#m43c5c217c2" x="172.8" y="175.308671" style="stroke: #000000; stroke-width: 0.8"/>
      </g>
     </g>
     <g id="text_19">
      <!-- 500 -->
      <g transform="translate(146.7125 179.107889) scale(0.1 -0.1)">
       <use xlink:href="#DejaVuSans-35"/>
       <use xlink:href="#DejaVuSans-30" x="63.623047"/>
       <use xlink:href="#DejaVuSans-30" x="127.246094"/>
      </g>
     </g>
    </g>
    <g id="ytick_11">
     <g id="line2d_19">
      <g>
       <use xlink:href="#m43c5c217c2" x="172.8" y="123.520019" style="stroke: #000000; stroke-width: 0.8"/>
      </g>
     </g>
     <g id="text_20">
      <!-- 1000 -->
      <g transform="translate(140.35 127.319238) scale(0.1 -0.1)">
       <use xlink:href="#DejaVuSans-31"/>
       <use xlink:href="#DejaVuSans-30" x="63.623047"/>
       <use xlink:href="#DejaVuSans-30" x="127.246094"/>
       <use xlink:href="#DejaVuSans-30" x="190.869141"/>
      </g>
     </g>
    </g>
    <g id="text_21">
     <!-- Frame per second (log scale) -->
     <g transform="translate(134.270312 464.807212) rotate(-90) scale(0.1 -0.1)">
      <defs>
       <path id="DejaVuSans-46" d="M 628 4666
L 3309 4666
L 3309 4134
L 1259 4134
L 1259 2759
L 3109 2759
L 3109 2228
L 1259 2228
L 1259 0
L 628 0
L 628 4666
z
" transform="scale(0.015625)"/>
       <path id="DejaVuSans-72" d="M 2631 2963
Q 2534 3019 2420 3045
Q 2306 3072 2169 3072
Q 1681 3072 1420 2755
Q 1159 2438 1159 1844
L 1159 0
L 581 0
L 581 3500
L 1159 3500
L 1159 2956
Q 1341 3275 1631 3429
Q 1922 3584 2338 3584
Q 2397 3584 2469 3576
Q 2541 3569 2628 3553
L 2631 2963
z
" transform="scale(0.015625)"/>
       <path id="DejaVuSans-63" d="M 3122 3366
L 3122 2828
Q 2878 2963 2633 3030
Q 2388 3097 2138 3097
Q 1578 3097 1268 2742
Q 959 2388 959 1747
Q 959 1106 1268 751
Q 1578 397 2138 397
Q 2388 397 2633 464
Q 2878 531 3122 666
L 3122 134
Q 2881 22 2623 -34
Q 2366 -91 2075 -91
Q 1284 -91 818 406
Q 353 903 353 1747
Q 353 2603 823 3093
Q 1294 3584 2113 3584
Q 2378 3584 2631 3529
Q 2884 3475 3122 3366
z
" transform="scale(0.015625)"/>
       <path id="DejaVuSans-6f" d="M 1959 3097
Q 1497 3097 1228 2736
Q 959 2375 959 1747
Q 959 1119 1226 758
Q 1494 397 1959 397
Q 2419 397 2687 759
Q 2956 1122 2956 1747
Q 2956 2369 2687 2733
Q 2419 3097 1959 3097
z
M 1959 3584
Q 2709 3584 3137 3096
Q 3566 2609 3566 1747
Q 3566 888 3137 398
Q 2709 -91 1959 -91
Q 1206 -91 779 398
Q 353 888 353 1747
Q 353 2609 779 3096
Q 1206 3584 1959 3584
z
" transform="scale(0.015625)"/>
       <path id="DejaVuSans-64" d="M 2906 2969
L 2906 4863
L 3481 4863
L 3481 0
L 2906 0
L 2906 525
Q 2725 213 2448 61
Q 2172 -91 1784 -91
Q 1150 -91 751 415
Q 353 922 353 1747
Q 353 2572 751 3078
Q 1150 3584 1784 3584
Q 2172 3584 2448 3432
Q 2725 3281 2906 2969
z
M 947 1747
Q 947 1113 1208 752
Q 1469 391 1925 391
Q 2381 391 2643 752
Q 2906 1113 2906 1747
Q 2906 2381 2643 2742
Q 2381 3103 1925 3103
Q 1469 3103 1208 2742
Q 947 2381 947 1747
z
" transform="scale(0.015625)"/>
       <path id="DejaVuSans-28" d="M 1984 4856
Q 1566 4138 1362 3434
Q 1159 2731 1159 2009
Q 1159 1288 1364 580
Q 1569 -128 1984 -844
L 1484 -844
Q 1016 -109 783 600
Q 550 1309 550 2009
Q 550 2706 781 3412
Q 1013 4119 1484 4856
L 1984 4856
z
" transform="scale(0.015625)"/>
       <path id="DejaVuSans-29" d="M 513 4856
L 1013 4856
Q 1481 4119 1714 3412
Q 1947 2706 1947 2009
Q 1947 1309 1714 600
Q 1481 -109 1013 -844
L 513 -844
Q 928 -128 1133 580
Q 1338 1288 1338 2009
Q 1338 2731 1133 3434
Q 928 4138 513 4856
z
" transform="scale(0.015625)"/>
      </defs>
      <use xlink:href="#DejaVuSans-46"/>
      <use xlink:href="#DejaVuSans-72" x="50.269531"/>
      <use xlink:href="#DejaVuSans-61" x="91.382812"/>
      <use xlink:href="#DejaVuSans-6d" x="152.662109"/>
      <use xlink:href="#DejaVuSans-65" x="250.074219"/>
      <use xlink:href="#DejaVuSans-20" x="311.597656"/>
      <use xlink:href="#DejaVuSans-70" x="343.384766"/>
      <use xlink:href="#DejaVuSans-65" x="406.861328"/>
      <use xlink:href="#DejaVuSans-72" x="468.384766"/>
      <use xlink:href="#DejaVuSans-20" x="509.498047"/>
      <use xlink:href="#DejaVuSans-73" x="541.285156"/>
      <use xlink:href="#DejaVuSans-65" x="593.384766"/>
      <use xlink:href="#DejaVuSans-63" x="654.908203"/>
      <use xlink:href="#DejaVuSans-6f" x="709.888672"/>
      <use xlink:href="#DejaVuSans-6e" x="771.070312"/>
      <use xlink:href="#DejaVuSans-64" x="834.449219"/>
      <use xlink:href="#DejaVuSans-20" x="897.925781"/>
      <use xlink:href="#DejaVuSans-28" x="929.712891"/>
      <use xlink:href="#DejaVuSans-6c" x="968.726562"/>
      <use xlink:href="#DejaVuSans-6f" x="996.509766"/>
      <use xlink:href="#DejaVuSans-67" x="1057.691406"/>
      <use xlink:href="#DejaVuSans-20" x="1121.167969"/>
      <use xlink:href="#DejaVuSans-73" x="1152.955078"/>
      <use xlink:href="#DejaVuSans-63" x="1205.054688"/>
      <use xlink:href="#DejaVuSans-61" x="1260.035156"/>
      <use xlink:href="#DejaVuSans-6c" x="1321.314453"/>
      <use xlink:href="#DejaVuSans-65" x="1349.097656"/>
      <use xlink:href="#DejaVuSans-29" x="1410.621094"/>
     </g>
    </g>
   </g>
   <g id="line2d_20">
    <path d="M 206.770748 419.286238
L 301.137565 498.809586
L 431.594475 543.197261
L 544.464589 566.691213
L 798.623321 606.577582
L 913.174691 615.562812
L 1229.694432 633.009901
" clip-path="url(#p6cf3cebe68)" style="fill: none; stroke: #1f77b4; stroke-width: 1.5; stroke-linecap: square"/>
    <defs>
     <path id="m1c690916a6" d="M -3 3
L 3 3
L 3 -3
L -3 -3
z
" style="stroke: #1f77b4; stroke-linejoin: miter"/>
    </defs>
    <g clip-path="url(#p6cf3cebe68)">
     <use xlink:href="#m1c690916a6" x="206.770748" y="419.286238" style="fill: #1f77b4; stroke: #1f77b4; stroke-linejoin: miter"/>
     <use xlink:href="#m1c690916a6" x="301.137565" y="498.809586" style="fill: #1f77b4; stroke: #1f77b4; stroke-linejoin: miter"/>
     <use xlink:href="#m1c690916a6" x="431.594475" y="543.197261" style="fill: #1f77b4; stroke: #1f77b4; stroke-linejoin: miter"/>
     <use xlink:href="#m1c690916a6" x="544.464589" y="566.691213" style="fill: #1f77b4; stroke: #1f77b4; stroke-linejoin: miter"/>
     <use xlink:href="#m1c690916a6" x="798.623321" y="606.577582" style="fill: #1f77b4; stroke: #1f77b4; stroke-linejoin: miter"/>
     <use xlink:href="#m1c690916a6" x="913.174691" y="615.562812" style="fill: #1f77b4; stroke: #1f77b4; stroke-linejoin: miter"/>
     <use xlink:href="#m1c690916a6" x="1229.694432" y="633.009901" style="fill: #1f77b4; stroke: #1f77b4; stroke-linejoin: miter"/>
    </g>
   </g>
   <g id="line2d_21">
    <path d="M 206.770748 375.040999
L 301.137565 447.691534
L 431.594475 490.194491
L 544.464589 514.432567
L 798.623321 554.950781
L 913.174691 561.673499
L 1229.694432 590.542087
" clip-path="url(#p6cf3cebe68)" style="fill: none; stroke: #ff7f0e; stroke-width: 1.5; stroke-linecap: square"/>
    <defs>
     <path id="m74e39e477b" d="M 0 3
C 0.795609 3 1.55874 2.683901 2.12132 2.12132
C 2.683901 1.55874 3 0.795609 3 0
C 3 -0.795609 2.683901 -1.55874 2.12132 -2.12132
C 1.55874 -2.683901 0.795609 -3 0 -3
C -0.795609 -3 -1.55874 -2.683901 -2.12132 -2.12132
C -2.683901 -1.55874 -3 -0.795609 -3 0
C -3 0.795609 -2.683901 1.55874 -2.12132 2.12132
C -1.55874 2.683901 -0.795609 3 0 3
z
" style="stroke: #ff7f0e"/>
    </defs>
    <g clip-path="url(#p6cf3cebe68)">
     <use xlink:href="#m74e39e477b" x="206.770748" y="375.040999" style="fill: #ff7f0e; stroke: #ff7f0e"/>
     <use xlink:href="#m74e39e477b" x="301.137565" y="447.691534" style="fill: #ff7f0e; stroke: #ff7f0e"/>
     <use xlink:href="#m74e39e477b" x="431.594475" y="490.194491" style="fill: #ff7f0e; stroke: #ff7f0e"/>
     <use xlink:href="#m74e39e477b" x="544.464589" y="514.432567" style="fill: #ff7f0e; stroke: #ff7f0e"/>
     <use xlink:href="#m74e39e477b" x="798.623321" y="554.950781" style="fill: #ff7f0e; stroke: #ff7f0e"/>
     <use xlink:href="#m74e39e477b" x="913.174691" y="561.673499" style="fill: #ff7f0e; stroke: #ff7f0e"/>
     <use xlink:href="#m74e39e477b" x="1229.694432" y="590.542087" style="fill: #ff7f0e; stroke: #ff7f0e"/>
    </g>
   </g>
   <g id="line2d_22">
    <path d="M 206.770748 321.058766
L 301.137565 394.120802
L 431.594475 435.321393
L 544.464589 463.580097
L 798.623321 503.867865
L 913.174691 510.769841
L 1229.694432 535.825589
" clip-path="url(#p6cf3cebe68)" style="fill: none; stroke: #2ca02c; stroke-width: 1.5; stroke-linecap: square"/>
    <defs>
     <path id="m84deae7019" d="M 0 3
C 0.795609 3 1.55874 2.683901 2.12132 2.12132
C 2.683901 1.55874 3 0.795609 3 0
C 3 -0.795609 2.683901 -1.55874 2.12132 -2.12132
C 1.55874 -2.683901 0.795609 -3 0 -3
C -0.795609 -3 -1.55874 -2.683901 -2.12132 -2.12132
C -2.683901 -1.55874 -3 -0.795609 -3 0
C -3 0.795609 -2.683901 1.55874 -2.12132 2.12132
C -1.55874 2.683901 -0.795609 3 0 3
z
" style="stroke: #2ca02c"/>
    </defs>
    <g clip-path="url(#p6cf3cebe68)">
     <use xlink:href="#m84deae7019" x="206.770748" y="321.058766" style="fill: #2ca02c; stroke: #2ca02c"/>
     <use xlink:href="#m84deae7019" x="301.137565" y="394.120802" style="fill: #2ca02c; stroke: #2ca02c"/>
     <use xlink:href="#m84deae7019" x="431.594475" y="435.321393" style="fill: #2ca02c; stroke: #2ca02c"/>
     <use xlink:href="#m84deae7019" x="544.464589" y="463.580097" style="fill: #2ca02c; stroke: #2ca02c"/>
     <use xlink:href="#m84deae7019" x="798.623321" y="503.867865" style="fill: #2ca02c; stroke: #2ca02c"/>
     <use xlink:href="#m84deae7019" x="913.174691" y="510.769841" style="fill: #2ca02c; stroke: #2ca02c"/>
     <use xlink:href="#m84deae7019" x="1229.694432" y="535.825589" style="fill: #2ca02c; stroke: #2ca02c"/>
    </g>
   </g>
   <g id="line2d_23">
    <path d="M 206.770748 290.607481
L 301.137565 365.468436
L 431.594475 400.508524
L 544.464589 436.644485
L 798.623321 473.242529
L 913.174691 481.812599
L 1229.694432 506.075668
" clip-path="url(#p6cf3cebe68)" style="fill: none; stroke: #d62728; stroke-width: 1.5; stroke-linecap: square"/>
    <defs>
     <path id="m9d6a023286" d="M -3 3
L 3 3
L 3 -3
L -3 -3
z
" style="stroke: #d62728; stroke-linejoin: miter"/>
    </defs>
    <g clip-path="url(#p6cf3cebe68)">
     <use xlink:href="#m9d6a023286" x="206.770748" y="290.607481" style="fill: #d62728; stroke: #d62728; stroke-linejoin: miter"/>
     <use xlink:href="#m9d6a023286" x="301.137565" y="365.468436" style="fill: #d62728; stroke: #d62728; stroke-linejoin: miter"/>
     <use xlink:href="#m9d6a023286" x="431.594475" y="400.508524" style="fill: #d62728; stroke: #d62728; stroke-linejoin: miter"/>
     <use xlink:href="#m9d6a023286" x="544.464589" y="436.644485" style="fill: #d62728; stroke: #d62728; stroke-linejoin: miter"/>
     <use xlink:href="#m9d6a023286" x="798.623321" y="473.242529" style="fill: #d62728; stroke: #d62728; stroke-linejoin: miter"/>
     <use xlink:href="#m9d6a023286" x="913.174691" y="481.812599" style="fill: #d62728; stroke: #d62728; stroke-linejoin: miter"/>
     <use xlink:href="#m9d6a023286" x="1229.694432" y="506.075668" style="fill: #d62728; stroke: #d62728; stroke-linejoin: miter"/>
    </g>
   </g>
   <g id="line2d_24">
    <path d="M 206.770748 288.750657
L 301.137565 364.318477
L 431.594475 396.24257
L 544.464589 425.805364
L 798.623321 471.176387
L 913.174691 475.133815
L 1229.694432 512.940507
" clip-path="url(#p6cf3cebe68)" style="fill: none; stroke: #9467bd; stroke-width: 1.5; stroke-linecap: square"/>
    <defs>
     <path id="mcfb9e65ff0" d="M 0 3
C 0.795609 3 1.55874 2.683901 2.12132 2.12132
C 2.683901 1.55874 3 0.795609 3 0
C 3 -0.795609 2.683901 -1.55874 2.12132 -2.12132
C 1.55874 -2.683901 0.795609 -3 0 -3
C -0.795609 -3 -1.55874 -2.683901 -2.12132 -2.12132
C -2.683901 -1.55874 -3 -0.795609 -3 0
C -3 0.795609 -2.683901 1.55874 -2.12132 2.12132
C -1.55874 2.683901 -0.795609 3 0 3
z
" style="stroke: #9467bd"/>
    </defs>
    <g clip-path="url(#p6cf3cebe68)">
     <use xlink:href="#mcfb9e65ff0" x="206.770748" y="288.750657" style="fill: #9467bd; stroke: #9467bd"/>
     <use xlink:href="#mcfb9e65ff0" x="301.137565" y="364.318477" style="fill: #9467bd; stroke: #9467bd"/>
     <use xlink:href="#mcfb9e65ff0" x="431.594475" y="396.24257" style="fill: #9467bd; stroke: #9467bd"/>
     <use xlink:href="#mcfb9e65ff0" x="544.464589" y="425.805364" style="fill: #9467bd; stroke: #9467bd"/>
     <use xlink:href="#mcfb9e65ff0" x="798.623321" y="471.176387" style="fill: #9467bd; stroke: #9467bd"/>
     <use xlink:href="#mcfb9e65ff0" x="913.174691" y="475.133815" style="fill: #9467bd; stroke: #9467bd"/>
     <use xlink:href="#mcfb9e65ff0" x="1229.694432" y="512.940507" style="fill: #9467bd; stroke: #9467bd"/>
    </g>
   </g>
   <g id="line2d_25">
    <path d="M 206.770748 132.552871
L 301.137565 166.472538
L 431.594475 199.327608
L 544.464589 222.4033
L 798.623321 255.637163
L 913.174691 265.453377
L 1229.694432 252.829563
" clip-path="url(#p6cf3cebe68)" style="fill: none; stroke-dasharray: 5.55,2.4; stroke-dashoffset: 0; stroke: #8c564b; stroke-width: 1.5"/>
    <defs>
     <path id="macea0d7a02" d="M -3 3
L 3 3
L 3 -3
L -3 -3
z
" style="stroke: #8c564b; stroke-linejoin: miter"/>
    </defs>
    <g clip-path="url(#p6cf3cebe68)">
     <use xlink:href="#macea0d7a02" x="206.770748" y="132.552871" style="fill: #8c564b; stroke: #8c564b; stroke-linejoin: miter"/>
     <use xlink:href="#macea0d7a02" x="301.137565" y="166.472538" style="fill: #8c564b; stroke: #8c564b; stroke-linejoin: miter"/>
     <use xlink:href="#macea0d7a02" x="431.594475" y="199.327608" style="fill: #8c564b; stroke: #8c564b; stroke-linejoin: miter"/>
     <use xlink:href="#macea0d7a02" x="544.464589" y="222.4033" style="fill: #8c564b; stroke: #8c564b; stroke-linejoin: miter"/>
     <use xlink:href="#macea0d7a02" x="798.623321" y="255.637163" style="fill: #8c564b; stroke: #8c564b; stroke-linejoin: miter"/>
     <use xlink:href="#macea0d7a02" x="913.174691" y="265.453377" style="fill: #8c564b; stroke: #8c564b; stroke-linejoin: miter"/>
     <use xlink:href="#macea0d7a02" x="1229.694432" y="252.829563" style="fill: #8c564b; stroke: #8c564b; stroke-linejoin: miter"/>
    </g>
   </g>
   <g id="line2d_26">
    <path d="M 206.770748 132.3284
L 301.137565 168.189691
L 431.594475 201.341589
L 544.464589 223.858971
L 798.623321 256.628307
L 913.174691 269.902048
L 1229.694432 258.489988
" clip-path="url(#p6cf3cebe68)" style="fill: none; stroke-dasharray: 5.55,2.4; stroke-dashoffset: 0; stroke: #e377c2; stroke-width: 1.5"/>
    <defs>
     <path id="m732845e3bd" d="M 0 3
C 0.795609 3 1.55874 2.683901 2.12132 2.12132
C 2.683901 1.55874 3 0.795609 3 0
C 3 -0.795609 2.683901 -1.55874 2.12132 -2.12132
C 1.55874 -2.683901 0.795609 -3 0 -3
C -0.795609 -3 -1.55874 -2.683901 -2.12132 -2.12132
C -2.683901 -1.55874 -3 -0.795609 -3 0
C -3 0.795609 -2.683901 1.55874 -2.12132 2.12132
C -1.55874 2.683901 -0.795609 3 0 3
z
" style="stroke: #e377c2"/>
    </defs>
    <g clip-path="url(#p6cf3cebe68)">
     <use xlink:href="#m732845e3bd" x="206.770748" y="132.3284" style="fill: #e377c2; stroke: #e377c2"/>
     <use xlink:href="#m732845e3bd" x="301.137565" y="168.189691" style="fill: #e377c2; stroke: #e377c2"/>
     <use xlink:href="#m732845e3bd" x="431.594475" y="201.341589" style="fill: #e377c2; stroke: #e377c2"/>
     <use xlink:href="#m732845e3bd" x="544.464589" y="223.858971" style="fill: #e377c2; stroke: #e377c2"/>
     <use xlink:href="#m732845e3bd" x="798.623321" y="256.628307" style="fill: #e377c2; stroke: #e377c2"/>
     <use xlink:href="#m732845e3bd" x="913.174691" y="269.902048" style="fill: #e377c2; stroke: #e377c2"/>
     <use xlink:href="#m732845e3bd" x="1229.694432" y="258.489988" style="fill: #e377c2; stroke: #e377c2"/>
    </g>
   </g>
   <g id="line2d_27">
    <path d="M 206.770748 159.593428
L 301.137565 216.811839
L 431.594475 256.323347
L 544.464589 287.001882
L 798.623321 325.105466
L 913.174691 340.344444
L 1229.694432 338.814234
" clip-path="url(#p6cf3cebe68)" style="fill: none; stroke-dasharray: 5.55,2.4; stroke-dashoffset: 0; stroke: #7f7f7f; stroke-width: 1.5"/>
    <defs>
     <path id="m6f1ce9b274" d="M -3 3
L 3 3
L 3 -3
L -3 -3
z
" style="stroke: #7f7f7f; stroke-linejoin: miter"/>
    </defs>
    <g clip-path="url(#p6cf3cebe68)">
     <use xlink:href="#m6f1ce9b274" x="206.770748" y="159.593428" style="fill: #7f7f7f; stroke: #7f7f7f; stroke-linejoin: miter"/>
     <use xlink:href="#m6f1ce9b274" x="301.137565" y="216.811839" style="fill: #7f7f7f; stroke: #7f7f7f; stroke-linejoin: miter"/>
     <use xlink:href="#m6f1ce9b274" x="431.594475" y="256.323347" style="fill: #7f7f7f; stroke: #7f7f7f; stroke-linejoin: miter"/>
     <use xlink:href="#m6f1ce9b274" x="544.464589" y="287.001882" style="fill: #7f7f7f; stroke: #7f7f7f; stroke-linejoin: miter"/>
     <use xlink:href="#m6f1ce9b274" x="798.623321" y="325.105466" style="fill: #7f7f7f; stroke: #7f7f7f; stroke-linejoin: miter"/>
     <use xlink:href="#m6f1ce9b274" x="913.174691" y="340.344444" style="fill: #7f7f7f; stroke: #7f7f7f; stroke-linejoin: miter"/>
     <use xlink:href="#m6f1ce9b274" x="1229.694432" y="338.814234" style="fill: #7f7f7f; stroke: #7f7f7f; stroke-linejoin: miter"/>
    </g>
   </g>
   <g id="line2d_28">
    <path d="M 206.770748 175.85005
L 301.137565 243.555373
L 431.594475 288.146213
L 544.464589 316.199573
L 798.623321 356.063563
L 913.174691 368.68161
L 1229.694432 385.946569
" clip-path="url(#p6cf3cebe68)" style="fill: none; stroke-dasharray: 5.55,2.4; stroke-dashoffset: 0; stroke: #bcbd22; stroke-width: 1.5"/>
    <defs>
     <path id="maa2035c083" d="M 0 3
C 0.795609 3 1.55874 2.683901 2.12132 2.12132
C 2.683901 1.55874 3 0.795609 3 0
C 3 -0.795609 2.683901 -1.55874 2.12132 -2.12132
C 1.55874 -2.683901 0.795609 -3 0 -3
C -0.795609 -3 -1.55874 -2.683901 -2.12132 -2.12132
C -2.683901 -1.55874 -3 -0.795609 -3 0
C -3 0.795609 -2.683901 1.55874 -2.12132 2.12132
C -1.55874 2.683901 -0.795609 3 0 3
z
" style="stroke: #bcbd22"/>
    </defs>
    <g clip-path="url(#p6cf3cebe68)">
     <use xlink:href="#maa2035c083" x="206.770748" y="175.85005" style="fill: #bcbd22; stroke: #bcbd22"/>
     <use xlink:href="#maa2035c083" x="301.137565" y="243.555373" style="fill: #bcbd22; stroke: #bcbd22"/>
     <use xlink:href="#maa2035c083" x="431.594475" y="288.146213" style="fill: #bcbd22; stroke: #bcbd22"/>
     <use xlink:href="#maa2035c083" x="544.464589" y="316.199573" style="fill: #bcbd22; stroke: #bcbd22"/>
     <use xlink:href="#maa2035c083" x="798.623321" y="356.063563" style="fill: #bcbd22; stroke: #bcbd22"/>
     <use xlink:href="#maa2035c083" x="913.174691" y="368.68161" style="fill: #bcbd22; stroke: #bcbd22"/>
     <use xlink:href="#maa2035c083" x="1229.694432" y="385.946569" style="fill: #bcbd22; stroke: #bcbd22"/>
    </g>
   </g>
   <g id="patch_3">
    <path d="M 172.8 691.4232
L 172.8 93.2256
" style="fill: none; stroke: #000000; stroke-width: 0.8; stroke-linejoin: miter; stroke-linecap: square"/>
   </g>
   <g id="patch_4">
    <path d="M 1244.16 691.4232
L 1244.16 93.2256
" style="fill: none; stroke: #000000; stroke-width: 0.8; stroke-linejoin: miter; stroke-linecap: square"/>
   </g>
   <g id="patch_5">
    <path d="M 172.8 691.4232
L 1244.16 691.4232
" style="fill: none; stroke: #000000; stroke-width: 0.8; stroke-linejoin: miter; stroke-linecap: square"/>
   </g>
   <g id="patch_6">
    <path d="M 172.8 93.2256
L 1244.16 93.2256
" style="fill: none; stroke: #000000; stroke-width: 0.8; stroke-linejoin: miter; stroke-linecap: square"/>
   </g>
   <g id="text_22">
    <!-- Intel(R) Xeon(R) CPU E5-1650 v4 @ 3.60GHz / NVIDIA RTX A5000 -->
    <g transform="translate(513.377812 87.2256) scale(0.12 -0.12)">
     <defs>
      <path id="DejaVuSans-74" d="M 1172 4494
L 1172 3500
L 2356 3500
L 2356 3053
L 1172 3053
L 1172 1153
Q 1172 725 1289 603
Q 1406 481 1766 481
L 2356 481
L 2356 0
L 1766 0
Q 1100 0 847 248
Q 594 497 594 1153
L 594 3053
L 172 3053
L 172 3500
L 594 3500
L 594 4494
L 1172 4494
z
" transform="scale(0.015625)"/>
      <path id="DejaVuSans-52" d="M 2841 2188
Q 3044 2119 3236 1894
Q 3428 1669 3622 1275
L 4263 0
L 3584 0
L 2988 1197
Q 2756 1666 2539 1819
Q 2322 1972 1947 1972
L 1259 1972
L 1259 0
L 628 0
L 628 4666
L 2053 4666
Q 2853 4666 3247 4331
Q 3641 3997 3641 3322
Q 3641 2881 3436 2590
Q 3231 2300 2841 2188
z
M 1259 4147
L 1259 2491
L 2053 2491
Q 2509 2491 2742 2702
Q 2975 2913 2975 3322
Q 2975 3731 2742 3939
Q 2509 4147 2053 4147
L 1259 4147
z
" transform="scale(0.015625)"/>
      <path id="DejaVuSans-58" d="M 403 4666
L 1081 4666
L 2241 2931
L 3406 4666
L 4084 4666
L 2584 2425
L 4184 0
L 3506 0
L 2194 1984
L 872 0
L 191 0
L 1856 2491
L 403 4666
z
" transform="scale(0.015625)"/>
      <path id="DejaVuSans-43" d="M 4122 4306
L 4122 3641
Q 3803 3938 3442 4084
Q 3081 4231 2675 4231
Q 1875 4231 1450 3742
Q 1025 3253 1025 2328
Q 1025 1406 1450 917
Q 1875 428 2675 428
Q 3081 428 3442 575
Q 3803 722 4122 1019
L 4122 359
Q 3791 134 3420 21
Q 3050 -91 2638 -91
Q 1578 -91 968 557
Q 359 1206 359 2328
Q 359 3453 968 4101
Q 1578 4750 2638 4750
Q 3056 4750 3426 4639
Q 3797 4528 4122 4306
z
" transform="scale(0.015625)"/>
      <path id="DejaVuSans-50" d="M 1259 4147
L 1259 2394
L 2053 2394
Q 2494 2394 2734 2622
Q 2975 2850 2975 3272
Q 2975 3691 2734 3919
Q 2494 4147 2053 4147
L 1259 4147
z
M 628 4666
L 2053 4666
Q 2838 4666 3239 4311
Q 3641 3956 3641 3272
Q 3641 2581 3239 2228
Q 2838 1875 2053 1875
L 1259 1875
L 1259 0
L 628 0
L 628 4666
z
" transform="scale(0.015625)"/>
      <path id="DejaVuSans-55" d="M 556 4666
L 1191 4666
L 1191 1831
Q 1191 1081 1462 751
Q 1734 422 2344 422
Q 2950 422 3222 751
Q 3494 1081 3494 1831
L 3494 4666
L 4128 4666
L 4128 1753
Q 4128 841 3676 375
Q 3225 -91 2344 -91
Q 1459 -91 1007 375
Q 556 841 556 1753
L 556 4666
z
" transform="scale(0.015625)"/>
      <path id="DejaVuSans-45" d="M 628 4666
L 3578 4666
L 3578 4134
L 1259 4134
L 1259 2753
L 3481 2753
L 3481 2222
L 1259 2222
L 1259 531
L 3634 531
L 3634 0
L 628 0
L 628 4666
z
" transform="scale(0.015625)"/>
      <path id="DejaVuSans-76" d="M 191 3500
L 800 3500
L 1894 563
L 2988 3500
L 3597 3500
L 2284 0
L 1503 0
L 191 3500
z
" transform="scale(0.015625)"/>
      <path id="DejaVuSans-40" d="M 2381 1678
Q 2381 1231 2603 976
Q 2825 722 3213 722
Q 3597 722 3817 978
Q 4038 1234 4038 1678
Q 4038 2116 3813 2373
Q 3588 2631 3206 2631
Q 2828 2631 2604 2375
Q 2381 2119 2381 1678
z
M 4084 744
Q 3897 503 3655 389
Q 3413 275 3091 275
Q 2553 275 2217 664
Q 1881 1053 1881 1678
Q 1881 2303 2218 2693
Q 2556 3084 3091 3084
Q 3413 3084 3656 2967
Q 3900 2850 4084 2613
L 4084 3022
L 4531 3022
L 4531 722
Q 4988 791 5245 1139
Q 5503 1488 5503 2041
Q 5503 2375 5404 2669
Q 5306 2963 5106 3213
Q 4781 3622 4314 3839
Q 3847 4056 3297 4056
Q 2913 4056 2559 3954
Q 2206 3853 1906 3653
Q 1416 3334 1139 2817
Q 863 2300 863 1697
Q 863 1200 1042 765
Q 1222 331 1563 0
Q 1891 -325 2322 -495
Q 2753 -666 3244 -666
Q 3647 -666 4036 -530
Q 4425 -394 4750 -141
L 5031 -488
Q 4641 -791 4180 -952
Q 3719 -1113 3244 -1113
Q 2666 -1113 2153 -908
Q 1641 -703 1241 -313
Q 841 78 631 592
Q 422 1106 422 1697
Q 422 2266 634 2781
Q 847 3297 1241 3688
Q 1644 4084 2172 4295
Q 2700 4506 3291 4506
Q 3953 4506 4520 4234
Q 5088 3963 5472 3463
Q 5706 3156 5829 2797
Q 5953 2438 5953 2053
Q 5953 1231 5456 756
Q 4959 281 4084 263
L 4084 744
z
" transform="scale(0.015625)"/>
      <path id="DejaVuSans-33" d="M 2597 2516
Q 3050 2419 3304 2112
Q 3559 1806 3559 1356
Q 3559 666 3084 287
Q 2609 -91 1734 -91
Q 1441 -91 1130 -33
Q 819 25 488 141
L 488 750
Q 750 597 1062 519
Q 1375 441 1716 441
Q 2309 441 2620 675
Q 2931 909 2931 1356
Q 2931 1769 2642 2001
Q 2353 2234 1838 2234
L 1294 2234
L 1294 2753
L 1863 2753
Q 2328 2753 2575 2939
Q 2822 3125 2822 3475
Q 2822 3834 2567 4026
Q 2313 4219 1838 4219
Q 1578 4219 1281 4162
Q 984 4106 628 3988
L 628 4550
Q 988 4650 1302 4700
Q 1616 4750 1894 4750
Q 2613 4750 3031 4423
Q 3450 4097 3450 3541
Q 3450 3153 3228 2886
Q 3006 2619 2597 2516
z
" transform="scale(0.015625)"/>
      <path id="DejaVuSans-47" d="M 3809 666
L 3809 1919
L 2778 1919
L 2778 2438
L 4434 2438
L 4434 434
Q 4069 175 3628 42
Q 3188 -91 2688 -91
Q 1594 -91 976 548
Q 359 1188 359 2328
Q 359 3472 976 4111
Q 1594 4750 2688 4750
Q 3144 4750 3555 4637
Q 3966 4525 4313 4306
L 4313 3634
Q 3963 3931 3569 4081
Q 3175 4231 2741 4231
Q 1884 4231 1454 3753
Q 1025 3275 1025 2328
Q 1025 1384 1454 906
Q 1884 428 2741 428
Q 3075 428 3337 486
Q 3600 544 3809 666
z
" transform="scale(0.015625)"/>
      <path id="DejaVuSans-48" d="M 628 4666
L 1259 4666
L 1259 2753
L 3553 2753
L 3553 4666
L 4184 4666
L 4184 0
L 3553 0
L 3553 2222
L 1259 2222
L 1259 0
L 628 0
L 628 4666
z
" transform="scale(0.015625)"/>
      <path id="DejaVuSans-2f" d="M 1625 4666
L 2156 4666
L 531 -594
L 0 -594
L 1625 4666
z
" transform="scale(0.015625)"/>
      <path id="DejaVuSans-4e" d="M 628 4666
L 1478 4666
L 3547 763
L 3547 4666
L 4159 4666
L 4159 0
L 3309 0
L 1241 3903
L 1241 0
L 628 0
L 628 4666
z
" transform="scale(0.015625)"/>
      <path id="DejaVuSans-56" d="M 1831 0
L 50 4666
L 709 4666
L 2188 738
L 3669 4666
L 4325 4666
L 2547 0
L 1831 0
z
" transform="scale(0.015625)"/>
      <path id="DejaVuSans-44" d="M 1259 4147
L 1259 519
L 2022 519
Q 2988 519 3436 956
Q 3884 1394 3884 2338
Q 3884 3275 3436 3711
Q 2988 4147 2022 4147
L 1259 4147
z
M 628 4666
L 1925 4666
Q 3281 4666 3915 4102
Q 4550 3538 4550 2338
Q 4550 1131 3912 565
Q 3275 0 1925 0
L 628 0
L 628 4666
z
" transform="scale(0.015625)"/>
      <path id="DejaVuSans-41" d="M 2188 4044
L 1331 1722
L 3047 1722
L 2188 4044
z
M 1831 4666
L 2547 4666
L 4325 0
L 3669 0
L 3244 1197
L 1141 1197
L 716 0
L 50 0
L 1831 4666
z
" transform="scale(0.015625)"/>
      <path id="DejaVuSans-54" d="M -19 4666
L 3928 4666
L 3928 4134
L 2272 4134
L 2272 0
L 1638 0
L 1638 4134
L -19 4134
L -19 4666
z
" transform="scale(0.015625)"/>
     </defs>
     <use xlink:href="#DejaVuSans-49"/>
     <use xlink:href="#DejaVuSans-6e" x="29.492188"/>
     <use xlink:href="#DejaVuSans-74" x="92.871094"/>
     <use xlink:href="#DejaVuSans-65" x="132.080078"/>
     <use xlink:href="#DejaVuSans-6c" x="193.603516"/>
     <use xlink:href="#DejaVuSans-28" x="221.386719"/>
     <use xlink:href="#DejaVuSans-52" x="260.400391"/>
     <use xlink:href="#DejaVuSans-29" x="329.882812"/>
     <use xlink:href="#DejaVuSans-20" x="368.896484"/>
     <use xlink:href="#DejaVuSans-58" x="400.683594"/>
     <use xlink:href="#DejaVuSans-65" x="464.689453"/>
     <use xlink:href="#DejaVuSans-6f" x="526.212891"/>
     <use xlink:href="#DejaVuSans-6e" x="587.394531"/>
     <use xlink:href="#DejaVuSans-28" x="650.773438"/>
     <use xlink:href="#DejaVuSans-52" x="689.787109"/>
     <use xlink:href="#DejaVuSans-29" x="759.269531"/>
     <use xlink:href="#DejaVuSans-20" x="798.283203"/>
     <use xlink:href="#DejaVuSans-43" x="830.070312"/>
     <use xlink:href="#DejaVuSans-50" x="899.894531"/>
     <use xlink:href="#DejaVuSans-55" x="960.197266"/>
     <use xlink:href="#DejaVuSans-20" x="1033.390625"/>
     <use xlink:href="#DejaVuSans-45" x="1065.177734"/>
     <use xlink:href="#DejaVuSans-35" x="1128.361328"/>
     <use xlink:href="#DejaVuSans-2d" x="1191.984375"/>
     <use xlink:href="#DejaVuSans-31" x="1228.068359"/>
     <use xlink:href="#DejaVuSans-36" x="1291.691406"/>
     <use xlink:href="#DejaVuSans-35" x="1355.314453"/>
     <use xlink:href="#DejaVuSans-30" x="1418.9375"/>
     <use xlink:href="#DejaVuSans-20" x="1482.560547"/>
     <use xlink:href="#DejaVuSans-76" x="1514.347656"/>
     <use xlink:href="#DejaVuSans-34" x="1573.527344"/>
     <use xlink:href="#DejaVuSans-20" x="1637.150391"/>
     <use xlink:href="#DejaVuSans-40" x="1668.9375"/>
     <use xlink:href="#DejaVuSans-20" x="1768.9375"/>
     <use xlink:href="#DejaVuSans-33" x="1800.724609"/>
     <use xlink:href="#DejaVuSans-2e" x="1864.347656"/>
     <use xlink:href="#DejaVuSans-36" x="1896.134766"/>
     <use xlink:href="#DejaVuSans-30" x="1959.757812"/>
     <use xlink:href="#DejaVuSans-47" x="2023.380859"/>
     <use xlink:href="#DejaVuSans-48" x="2100.871094"/>
     <use xlink:href="#DejaVuSans-7a" x="2176.066406"/>
     <use xlink:href="#DejaVuSans-20" x="2228.556641"/>
     <use xlink:href="#DejaVuSans-2f" x="2260.34375"/>
     <use xlink:href="#DejaVuSans-20" x="2294.035156"/>
     <use xlink:href="#DejaVuSans-4e" x="2325.822266"/>
     <use xlink:href="#DejaVuSans-56" x="2400.626953"/>
     <use xlink:href="#DejaVuSans-49" x="2469.035156"/>
     <use xlink:href="#DejaVuSans-44" x="2498.527344"/>
     <use xlink:href="#DejaVuSans-49" x="2575.529297"/>
     <use xlink:href="#DejaVuSans-41" x="2605.021484"/>
     <use xlink:href="#DejaVuSans-20" x="2673.429688"/>
     <use xlink:href="#DejaVuSans-52" x="2705.216797"/>
     <use xlink:href="#DejaVuSans-54" x="2767.449219"/>
     <use xlink:href="#DejaVuSans-58" x="2828.533203"/>
     <use xlink:href="#DejaVuSans-20" x="2897.039062"/>
     <use xlink:href="#DejaVuSans-41" x="2928.826172"/>
     <use xlink:href="#DejaVuSans-35" x="2997.234375"/>
     <use xlink:href="#DejaVuSans-30" x="3060.857422"/>
     <use xlink:href="#DejaVuSans-30" x="3124.480469"/>
     <use xlink:href="#DejaVuSans-30" x="3188.103516"/>
    </g>
   </g>
   <g id="legend_1">
    <g id="patch_7">
     <path d="M 916.400625 235.83185
L 1237.16 235.83185
Q 1239.16 235.83185 1239.16 233.83185
L 1239.16 100.2256
Q 1239.16 98.2256 1237.16 98.2256
L 916.400625 98.2256
Q 914.400625 98.2256 914.400625 100.2256
L 914.400625 233.83185
Q 914.400625 235.83185 916.400625 235.83185
z
" style="fill: #ffffff; opacity: 0.8; stroke: #cccccc; stroke-linejoin: miter"/>
    </g>
    <g id="line2d_29">
     <path d="M 918.400625 106.324037
L 928.400625 106.324037
L 938.400625 106.324037
" style="fill: none; stroke: #1f77b4; stroke-width: 1.5; stroke-linecap: square"/>
     <g>
      <use xlink:href="#m1c690916a6" x="928.400625" y="106.324037" style="fill: #1f77b4; stroke: #1f77b4; stroke-linejoin: miter"/>
     </g>
    </g>
    <g id="text_23">
     <!-- integrate1d_legacy CPU_serial -->
     <g transform="translate(946.400625 109.824037) scale(0.1 -0.1)">
      <defs>
       <path id="DejaVuSans-5f" d="M 3263 -1063
L 3263 -1509
L -63 -1509
L -63 -1063
L 3263 -1063
z
" transform="scale(0.015625)"/>
       <path id="DejaVuSans-79" d="M 2059 -325
Q 1816 -950 1584 -1140
Q 1353 -1331 966 -1331
L 506 -1331
L 506 -850
L 844 -850
Q 1081 -850 1212 -737
Q 1344 -625 1503 -206
L 1606 56
L 191 3500
L 800 3500
L 1894 763
L 2988 3500
L 3597 3500
L 2059 -325
z
" transform="scale(0.015625)"/>
      </defs>
      <use xlink:href="#DejaVuSans-69"/>
      <use xlink:href="#DejaVuSans-6e" x="27.783203"/>
      <use xlink:href="#DejaVuSans-74" x="91.162109"/>
      <use xlink:href="#DejaVuSans-65" x="130.371094"/>
      <use xlink:href="#DejaVuSans-67" x="191.894531"/>
      <use xlink:href="#DejaVuSans-72" x="255.371094"/>
      <use xlink:href="#DejaVuSans-61" x="296.484375"/>
      <use xlink:href="#DejaVuSans-74" x="357.763672"/>
      <use xlink:href="#DejaVuSans-65" x="396.972656"/>
      <use xlink:href="#DejaVuSans-31" x="458.496094"/>
      <use xlink:href="#DejaVuSans-64" x="522.119141"/>
      <use xlink:href="#DejaVuSans-5f" x="585.595703"/>
      <use xlink:href="#DejaVuSans-6c" x="635.595703"/>
      <use xlink:href="#DejaVuSans-65" x="663.378906"/>
      <use xlink:href="#DejaVuSans-67" x="724.902344"/>
      <use xlink:href="#DejaVuSans-61" x="788.378906"/>
      <use xlink:href="#DejaVuSans-63" x="849.658203"/>
      <use xlink:href="#DejaVuSans-79" x="904.638672"/>
      <use xlink:href="#DejaVuSans-20" x="963.818359"/>
      <use xlink:href="#DejaVuSans-43" x="995.605469"/>
      <use xlink:href="#DejaVuSans-50" x="1065.429688"/>
      <use xlink:href="#DejaVuSans-55" x="1125.732422"/>
      <use xlink:href="#DejaVuSans-5f" x="1198.925781"/>
      <use xlink:href="#DejaVuSans-73" x="1248.925781"/>
      <use xlink:href="#DejaVuSans-65" x="1301.025391"/>
      <use xlink:href="#DejaVuSans-72" x="1362.548828"/>
      <use xlink:href="#DejaVuSans-69" x="1403.662109"/>
      <use xlink:href="#DejaVuSans-61" x="1431.445312"/>
      <use xlink:href="#DejaVuSans-6c" x="1492.724609"/>
     </g>
    </g>
    <g id="line2d_30">
     <path d="M 918.400625 121.280287
L 928.400625 121.280287
L 938.400625 121.280287
" style="fill: none; stroke: #ff7f0e; stroke-width: 1.5; stroke-linecap: square"/>
     <g>
      <use xlink:href="#m74e39e477b" x="928.400625" y="121.280287" style="fill: #ff7f0e; stroke: #ff7f0e"/>
     </g>
    </g>
    <g id="text_24">
     <!-- integrate1d_ng CPU_serial -->
     <g transform="translate(946.400625 124.780287) scale(0.1 -0.1)">
      <use xlink:href="#DejaVuSans-69"/>
      <use xlink:href="#DejaVuSans-6e" x="27.783203"/>
      <use xlink:href="#DejaVuSans-74" x="91.162109"/>
      <use xlink:href="#DejaVuSans-65" x="130.371094"/>
      <use xlink:href="#DejaVuSans-67" x="191.894531"/>
      <use xlink:href="#DejaVuSans-72" x="255.371094"/>
      <use xlink:href="#DejaVuSans-61" x="296.484375"/>
      <use xlink:href="#DejaVuSans-74" x="357.763672"/>
      <use xlink:href="#DejaVuSans-65" x="396.972656"/>
      <use xlink:href="#DejaVuSans-31" x="458.496094"/>
      <use xlink:href="#DejaVuSans-64" x="522.119141"/>
      <use xlink:href="#DejaVuSans-5f" x="585.595703"/>
      <use xlink:href="#DejaVuSans-6e" x="635.595703"/>
      <use xlink:href="#DejaVuSans-67" x="698.974609"/>
      <use xlink:href="#DejaVuSans-20" x="762.451172"/>
      <use xlink:href="#DejaVuSans-43" x="794.238281"/>
      <use xlink:href="#DejaVuSans-50" x="864.0625"/>
      <use xlink:href="#DejaVuSans-55" x="924.365234"/>
      <use xlink:href="#DejaVuSans-5f" x="997.558594"/>
      <use xlink:href="#DejaVuSans-73" x="1047.558594"/>
      <use xlink:href="#DejaVuSans-65" x="1099.658203"/>
      <use xlink:href="#DejaVuSans-72" x="1161.181641"/>
      <use xlink:href="#DejaVuSans-69" x="1202.294922"/>
      <use xlink:href="#DejaVuSans-61" x="1230.078125"/>
      <use xlink:href="#DejaVuSans-6c" x="1291.357422"/>
     </g>
    </g>
    <g id="line2d_31">
     <path d="M 918.400625 136.236537
L 928.400625 136.236537
L 938.400625 136.236537
" style="fill: none; stroke: #2ca02c; stroke-width: 1.5; stroke-linecap: square"/>
     <g>
      <use xlink:href="#m84deae7019" x="928.400625" y="136.236537" style="fill: #2ca02c; stroke: #2ca02c"/>
     </g>
    </g>
    <g id="text_25">
     <!-- integrate1d_ng CPU_CSC_Serial -->
     <g transform="translate(946.400625 139.736537) scale(0.1 -0.1)">
      <defs>
       <path id="DejaVuSans-53" d="M 3425 4513
L 3425 3897
Q 3066 4069 2747 4153
Q 2428 4238 2131 4238
Q 1616 4238 1336 4038
Q 1056 3838 1056 3469
Q 1056 3159 1242 3001
Q 1428 2844 1947 2747
L 2328 2669
Q 3034 2534 3370 2195
Q 3706 1856 3706 1288
Q 3706 609 3251 259
Q 2797 -91 1919 -91
Q 1588 -91 1214 -16
Q 841 59 441 206
L 441 856
Q 825 641 1194 531
Q 1563 422 1919 422
Q 2459 422 2753 634
Q 3047 847 3047 1241
Q 3047 1584 2836 1778
Q 2625 1972 2144 2069
L 1759 2144
Q 1053 2284 737 2584
Q 422 2884 422 3419
Q 422 4038 858 4394
Q 1294 4750 2059 4750
Q 2388 4750 2728 4690
Q 3069 4631 3425 4513
z
" transform="scale(0.015625)"/>
      </defs>
      <use xlink:href="#DejaVuSans-69"/>
      <use xlink:href="#DejaVuSans-6e" x="27.783203"/>
      <use xlink:href="#DejaVuSans-74" x="91.162109"/>
      <use xlink:href="#DejaVuSans-65" x="130.371094"/>
      <use xlink:href="#DejaVuSans-67" x="191.894531"/>
      <use xlink:href="#DejaVuSans-72" x="255.371094"/>
      <use xlink:href="#DejaVuSans-61" x="296.484375"/>
      <use xlink:href="#DejaVuSans-74" x="357.763672"/>
      <use xlink:href="#DejaVuSans-65" x="396.972656"/>
      <use xlink:href="#DejaVuSans-31" x="458.496094"/>
      <use xlink:href="#DejaVuSans-64" x="522.119141"/>
      <use xlink:href="#DejaVuSans-5f" x="585.595703"/>
      <use xlink:href="#DejaVuSans-6e" x="635.595703"/>
      <use xlink:href="#DejaVuSans-67" x="698.974609"/>
      <use xlink:href="#DejaVuSans-20" x="762.451172"/>
      <use xlink:href="#DejaVuSans-43" x="794.238281"/>
      <use xlink:href="#DejaVuSans-50" x="864.0625"/>
      <use xlink:href="#DejaVuSans-55" x="924.365234"/>
      <use xlink:href="#DejaVuSans-5f" x="997.558594"/>
      <use xlink:href="#DejaVuSans-43" x="1047.558594"/>
      <use xlink:href="#DejaVuSans-53" x="1117.382812"/>
      <use xlink:href="#DejaVuSans-43" x="1180.859375"/>
      <use xlink:href="#DejaVuSans-5f" x="1250.683594"/>
      <use xlink:href="#DejaVuSans-53" x="1300.683594"/>
      <use xlink:href="#DejaVuSans-65" x="1364.160156"/>
      <use xlink:href="#DejaVuSans-72" x="1425.683594"/>
      <use xlink:href="#DejaVuSans-69" x="1466.796875"/>
      <use xlink:href="#DejaVuSans-61" x="1494.580078"/>
      <use xlink:href="#DejaVuSans-6c" x="1555.859375"/>
     </g>
    </g>
    <g id="line2d_32">
     <path d="M 918.400625 151.192787
L 928.400625 151.192787
L 938.400625 151.192787
" style="fill: none; stroke: #d62728; stroke-width: 1.5; stroke-linecap: square"/>
     <g>
      <use xlink:href="#m9d6a023286" x="928.400625" y="151.192787" style="fill: #d62728; stroke: #d62728; stroke-linejoin: miter"/>
     </g>
    </g>
    <g id="text_26">
     <!-- integrate1d_legacy CPU_CSR_OpenMP -->
     <g transform="translate(946.400625 154.692787) scale(0.1 -0.1)">
      <defs>
       <path id="DejaVuSans-4f" d="M 2522 4238
Q 1834 4238 1429 3725
Q 1025 3213 1025 2328
Q 1025 1447 1429 934
Q 1834 422 2522 422
Q 3209 422 3611 934
Q 4013 1447 4013 2328
Q 4013 3213 3611 3725
Q 3209 4238 2522 4238
z
M 2522 4750
Q 3503 4750 4090 4092
Q 4678 3434 4678 2328
Q 4678 1225 4090 567
Q 3503 -91 2522 -91
Q 1538 -91 948 565
Q 359 1222 359 2328
Q 359 3434 948 4092
Q 1538 4750 2522 4750
z
" transform="scale(0.015625)"/>
       <path id="DejaVuSans-4d" d="M 628 4666
L 1569 4666
L 2759 1491
L 3956 4666
L 4897 4666
L 4897 0
L 4281 0
L 4281 4097
L 3078 897
L 2444 897
L 1241 4097
L 1241 0
L 628 0
L 628 4666
z
" transform="scale(0.015625)"/>
      </defs>
      <use xlink:href="#DejaVuSans-69"/>
      <use xlink:href="#DejaVuSans-6e" x="27.783203"/>
      <use xlink:href="#DejaVuSans-74" x="91.162109"/>
      <use xlink:href="#DejaVuSans-65" x="130.371094"/>
      <use xlink:href="#DejaVuSans-67" x="191.894531"/>
      <use xlink:href="#DejaVuSans-72" x="255.371094"/>
      <use xlink:href="#DejaVuSans-61" x="296.484375"/>
      <use xlink:href="#DejaVuSans-74" x="357.763672"/>
      <use xlink:href="#DejaVuSans-65" x="396.972656"/>
      <use xlink:href="#DejaVuSans-31" x="458.496094"/>
      <use xlink:href="#DejaVuSans-64" x="522.119141"/>
      <use xlink:href="#DejaVuSans-5f" x="585.595703"/>
      <use xlink:href="#DejaVuSans-6c" x="635.595703"/>
      <use xlink:href="#DejaVuSans-65" x="663.378906"/>
      <use xlink:href="#DejaVuSans-67" x="724.902344"/>
      <use xlink:href="#DejaVuSans-61" x="788.378906"/>
      <use xlink:href="#DejaVuSans-63" x="849.658203"/>
      <use xlink:href="#DejaVuSans-79" x="904.638672"/>
      <use xlink:href="#DejaVuSans-20" x="963.818359"/>
      <use xlink:href="#DejaVuSans-43" x="995.605469"/>
      <use xlink:href="#DejaVuSans-50" x="1065.429688"/>
      <use xlink:href="#DejaVuSans-55" x="1125.732422"/>
      <use xlink:href="#DejaVuSans-5f" x="1198.925781"/>
      <use xlink:href="#DejaVuSans-43" x="1248.925781"/>
      <use xlink:href="#DejaVuSans-53" x="1318.75"/>
      <use xlink:href="#DejaVuSans-52" x="1382.226562"/>
      <use xlink:href="#DejaVuSans-5f" x="1451.708984"/>
      <use xlink:href="#DejaVuSans-4f" x="1501.708984"/>
      <use xlink:href="#DejaVuSans-70" x="1580.419922"/>
      <use xlink:href="#DejaVuSans-65" x="1643.896484"/>
      <use xlink:href="#DejaVuSans-6e" x="1705.419922"/>
      <use xlink:href="#DejaVuSans-4d" x="1768.798828"/>
      <use xlink:href="#DejaVuSans-50" x="1855.078125"/>
     </g>
    </g>
    <g id="line2d_33">
     <path d="M 918.400625 166.149037
L 928.400625 166.149037
L 938.400625 166.149037
" style="fill: none; stroke: #9467bd; stroke-width: 1.5; stroke-linecap: square"/>
     <g>
      <use xlink:href="#mcfb9e65ff0" x="928.400625" y="166.149037" style="fill: #9467bd; stroke: #9467bd"/>
     </g>
    </g>
    <g id="text_27">
     <!-- integrate1d_ng CPU_CSR_OpenMP -->
     <g transform="translate(946.400625 169.649037) scale(0.1 -0.1)">
      <use xlink:href="#DejaVuSans-69"/>
      <use xlink:href="#DejaVuSans-6e" x="27.783203"/>
      <use xlink:href="#DejaVuSans-74" x="91.162109"/>
      <use xlink:href="#DejaVuSans-65" x="130.371094"/>
      <use xlink:href="#DejaVuSans-67" x="191.894531"/>
      <use xlink:href="#DejaVuSans-72" x="255.371094"/>
      <use xlink:href="#DejaVuSans-61" x="296.484375"/>
      <use xlink:href="#DejaVuSans-74" x="357.763672"/>
      <use xlink:href="#DejaVuSans-65" x="396.972656"/>
      <use xlink:href="#DejaVuSans-31" x="458.496094"/>
      <use xlink:href="#DejaVuSans-64" x="522.119141"/>
      <use xlink:href="#DejaVuSans-5f" x="585.595703"/>
      <use xlink:href="#DejaVuSans-6e" x="635.595703"/>
      <use xlink:href="#DejaVuSans-67" x="698.974609"/>
      <use xlink:href="#DejaVuSans-20" x="762.451172"/>
      <use xlink:href="#DejaVuSans-43" x="794.238281"/>
      <use xlink:href="#DejaVuSans-50" x="864.0625"/>
      <use xlink:href="#DejaVuSans-55" x="924.365234"/>
      <use xlink:href="#DejaVuSans-5f" x="997.558594"/>
      <use xlink:href="#DejaVuSans-43" x="1047.558594"/>
      <use xlink:href="#DejaVuSans-53" x="1117.382812"/>
      <use xlink:href="#DejaVuSans-52" x="1180.859375"/>
      <use xlink:href="#DejaVuSans-5f" x="1250.341797"/>
      <use xlink:href="#DejaVuSans-4f" x="1300.341797"/>
      <use xlink:href="#DejaVuSans-70" x="1379.052734"/>
      <use xlink:href="#DejaVuSans-65" x="1442.529297"/>
      <use xlink:href="#DejaVuSans-6e" x="1504.052734"/>
      <use xlink:href="#DejaVuSans-4d" x="1567.431641"/>
      <use xlink:href="#DejaVuSans-50" x="1653.710938"/>
     </g>
    </g>
    <g id="line2d_34">
     <path d="M 918.400625 181.105287
L 928.400625 181.105287
L 938.400625 181.105287
" style="fill: none; stroke-dasharray: 5.55,2.4; stroke-dashoffset: 0; stroke: #8c564b; stroke-width: 1.5"/>
     <g>
      <use xlink:href="#macea0d7a02" x="928.400625" y="181.105287" style="fill: #8c564b; stroke: #8c564b; stroke-linejoin: miter"/>
     </g>
    </g>
    <g id="text_28">
     <!-- integrate1d_legacy_GPU_CSR_NVIDIA_NVIDIA_RTX_A5000 -->
     <g transform="translate(946.400625 184.605287) scale(0.1 -0.1)">
      <use xlink:href="#DejaVuSans-69"/>
      <use xlink:href="#DejaVuSans-6e" x="27.783203"/>
      <use xlink:href="#DejaVuSans-74" x="91.162109"/>
      <use xlink:href="#DejaVuSans-65" x="130.371094"/>
      <use xlink:href="#DejaVuSans-67" x="191.894531"/>
      <use xlink:href="#DejaVuSans-72" x="255.371094"/>
      <use xlink:href="#DejaVuSans-61" x="296.484375"/>
      <use xlink:href="#DejaVuSans-74" x="357.763672"/>
      <use xlink:href="#DejaVuSans-65" x="396.972656"/>
      <use xlink:href="#DejaVuSans-31" x="458.496094"/>
      <use xlink:href="#DejaVuSans-64" x="522.119141"/>
      <use xlink:href="#DejaVuSans-5f" x="585.595703"/>
      <use xlink:href="#DejaVuSans-6c" x="635.595703"/>
      <use xlink:href="#DejaVuSans-65" x="663.378906"/>
      <use xlink:href="#DejaVuSans-67" x="724.902344"/>
      <use xlink:href="#DejaVuSans-61" x="788.378906"/>
      <use xlink:href="#DejaVuSans-63" x="849.658203"/>
      <use xlink:href="#DejaVuSans-79" x="904.638672"/>
      <use xlink:href="#DejaVuSans-5f" x="963.818359"/>
      <use xlink:href="#DejaVuSans-47" x="1013.818359"/>
      <use xlink:href="#DejaVuSans-50" x="1091.308594"/>
      <use xlink:href="#DejaVuSans-55" x="1151.611328"/>
      <use xlink:href="#DejaVuSans-5f" x="1224.804688"/>
      <use xlink:href="#DejaVuSans-43" x="1274.804688"/>
      <use xlink:href="#DejaVuSans-53" x="1344.628906"/>
      <use xlink:href="#DejaVuSans-52" x="1408.105469"/>
      <use xlink:href="#DejaVuSans-5f" x="1477.587891"/>
      <use xlink:href="#DejaVuSans-4e" x="1527.587891"/>
      <use xlink:href="#DejaVuSans-56" x="1602.392578"/>
      <use xlink:href="#DejaVuSans-49" x="1670.800781"/>
      <use xlink:href="#DejaVuSans-44" x="1700.292969"/>
      <use xlink:href="#DejaVuSans-49" x="1777.294922"/>
      <use xlink:href="#DejaVuSans-41" x="1806.787109"/>
      <use xlink:href="#DejaVuSans-5f" x="1875.195312"/>
      <use xlink:href="#DejaVuSans-4e" x="1925.195312"/>
      <use xlink:href="#DejaVuSans-56" x="2000"/>
      <use xlink:href="#DejaVuSans-49" x="2068.408203"/>
      <use xlink:href="#DejaVuSans-44" x="2097.900391"/>
      <use xlink:href="#DejaVuSans-49" x="2174.902344"/>
      <use xlink:href="#DejaVuSans-41" x="2204.394531"/>
      <use xlink:href="#DejaVuSans-5f" x="2272.802734"/>
      <use xlink:href="#DejaVuSans-52" x="2322.802734"/>
      <use xlink:href="#DejaVuSans-54" x="2385.035156"/>
      <use xlink:href="#DejaVuSans-58" x="2446.119141"/>
      <use xlink:href="#DejaVuSans-5f" x="2514.625"/>
      <use xlink:href="#DejaVuSans-41" x="2564.625"/>
      <use xlink:href="#DejaVuSans-35" x="2633.033203"/>
      <use xlink:href="#DejaVuSans-30" x="2696.65625"/>
      <use xlink:href="#DejaVuSans-30" x="2760.279297"/>
      <use xlink:href="#DejaVuSans-30" x="2823.902344"/>
     </g>
    </g>
    <g id="line2d_35">
     <path d="M 918.400625 196.061537
L 928.400625 196.061537
L 938.400625 196.061537
" style="fill: none; stroke-dasharray: 5.55,2.4; stroke-dashoffset: 0; stroke: #e377c2; stroke-width: 1.5"/>
     <g>
      <use xlink:href="#m732845e3bd" x="928.400625" y="196.061537" style="fill: #e377c2; stroke: #e377c2"/>
     </g>
    </g>
    <g id="text_29">
     <!-- integrate1d_ng_GPU_CSR_NVIDIA_NVIDIA_RTX_A5000 -->
     <g transform="translate(946.400625 199.561537) scale(0.1 -0.1)">
      <use xlink:href="#DejaVuSans-69"/>
      <use xlink:href="#DejaVuSans-6e" x="27.783203"/>
      <use xlink:href="#DejaVuSans-74" x="91.162109"/>
      <use xlink:href="#DejaVuSans-65" x="130.371094"/>
      <use xlink:href="#DejaVuSans-67" x="191.894531"/>
      <use xlink:href="#DejaVuSans-72" x="255.371094"/>
      <use xlink:href="#DejaVuSans-61" x="296.484375"/>
      <use xlink:href="#DejaVuSans-74" x="357.763672"/>
      <use xlink:href="#DejaVuSans-65" x="396.972656"/>
      <use xlink:href="#DejaVuSans-31" x="458.496094"/>
      <use xlink:href="#DejaVuSans-64" x="522.119141"/>
      <use xlink:href="#DejaVuSans-5f" x="585.595703"/>
      <use xlink:href="#DejaVuSans-6e" x="635.595703"/>
      <use xlink:href="#DejaVuSans-67" x="698.974609"/>
      <use xlink:href="#DejaVuSans-5f" x="762.451172"/>
      <use xlink:href="#DejaVuSans-47" x="812.451172"/>
      <use xlink:href="#DejaVuSans-50" x="889.941406"/>
      <use xlink:href="#DejaVuSans-55" x="950.244141"/>
      <use xlink:href="#DejaVuSans-5f" x="1023.4375"/>
      <use xlink:href="#DejaVuSans-43" x="1073.4375"/>
      <use xlink:href="#DejaVuSans-53" x="1143.261719"/>
      <use xlink:href="#DejaVuSans-52" x="1206.738281"/>
      <use xlink:href="#DejaVuSans-5f" x="1276.220703"/>
      <use xlink:href="#DejaVuSans-4e" x="1326.220703"/>
      <use xlink:href="#DejaVuSans-56" x="1401.025391"/>
      <use xlink:href="#DejaVuSans-49" x="1469.433594"/>
      <use xlink:href="#DejaVuSans-44" x="1498.925781"/>
      <use xlink:href="#DejaVuSans-49" x="1575.927734"/>
      <use xlink:href="#DejaVuSans-41" x="1605.419922"/>
      <use xlink:href="#DejaVuSans-5f" x="1673.828125"/>
      <use xlink:href="#DejaVuSans-4e" x="1723.828125"/>
      <use xlink:href="#DejaVuSans-56" x="1798.632812"/>
      <use xlink:href="#DejaVuSans-49" x="1867.041016"/>
      <use xlink:href="#DejaVuSans-44" x="1896.533203"/>
      <use xlink:href="#DejaVuSans-49" x="1973.535156"/>
      <use xlink:href="#DejaVuSans-41" x="2003.027344"/>
      <use xlink:href="#DejaVuSans-5f" x="2071.435547"/>
      <use xlink:href="#DejaVuSans-52" x="2121.435547"/>
      <use xlink:href="#DejaVuSans-54" x="2183.667969"/>
      <use xlink:href="#DejaVuSans-58" x="2244.751953"/>
      <use xlink:href="#DejaVuSans-5f" x="2313.257812"/>
      <use xlink:href="#DejaVuSans-41" x="2363.257812"/>
      <use xlink:href="#DejaVuSans-35" x="2431.666016"/>
      <use xlink:href="#DejaVuSans-30" x="2495.289062"/>
      <use xlink:href="#DejaVuSans-30" x="2558.912109"/>
      <use xlink:href="#DejaVuSans-30" x="2622.535156"/>
     </g>
    </g>
    <g id="line2d_36">
     <path d="M 918.400625 211.017787
L 928.400625 211.017787
L 938.400625 211.017787
" style="fill: none; stroke-dasharray: 5.55,2.4; stroke-dashoffset: 0; stroke: #7f7f7f; stroke-width: 1.5"/>
     <g>
      <use xlink:href="#m6f1ce9b274" x="928.400625" y="211.017787" style="fill: #7f7f7f; stroke: #7f7f7f; stroke-linejoin: miter"/>
     </g>
    </g>
    <g id="text_30">
     <!-- integrate1d_legacy_GPU_CSR_NVIDIA_Quadro_M2000 -->
     <g transform="translate(946.400625 214.517787) scale(0.1 -0.1)">
      <defs>
       <path id="DejaVuSans-51" d="M 2522 4238
Q 1834 4238 1429 3725
Q 1025 3213 1025 2328
Q 1025 1447 1429 934
Q 1834 422 2522 422
Q 3209 422 3611 934
Q 4013 1447 4013 2328
Q 4013 3213 3611 3725
Q 3209 4238 2522 4238
z
M 3406 84
L 4238 -825
L 3475 -825
L 2784 -78
Q 2681 -84 2626 -87
Q 2572 -91 2522 -91
Q 1538 -91 948 567
Q 359 1225 359 2328
Q 359 3434 948 4092
Q 1538 4750 2522 4750
Q 3503 4750 4090 4092
Q 4678 3434 4678 2328
Q 4678 1516 4351 937
Q 4025 359 3406 84
z
" transform="scale(0.015625)"/>
       <path id="DejaVuSans-75" d="M 544 1381
L 544 3500
L 1119 3500
L 1119 1403
Q 1119 906 1312 657
Q 1506 409 1894 409
Q 2359 409 2629 706
Q 2900 1003 2900 1516
L 2900 3500
L 3475 3500
L 3475 0
L 2900 0
L 2900 538
Q 2691 219 2414 64
Q 2138 -91 1772 -91
Q 1169 -91 856 284
Q 544 659 544 1381
z
M 1991 3584
L 1991 3584
z
" transform="scale(0.015625)"/>
      </defs>
      <use xlink:href="#DejaVuSans-69"/>
      <use xlink:href="#DejaVuSans-6e" x="27.783203"/>
      <use xlink:href="#DejaVuSans-74" x="91.162109"/>
      <use xlink:href="#DejaVuSans-65" x="130.371094"/>
      <use xlink:href="#DejaVuSans-67" x="191.894531"/>
      <use xlink:href="#DejaVuSans-72" x="255.371094"/>
      <use xlink:href="#DejaVuSans-61" x="296.484375"/>
      <use xlink:href="#DejaVuSans-74" x="357.763672"/>
      <use xlink:href="#DejaVuSans-65" x="396.972656"/>
      <use xlink:href="#DejaVuSans-31" x="458.496094"/>
      <use xlink:href="#DejaVuSans-64" x="522.119141"/>
      <use xlink:href="#DejaVuSans-5f" x="585.595703"/>
      <use xlink:href="#DejaVuSans-6c" x="635.595703"/>
      <use xlink:href="#DejaVuSans-65" x="663.378906"/>
      <use xlink:href="#DejaVuSans-67" x="724.902344"/>
      <use xlink:href="#DejaVuSans-61" x="788.378906"/>
      <use xlink:href="#DejaVuSans-63" x="849.658203"/>
      <use xlink:href="#DejaVuSans-79" x="904.638672"/>
      <use xlink:href="#DejaVuSans-5f" x="963.818359"/>
      <use xlink:href="#DejaVuSans-47" x="1013.818359"/>
      <use xlink:href="#DejaVuSans-50" x="1091.308594"/>
      <use xlink:href="#DejaVuSans-55" x="1151.611328"/>
      <use xlink:href="#DejaVuSans-5f" x="1224.804688"/>
      <use xlink:href="#DejaVuSans-43" x="1274.804688"/>
      <use xlink:href="#DejaVuSans-53" x="1344.628906"/>
      <use xlink:href="#DejaVuSans-52" x="1408.105469"/>
      <use xlink:href="#DejaVuSans-5f" x="1477.587891"/>
      <use xlink:href="#DejaVuSans-4e" x="1527.587891"/>
      <use xlink:href="#DejaVuSans-56" x="1602.392578"/>
      <use xlink:href="#DejaVuSans-49" x="1670.800781"/>
      <use xlink:href="#DejaVuSans-44" x="1700.292969"/>
      <use xlink:href="#DejaVuSans-49" x="1777.294922"/>
      <use xlink:href="#DejaVuSans-41" x="1806.787109"/>
      <use xlink:href="#DejaVuSans-5f" x="1875.195312"/>
      <use xlink:href="#DejaVuSans-51" x="1925.195312"/>
      <use xlink:href="#DejaVuSans-75" x="2003.90625"/>
      <use xlink:href="#DejaVuSans-61" x="2067.285156"/>
      <use xlink:href="#DejaVuSans-64" x="2128.564453"/>
      <use xlink:href="#DejaVuSans-72" x="2192.041016"/>
      <use xlink:href="#DejaVuSans-6f" x="2230.904297"/>
      <use xlink:href="#DejaVuSans-5f" x="2292.085938"/>
      <use xlink:href="#DejaVuSans-4d" x="2342.085938"/>
      <use xlink:href="#DejaVuSans-32" x="2428.365234"/>
      <use xlink:href="#DejaVuSans-30" x="2491.988281"/>
      <use xlink:href="#DejaVuSans-30" x="2555.611328"/>
      <use xlink:href="#DejaVuSans-30" x="2619.234375"/>
     </g>
    </g>
    <g id="line2d_37">
     <path d="M 918.400625 225.974037
L 928.400625 225.974037
L 938.400625 225.974037
" style="fill: none; stroke-dasharray: 5.55,2.4; stroke-dashoffset: 0; stroke: #bcbd22; stroke-width: 1.5"/>
     <g>
      <use xlink:href="#maa2035c083" x="928.400625" y="225.974037" style="fill: #bcbd22; stroke: #bcbd22"/>
     </g>
    </g>
    <g id="text_31">
     <!-- integrate1d_ng_GPU_CSR_NVIDIA_Quadro_M2000 -->
     <g transform="translate(946.400625 229.474037) scale(0.1 -0.1)">
      <use xlink:href="#DejaVuSans-69"/>
      <use xlink:href="#DejaVuSans-6e" x="27.783203"/>
      <use xlink:href="#DejaVuSans-74" x="91.162109"/>
      <use xlink:href="#DejaVuSans-65" x="130.371094"/>
      <use xlink:href="#DejaVuSans-67" x="191.894531"/>
      <use xlink:href="#DejaVuSans-72" x="255.371094"/>
      <use xlink:href="#DejaVuSans-61" x="296.484375"/>
      <use xlink:href="#DejaVuSans-74" x="357.763672"/>
      <use xlink:href="#DejaVuSans-65" x="396.972656"/>
      <use xlink:href="#DejaVuSans-31" x="458.496094"/>
      <use xlink:href="#DejaVuSans-64" x="522.119141"/>
      <use xlink:href="#DejaVuSans-5f" x="585.595703"/>
      <use xlink:href="#DejaVuSans-6e" x="635.595703"/>
      <use xlink:href="#DejaVuSans-67" x="698.974609"/>
      <use xlink:href="#DejaVuSans-5f" x="762.451172"/>
      <use xlink:href="#DejaVuSans-47" x="812.451172"/>
      <use xlink:href="#DejaVuSans-50" x="889.941406"/>
      <use xlink:href="#DejaVuSans-55" x="950.244141"/>
      <use xlink:href="#DejaVuSans-5f" x="1023.4375"/>
      <use xlink:href="#DejaVuSans-43" x="1073.4375"/>
      <use xlink:href="#DejaVuSans-53" x="1143.261719"/>
      <use xlink:href="#DejaVuSans-52" x="1206.738281"/>
      <use xlink:href="#DejaVuSans-5f" x="1276.220703"/>
      <use xlink:href="#DejaVuSans-4e" x="1326.220703"/>
      <use xlink:href="#DejaVuSans-56" x="1401.025391"/>
      <use xlink:href="#DejaVuSans-49" x="1469.433594"/>
      <use xlink:href="#DejaVuSans-44" x="1498.925781"/>
      <use xlink:href="#DejaVuSans-49" x="1575.927734"/>
      <use xlink:href="#DejaVuSans-41" x="1605.419922"/>
      <use xlink:href="#DejaVuSans-5f" x="1673.828125"/>
      <use xlink:href="#DejaVuSans-51" x="1723.828125"/>
      <use xlink:href="#DejaVuSans-75" x="1802.539062"/>
      <use xlink:href="#DejaVuSans-61" x="1865.917969"/>
      <use xlink:href="#DejaVuSans-64" x="1927.197266"/>
      <use xlink:href="#DejaVuSans-72" x="1990.673828"/>
      <use xlink:href="#DejaVuSans-6f" x="2029.537109"/>
      <use xlink:href="#DejaVuSans-5f" x="2090.71875"/>
      <use xlink:href="#DejaVuSans-4d" x="2140.71875"/>
      <use xlink:href="#DejaVuSans-32" x="2226.998047"/>
      <use xlink:href="#DejaVuSans-30" x="2290.621094"/>
      <use xlink:href="#DejaVuSans-30" x="2354.244141"/>
      <use xlink:href="#DejaVuSans-30" x="2417.867188"/>
     </g>
    </g>
   </g>
  </g>
 </g>
 <defs>
  <clipPath id="p6cf3cebe68">
   <rect x="172.8" y="93.2256" width="1071.36" height="598.1976"/>
  </clipPath>
 </defs>
</svg>
