<?xml version="1.0" encoding="utf-8" standalone="no"?>
<!DOCTYPE svg PUBLIC "-//W3C//DTD SVG 1.1//EN"
  "http://www.w3.org/Graphics/SVG/1.1/DTD/svg11.dtd">
<!-- Created with matplotlib (https://matplotlib.org/) -->
<svg height="429.84pt" version="1.1" viewBox="0 0 639.36 429.84" width="639.36pt" xmlns="http://www.w3.org/2000/svg" xmlns:xlink="http://www.w3.org/1999/xlink">
 <defs>
  <style type="text/css">
*{stroke-linecap:butt;stroke-linejoin:round;}
  </style>
 </defs>
 <g id="figure_1">
  <g id="patch_1">
   <path d="M 0 429.84
L 639.36 429.84
L 639.36 0
L 0 0
z
" style="fill:#ffffff;"/>
  </g>
  <g id="axes_1">
   <g id="patch_2">
    <path d="M 79.92 382.5576
L 575.424 382.5576
L 575.424 51.5808
L 79.92 51.5808
z
" style="fill:#ffffff;"/>
   </g>
   <g id="matplotlib.axis_1">
    <g id="xtick_1">
     <g id="line2d_1">
      <defs>
       <path d="M 0 0
L 0 3.5
" id="m2632d2ac41" style="stroke:#000000;stroke-width:0.8;"/>
      </defs>
      <g>
       <use style="stroke:#000000;stroke-width:0.8;" x="120.910681" xlink:href="#m2632d2ac41" y="382.5576"/>
      </g>
     </g>
     <g id="text_1">
      <!-- 2 -->
      <defs>
       <path d="M 19.1875 8.296875
L 53.609375 8.296875
L 53.609375 0
L 7.328125 0
L 7.328125 8.296875
Q 12.9375 14.109375 22.625 23.890625
Q 32.328125 33.6875 34.8125 36.53125
Q 39.546875 41.84375 41.421875 45.53125
Q 43.3125 49.21875 43.3125 52.78125
Q 43.3125 58.59375 39.234375 62.25
Q 35.15625 65.921875 28.609375 65.921875
Q 23.96875 65.921875 18.8125 64.3125
Q 13.671875 62.703125 7.8125 59.421875
L 7.8125 69.390625
Q 13.765625 71.78125 18.9375 73
Q 24.125 74.21875 28.421875 74.21875
Q 39.75 74.21875 46.484375 68.546875
Q 53.21875 62.890625 53.21875 53.421875
Q 53.21875 48.921875 51.53125 44.890625
Q 49.859375 40.875 45.40625 35.40625
Q 44.1875 33.984375 37.640625 27.21875
Q 31.109375 20.453125 19.1875 8.296875
z
" id="DejaVuSans-50"/>
      </defs>
      <g transform="translate(117.729431 397.156037)scale(0.1 -0.1)">
       <use xlink:href="#DejaVuSans-50"/>
      </g>
     </g>
    </g>
    <g id="xtick_2">
     <g id="line2d_2">
      <g>
       <use style="stroke:#000000;stroke-width:0.8;" x="180.971772" xlink:href="#m2632d2ac41" y="382.5576"/>
      </g>
     </g>
     <g id="text_2">
      <!-- 4 -->
      <defs>
       <path d="M 37.796875 64.3125
L 12.890625 25.390625
L 37.796875 25.390625
z
M 35.203125 72.90625
L 47.609375 72.90625
L 47.609375 25.390625
L 58.015625 25.390625
L 58.015625 17.1875
L 47.609375 17.1875
L 47.609375 0
L 37.796875 0
L 37.796875 17.1875
L 4.890625 17.1875
L 4.890625 26.703125
z
" id="DejaVuSans-52"/>
      </defs>
      <g transform="translate(177.790522 397.156037)scale(0.1 -0.1)">
       <use xlink:href="#DejaVuSans-52"/>
      </g>
     </g>
    </g>
    <g id="xtick_3">
     <g id="line2d_3">
      <g>
       <use style="stroke:#000000;stroke-width:0.8;" x="241.032863" xlink:href="#m2632d2ac41" y="382.5576"/>
      </g>
     </g>
     <g id="text_3">
      <!-- 6 -->
      <defs>
       <path d="M 33.015625 40.375
Q 26.375 40.375 22.484375 35.828125
Q 18.609375 31.296875 18.609375 23.390625
Q 18.609375 15.53125 22.484375 10.953125
Q 26.375 6.390625 33.015625 6.390625
Q 39.65625 6.390625 43.53125 10.953125
Q 47.40625 15.53125 47.40625 23.390625
Q 47.40625 31.296875 43.53125 35.828125
Q 39.65625 40.375 33.015625 40.375
z
M 52.59375 71.296875
L 52.59375 62.3125
Q 48.875 64.0625 45.09375 64.984375
Q 41.3125 65.921875 37.59375 65.921875
Q 27.828125 65.921875 22.671875 59.328125
Q 17.53125 52.734375 16.796875 39.40625
Q 19.671875 43.65625 24.015625 45.921875
Q 28.375 48.1875 33.59375 48.1875
Q 44.578125 48.1875 50.953125 41.515625
Q 57.328125 34.859375 57.328125 23.390625
Q 57.328125 12.15625 50.6875 5.359375
Q 44.046875 -1.421875 33.015625 -1.421875
Q 20.359375 -1.421875 13.671875 8.265625
Q 6.984375 17.96875 6.984375 36.375
Q 6.984375 53.65625 15.1875 63.9375
Q 23.390625 74.21875 37.203125 74.21875
Q 40.921875 74.21875 44.703125 73.484375
Q 48.484375 72.75 52.59375 71.296875
z
" id="DejaVuSans-54"/>
      </defs>
      <g transform="translate(237.851613 397.156037)scale(0.1 -0.1)">
       <use xlink:href="#DejaVuSans-54"/>
      </g>
     </g>
    </g>
    <g id="xtick_4">
     <g id="line2d_4">
      <g>
       <use style="stroke:#000000;stroke-width:0.8;" x="301.093953" xlink:href="#m2632d2ac41" y="382.5576"/>
      </g>
     </g>
     <g id="text_4">
      <!-- 8 -->
      <defs>
       <path d="M 31.78125 34.625
Q 24.75 34.625 20.71875 30.859375
Q 16.703125 27.09375 16.703125 20.515625
Q 16.703125 13.921875 20.71875 10.15625
Q 24.75 6.390625 31.78125 6.390625
Q 38.8125 6.390625 42.859375 10.171875
Q 46.921875 13.96875 46.921875 20.515625
Q 46.921875 27.09375 42.890625 30.859375
Q 38.875 34.625 31.78125 34.625
z
M 21.921875 38.8125
Q 15.578125 40.375 12.03125 44.71875
Q 8.5 49.078125 8.5 55.328125
Q 8.5 64.0625 14.71875 69.140625
Q 20.953125 74.21875 31.78125 74.21875
Q 42.671875 74.21875 48.875 69.140625
Q 55.078125 64.0625 55.078125 55.328125
Q 55.078125 49.078125 51.53125 44.71875
Q 48 40.375 41.703125 38.8125
Q 48.828125 37.15625 52.796875 32.3125
Q 56.78125 27.484375 56.78125 20.515625
Q 56.78125 9.90625 50.3125 4.234375
Q 43.84375 -1.421875 31.78125 -1.421875
Q 19.734375 -1.421875 13.25 4.234375
Q 6.78125 9.90625 6.78125 20.515625
Q 6.78125 27.484375 10.78125 32.3125
Q 14.796875 37.15625 21.921875 38.8125
z
M 18.3125 54.390625
Q 18.3125 48.734375 21.84375 45.5625
Q 25.390625 42.390625 31.78125 42.390625
Q 38.140625 42.390625 41.71875 45.5625
Q 45.3125 48.734375 45.3125 54.390625
Q 45.3125 60.0625 41.71875 63.234375
Q 38.140625 66.40625 31.78125 66.40625
Q 25.390625 66.40625 21.84375 63.234375
Q 18.3125 60.0625 18.3125 54.390625
z
" id="DejaVuSans-56"/>
      </defs>
      <g transform="translate(297.912703 397.156037)scale(0.1 -0.1)">
       <use xlink:href="#DejaVuSans-56"/>
      </g>
     </g>
    </g>
    <g id="xtick_5">
     <g id="line2d_5">
      <g>
       <use style="stroke:#000000;stroke-width:0.8;" x="361.155044" xlink:href="#m2632d2ac41" y="382.5576"/>
      </g>
     </g>
     <g id="text_5">
      <!-- 10 -->
      <defs>
       <path d="M 12.40625 8.296875
L 28.515625 8.296875
L 28.515625 63.921875
L 10.984375 60.40625
L 10.984375 69.390625
L 28.421875 72.90625
L 38.28125 72.90625
L 38.28125 8.296875
L 54.390625 8.296875
L 54.390625 0
L 12.40625 0
z
" id="DejaVuSans-49"/>
       <path d="M 31.78125 66.40625
Q 24.171875 66.40625 20.328125 58.90625
Q 16.5 51.421875 16.5 36.375
Q 16.5 21.390625 20.328125 13.890625
Q 24.171875 6.390625 31.78125 6.390625
Q 39.453125 6.390625 43.28125 13.890625
Q 47.125 21.390625 47.125 36.375
Q 47.125 51.421875 43.28125 58.90625
Q 39.453125 66.40625 31.78125 66.40625
z
M 31.78125 74.21875
Q 44.046875 74.21875 50.515625 64.515625
Q 56.984375 54.828125 56.984375 36.375
Q 56.984375 17.96875 50.515625 8.265625
Q 44.046875 -1.421875 31.78125 -1.421875
Q 19.53125 -1.421875 13.0625 8.265625
Q 6.59375 17.96875 6.59375 36.375
Q 6.59375 54.828125 13.0625 64.515625
Q 19.53125 74.21875 31.78125 74.21875
z
" id="DejaVuSans-48"/>
      </defs>
      <g transform="translate(354.792544 397.156037)scale(0.1 -0.1)">
       <use xlink:href="#DejaVuSans-49"/>
       <use x="63.623047" xlink:href="#DejaVuSans-48"/>
      </g>
     </g>
    </g>
    <g id="xtick_6">
     <g id="line2d_6">
      <g>
       <use style="stroke:#000000;stroke-width:0.8;" x="421.216135" xlink:href="#m2632d2ac41" y="382.5576"/>
      </g>
     </g>
     <g id="text_6">
      <!-- 12 -->
      <g transform="translate(414.853635 397.156037)scale(0.1 -0.1)">
       <use xlink:href="#DejaVuSans-49"/>
       <use x="63.623047" xlink:href="#DejaVuSans-50"/>
      </g>
     </g>
    </g>
    <g id="xtick_7">
     <g id="line2d_7">
      <g>
       <use style="stroke:#000000;stroke-width:0.8;" x="481.277226" xlink:href="#m2632d2ac41" y="382.5576"/>
      </g>
     </g>
     <g id="text_7">
      <!-- 14 -->
      <g transform="translate(474.914726 397.156037)scale(0.1 -0.1)">
       <use xlink:href="#DejaVuSans-49"/>
       <use x="63.623047" xlink:href="#DejaVuSans-52"/>
      </g>
     </g>
    </g>
    <g id="xtick_8">
     <g id="line2d_8">
      <g>
       <use style="stroke:#000000;stroke-width:0.8;" x="541.338317" xlink:href="#m2632d2ac41" y="382.5576"/>
      </g>
     </g>
     <g id="text_8">
      <!-- 16 -->
      <g transform="translate(534.975817 397.156037)scale(0.1 -0.1)">
       <use xlink:href="#DejaVuSans-49"/>
       <use x="63.623047" xlink:href="#DejaVuSans-54"/>
      </g>
     </g>
    </g>
    <g id="text_9">
     <!-- Image size in mega-pixels -->
     <defs>
      <path d="M 9.8125 72.90625
L 19.671875 72.90625
L 19.671875 0
L 9.8125 0
z
" id="DejaVuSans-73"/>
      <path d="M 52 44.1875
Q 55.375 50.25 60.0625 53.125
Q 64.75 56 71.09375 56
Q 79.640625 56 84.28125 50.015625
Q 88.921875 44.046875 88.921875 33.015625
L 88.921875 0
L 79.890625 0
L 79.890625 32.71875
Q 79.890625 40.578125 77.09375 44.375
Q 74.3125 48.1875 68.609375 48.1875
Q 61.625 48.1875 57.5625 43.546875
Q 53.515625 38.921875 53.515625 30.90625
L 53.515625 0
L 44.484375 0
L 44.484375 32.71875
Q 44.484375 40.625 41.703125 44.40625
Q 38.921875 48.1875 33.109375 48.1875
Q 26.21875 48.1875 22.15625 43.53125
Q 18.109375 38.875 18.109375 30.90625
L 18.109375 0
L 9.078125 0
L 9.078125 54.6875
L 18.109375 54.6875
L 18.109375 46.1875
Q 21.1875 51.21875 25.484375 53.609375
Q 29.78125 56 35.6875 56
Q 41.65625 56 45.828125 52.96875
Q 50 49.953125 52 44.1875
z
" id="DejaVuSans-109"/>
      <path d="M 34.28125 27.484375
Q 23.390625 27.484375 19.1875 25
Q 14.984375 22.515625 14.984375 16.5
Q 14.984375 11.71875 18.140625 8.90625
Q 21.296875 6.109375 26.703125 6.109375
Q 34.1875 6.109375 38.703125 11.40625
Q 43.21875 16.703125 43.21875 25.484375
L 43.21875 27.484375
z
M 52.203125 31.203125
L 52.203125 0
L 43.21875 0
L 43.21875 8.296875
Q 40.140625 3.328125 35.546875 0.953125
Q 30.953125 -1.421875 24.3125 -1.421875
Q 15.921875 -1.421875 10.953125 3.296875
Q 6 8.015625 6 15.921875
Q 6 25.140625 12.171875 29.828125
Q 18.359375 34.515625 30.609375 34.515625
L 43.21875 34.515625
L 43.21875 35.40625
Q 43.21875 41.609375 39.140625 45
Q 35.0625 48.390625 27.6875 48.390625
Q 23 48.390625 18.546875 47.265625
Q 14.109375 46.140625 10.015625 43.890625
L 10.015625 52.203125
Q 14.9375 54.109375 19.578125 55.046875
Q 24.21875 56 28.609375 56
Q 40.484375 56 46.34375 49.84375
Q 52.203125 43.703125 52.203125 31.203125
z
" id="DejaVuSans-97"/>
      <path d="M 45.40625 27.984375
Q 45.40625 37.75 41.375 43.109375
Q 37.359375 48.484375 30.078125 48.484375
Q 22.859375 48.484375 18.828125 43.109375
Q 14.796875 37.75 14.796875 27.984375
Q 14.796875 18.265625 18.828125 12.890625
Q 22.859375 7.515625 30.078125 7.515625
Q 37.359375 7.515625 41.375 12.890625
Q 45.40625 18.265625 45.40625 27.984375
z
M 54.390625 6.78125
Q 54.390625 -7.171875 48.1875 -13.984375
Q 42 -20.796875 29.203125 -20.796875
Q 24.46875 -20.796875 20.265625 -20.09375
Q 16.0625 -19.390625 12.109375 -17.921875
L 12.109375 -9.1875
Q 16.0625 -11.328125 19.921875 -12.34375
Q 23.78125 -13.375 27.78125 -13.375
Q 36.625 -13.375 41.015625 -8.765625
Q 45.40625 -4.15625 45.40625 5.171875
L 45.40625 9.625
Q 42.625 4.78125 38.28125 2.390625
Q 33.9375 0 27.875 0
Q 17.828125 0 11.671875 7.65625
Q 5.515625 15.328125 5.515625 27.984375
Q 5.515625 40.671875 11.671875 48.328125
Q 17.828125 56 27.875 56
Q 33.9375 56 38.28125 53.609375
Q 42.625 51.21875 45.40625 46.390625
L 45.40625 54.6875
L 54.390625 54.6875
z
" id="DejaVuSans-103"/>
      <path d="M 56.203125 29.59375
L 56.203125 25.203125
L 14.890625 25.203125
Q 15.484375 15.921875 20.484375 11.0625
Q 25.484375 6.203125 34.421875 6.203125
Q 39.59375 6.203125 44.453125 7.46875
Q 49.3125 8.734375 54.109375 11.28125
L 54.109375 2.78125
Q 49.265625 0.734375 44.1875 -0.34375
Q 39.109375 -1.421875 33.890625 -1.421875
Q 20.796875 -1.421875 13.15625 6.1875
Q 5.515625 13.8125 5.515625 26.8125
Q 5.515625 40.234375 12.765625 48.109375
Q 20.015625 56 32.328125 56
Q 43.359375 56 49.78125 48.890625
Q 56.203125 41.796875 56.203125 29.59375
z
M 47.21875 32.234375
Q 47.125 39.59375 43.09375 43.984375
Q 39.0625 48.390625 32.421875 48.390625
Q 24.90625 48.390625 20.390625 44.140625
Q 15.875 39.890625 15.1875 32.171875
z
" id="DejaVuSans-101"/>
      <path id="DejaVuSans-32"/>
      <path d="M 44.28125 53.078125
L 44.28125 44.578125
Q 40.484375 46.53125 36.375 47.5
Q 32.28125 48.484375 27.875 48.484375
Q 21.1875 48.484375 17.84375 46.4375
Q 14.5 44.390625 14.5 40.28125
Q 14.5 37.15625 16.890625 35.375
Q 19.28125 33.59375 26.515625 31.984375
L 29.59375 31.296875
Q 39.15625 29.25 43.1875 25.515625
Q 47.21875 21.78125 47.21875 15.09375
Q 47.21875 7.46875 41.1875 3.015625
Q 35.15625 -1.421875 24.609375 -1.421875
Q 20.21875 -1.421875 15.453125 -0.5625
Q 10.6875 0.296875 5.421875 2
L 5.421875 11.28125
Q 10.40625 8.6875 15.234375 7.390625
Q 20.0625 6.109375 24.8125 6.109375
Q 31.15625 6.109375 34.5625 8.28125
Q 37.984375 10.453125 37.984375 14.40625
Q 37.984375 18.0625 35.515625 20.015625
Q 33.0625 21.96875 24.703125 23.78125
L 21.578125 24.515625
Q 13.234375 26.265625 9.515625 29.90625
Q 5.8125 33.546875 5.8125 39.890625
Q 5.8125 47.609375 11.28125 51.796875
Q 16.75 56 26.8125 56
Q 31.78125 56 36.171875 55.265625
Q 40.578125 54.546875 44.28125 53.078125
z
" id="DejaVuSans-115"/>
      <path d="M 9.421875 54.6875
L 18.40625 54.6875
L 18.40625 0
L 9.421875 0
z
M 9.421875 75.984375
L 18.40625 75.984375
L 18.40625 64.59375
L 9.421875 64.59375
z
" id="DejaVuSans-105"/>
      <path d="M 5.515625 54.6875
L 48.1875 54.6875
L 48.1875 46.484375
L 14.40625 7.171875
L 48.1875 7.171875
L 48.1875 0
L 4.296875 0
L 4.296875 8.203125
L 38.09375 47.515625
L 5.515625 47.515625
z
" id="DejaVuSans-122"/>
      <path d="M 54.890625 33.015625
L 54.890625 0
L 45.90625 0
L 45.90625 32.71875
Q 45.90625 40.484375 42.875 44.328125
Q 39.84375 48.1875 33.796875 48.1875
Q 26.515625 48.1875 22.3125 43.546875
Q 18.109375 38.921875 18.109375 30.90625
L 18.109375 0
L 9.078125 0
L 9.078125 54.6875
L 18.109375 54.6875
L 18.109375 46.1875
Q 21.34375 51.125 25.703125 53.5625
Q 30.078125 56 35.796875 56
Q 45.21875 56 50.046875 50.171875
Q 54.890625 44.34375 54.890625 33.015625
z
" id="DejaVuSans-110"/>
      <path d="M 4.890625 31.390625
L 31.203125 31.390625
L 31.203125 23.390625
L 4.890625 23.390625
z
" id="DejaVuSans-45"/>
      <path d="M 18.109375 8.203125
L 18.109375 -20.796875
L 9.078125 -20.796875
L 9.078125 54.6875
L 18.109375 54.6875
L 18.109375 46.390625
Q 20.953125 51.265625 25.265625 53.625
Q 29.59375 56 35.59375 56
Q 45.5625 56 51.78125 48.09375
Q 58.015625 40.1875 58.015625 27.296875
Q 58.015625 14.40625 51.78125 6.484375
Q 45.5625 -1.421875 35.59375 -1.421875
Q 29.59375 -1.421875 25.265625 0.953125
Q 20.953125 3.328125 18.109375 8.203125
z
M 48.6875 27.296875
Q 48.6875 37.203125 44.609375 42.84375
Q 40.53125 48.484375 33.40625 48.484375
Q 26.265625 48.484375 22.1875 42.84375
Q 18.109375 37.203125 18.109375 27.296875
Q 18.109375 17.390625 22.1875 11.75
Q 26.265625 6.109375 33.40625 6.109375
Q 40.53125 6.109375 44.609375 11.75
Q 48.6875 17.390625 48.6875 27.296875
z
" id="DejaVuSans-112"/>
      <path d="M 54.890625 54.6875
L 35.109375 28.078125
L 55.90625 0
L 45.3125 0
L 29.390625 21.484375
L 13.484375 0
L 2.875 0
L 24.125 28.609375
L 4.6875 54.6875
L 15.28125 54.6875
L 29.78125 35.203125
L 44.28125 54.6875
z
" id="DejaVuSans-120"/>
      <path d="M 9.421875 75.984375
L 18.40625 75.984375
L 18.40625 0
L 9.421875 0
z
" id="DejaVuSans-108"/>
     </defs>
     <g transform="translate(262.412625 410.834162)scale(0.1 -0.1)">
      <use xlink:href="#DejaVuSans-73"/>
      <use x="29.492188" xlink:href="#DejaVuSans-109"/>
      <use x="126.904297" xlink:href="#DejaVuSans-97"/>
      <use x="188.183594" xlink:href="#DejaVuSans-103"/>
      <use x="251.660156" xlink:href="#DejaVuSans-101"/>
      <use x="313.183594" xlink:href="#DejaVuSans-32"/>
      <use x="344.970703" xlink:href="#DejaVuSans-115"/>
      <use x="397.070312" xlink:href="#DejaVuSans-105"/>
      <use x="424.853516" xlink:href="#DejaVuSans-122"/>
      <use x="477.34375" xlink:href="#DejaVuSans-101"/>
      <use x="538.867188" xlink:href="#DejaVuSans-32"/>
      <use x="570.654297" xlink:href="#DejaVuSans-105"/>
      <use x="598.4375" xlink:href="#DejaVuSans-110"/>
      <use x="661.816406" xlink:href="#DejaVuSans-32"/>
      <use x="693.603516" xlink:href="#DejaVuSans-109"/>
      <use x="791.015625" xlink:href="#DejaVuSans-101"/>
      <use x="852.539062" xlink:href="#DejaVuSans-103"/>
      <use x="916.015625" xlink:href="#DejaVuSans-97"/>
      <use x="977.294922" xlink:href="#DejaVuSans-45"/>
      <use x="1013.378906" xlink:href="#DejaVuSans-112"/>
      <use x="1076.855469" xlink:href="#DejaVuSans-105"/>
      <use x="1104.638672" xlink:href="#DejaVuSans-120"/>
      <use x="1163.771484" xlink:href="#DejaVuSans-101"/>
      <use x="1225.294922" xlink:href="#DejaVuSans-108"/>
      <use x="1253.078125" xlink:href="#DejaVuSans-115"/>
     </g>
    </g>
   </g>
   <g id="matplotlib.axis_2">
    <g id="ytick_1">
     <g id="line2d_9">
      <defs>
       <path d="M 0 0
L -3.5 0
" id="m2dc9295195" style="stroke:#000000;stroke-width:0.8;"/>
      </defs>
      <g>
       <use style="stroke:#000000;stroke-width:0.8;" x="79.92" xlink:href="#m2dc9295195" y="356.418142"/>
      </g>
     </g>
     <g id="text_10">
      <!-- 2 -->
      <g transform="translate(66.5575 360.217361)scale(0.1 -0.1)">
       <use xlink:href="#DejaVuSans-50"/>
      </g>
     </g>
    </g>
    <g id="ytick_2">
     <g id="line2d_10">
      <g>
       <use style="stroke:#000000;stroke-width:0.8;" x="79.92" xlink:href="#m2dc9295195" y="318.539419"/>
      </g>
     </g>
     <g id="text_11">
      <!-- 5 -->
      <defs>
       <path d="M 10.796875 72.90625
L 49.515625 72.90625
L 49.515625 64.59375
L 19.828125 64.59375
L 19.828125 46.734375
Q 21.96875 47.46875 24.109375 47.828125
Q 26.265625 48.1875 28.421875 48.1875
Q 40.625 48.1875 47.75 41.5
Q 54.890625 34.8125 54.890625 23.390625
Q 54.890625 11.625 47.5625 5.09375
Q 40.234375 -1.421875 26.90625 -1.421875
Q 22.3125 -1.421875 17.546875 -0.640625
Q 12.796875 0.140625 7.71875 1.703125
L 7.71875 11.625
Q 12.109375 9.234375 16.796875 8.0625
Q 21.484375 6.890625 26.703125 6.890625
Q 35.15625 6.890625 40.078125 11.328125
Q 45.015625 15.765625 45.015625 23.390625
Q 45.015625 31 40.078125 35.4375
Q 35.15625 39.890625 26.703125 39.890625
Q 22.75 39.890625 18.8125 39.015625
Q 14.890625 38.140625 10.796875 36.28125
z
" id="DejaVuSans-53"/>
      </defs>
      <g transform="translate(66.5575 322.338638)scale(0.1 -0.1)">
       <use xlink:href="#DejaVuSans-53"/>
      </g>
     </g>
    </g>
    <g id="ytick_3">
     <g id="line2d_11">
      <g>
       <use style="stroke:#000000;stroke-width:0.8;" x="79.92" xlink:href="#m2dc9295195" y="289.885272"/>
      </g>
     </g>
     <g id="text_12">
      <!-- 10 -->
      <g transform="translate(60.195 293.684491)scale(0.1 -0.1)">
       <use xlink:href="#DejaVuSans-49"/>
       <use x="63.623047" xlink:href="#DejaVuSans-48"/>
      </g>
     </g>
    </g>
    <g id="ytick_4">
     <g id="line2d_12">
      <g>
       <use style="stroke:#000000;stroke-width:0.8;" x="79.92" xlink:href="#m2dc9295195" y="261.231125"/>
      </g>
     </g>
     <g id="text_13">
      <!-- 20 -->
      <g transform="translate(60.195 265.030344)scale(0.1 -0.1)">
       <use xlink:href="#DejaVuSans-50"/>
       <use x="63.623047" xlink:href="#DejaVuSans-48"/>
      </g>
     </g>
    </g>
    <g id="ytick_5">
     <g id="line2d_13">
      <g>
       <use style="stroke:#000000;stroke-width:0.8;" x="79.92" xlink:href="#m2dc9295195" y="223.352402"/>
      </g>
     </g>
     <g id="text_14">
      <!-- 50 -->
      <g transform="translate(60.195 227.151621)scale(0.1 -0.1)">
       <use xlink:href="#DejaVuSans-53"/>
       <use x="63.623047" xlink:href="#DejaVuSans-48"/>
      </g>
     </g>
    </g>
    <g id="ytick_6">
     <g id="line2d_14">
      <g>
       <use style="stroke:#000000;stroke-width:0.8;" x="79.92" xlink:href="#m2dc9295195" y="194.698255"/>
      </g>
     </g>
     <g id="text_15">
      <!-- 100 -->
      <g transform="translate(53.8325 198.497474)scale(0.1 -0.1)">
       <use xlink:href="#DejaVuSans-49"/>
       <use x="63.623047" xlink:href="#DejaVuSans-48"/>
       <use x="127.246094" xlink:href="#DejaVuSans-48"/>
      </g>
     </g>
    </g>
    <g id="ytick_7">
     <g id="line2d_15">
      <g>
       <use style="stroke:#000000;stroke-width:0.8;" x="79.92" xlink:href="#m2dc9295195" y="166.044108"/>
      </g>
     </g>
     <g id="text_16">
      <!-- 200 -->
      <g transform="translate(53.8325 169.843327)scale(0.1 -0.1)">
       <use xlink:href="#DejaVuSans-50"/>
       <use x="63.623047" xlink:href="#DejaVuSans-48"/>
       <use x="127.246094" xlink:href="#DejaVuSans-48"/>
      </g>
     </g>
    </g>
    <g id="ytick_8">
     <g id="line2d_16">
      <g>
       <use style="stroke:#000000;stroke-width:0.8;" x="79.92" xlink:href="#m2dc9295195" y="128.165385"/>
      </g>
     </g>
     <g id="text_17">
      <!-- 500 -->
      <g transform="translate(53.8325 131.964604)scale(0.1 -0.1)">
       <use xlink:href="#DejaVuSans-53"/>
       <use x="63.623047" xlink:href="#DejaVuSans-48"/>
       <use x="127.246094" xlink:href="#DejaVuSans-48"/>
      </g>
     </g>
    </g>
    <g id="ytick_9">
     <g id="line2d_17">
      <g>
       <use style="stroke:#000000;stroke-width:0.8;" x="79.92" xlink:href="#m2dc9295195" y="99.511238"/>
      </g>
     </g>
     <g id="text_18">
      <!-- 1000 -->
      <g transform="translate(47.47 103.310457)scale(0.1 -0.1)">
       <use xlink:href="#DejaVuSans-49"/>
       <use x="63.623047" xlink:href="#DejaVuSans-48"/>
       <use x="127.246094" xlink:href="#DejaVuSans-48"/>
       <use x="190.869141" xlink:href="#DejaVuSans-48"/>
      </g>
     </g>
    </g>
    <g id="text_19">
     <!-- Frame per second (log scale) -->
     <defs>
      <path d="M 9.8125 72.90625
L 51.703125 72.90625
L 51.703125 64.59375
L 19.671875 64.59375
L 19.671875 43.109375
L 48.578125 43.109375
L 48.578125 34.8125
L 19.671875 34.8125
L 19.671875 0
L 9.8125 0
z
" id="DejaVuSans-70"/>
      <path d="M 41.109375 46.296875
Q 39.59375 47.171875 37.8125 47.578125
Q 36.03125 48 33.890625 48
Q 26.265625 48 22.1875 43.046875
Q 18.109375 38.09375 18.109375 28.8125
L 18.109375 0
L 9.078125 0
L 9.078125 54.6875
L 18.109375 54.6875
L 18.109375 46.1875
Q 20.953125 51.171875 25.484375 53.578125
Q 30.03125 56 36.53125 56
Q 37.453125 56 38.578125 55.875
Q 39.703125 55.765625 41.0625 55.515625
z
" id="DejaVuSans-114"/>
      <path d="M 48.78125 52.59375
L 48.78125 44.1875
Q 44.96875 46.296875 41.140625 47.34375
Q 37.3125 48.390625 33.40625 48.390625
Q 24.65625 48.390625 19.8125 42.84375
Q 14.984375 37.3125 14.984375 27.296875
Q 14.984375 17.28125 19.8125 11.734375
Q 24.65625 6.203125 33.40625 6.203125
Q 37.3125 6.203125 41.140625 7.25
Q 44.96875 8.296875 48.78125 10.40625
L 48.78125 2.09375
Q 45.015625 0.34375 40.984375 -0.53125
Q 36.96875 -1.421875 32.421875 -1.421875
Q 20.0625 -1.421875 12.78125 6.34375
Q 5.515625 14.109375 5.515625 27.296875
Q 5.515625 40.671875 12.859375 48.328125
Q 20.21875 56 33.015625 56
Q 37.15625 56 41.109375 55.140625
Q 45.0625 54.296875 48.78125 52.59375
z
" id="DejaVuSans-99"/>
      <path d="M 30.609375 48.390625
Q 23.390625 48.390625 19.1875 42.75
Q 14.984375 37.109375 14.984375 27.296875
Q 14.984375 17.484375 19.15625 11.84375
Q 23.34375 6.203125 30.609375 6.203125
Q 37.796875 6.203125 41.984375 11.859375
Q 46.1875 17.53125 46.1875 27.296875
Q 46.1875 37.015625 41.984375 42.703125
Q 37.796875 48.390625 30.609375 48.390625
z
M 30.609375 56
Q 42.328125 56 49.015625 48.375
Q 55.71875 40.765625 55.71875 27.296875
Q 55.71875 13.875 49.015625 6.21875
Q 42.328125 -1.421875 30.609375 -1.421875
Q 18.84375 -1.421875 12.171875 6.21875
Q 5.515625 13.875 5.515625 27.296875
Q 5.515625 40.765625 12.171875 48.375
Q 18.84375 56 30.609375 56
z
" id="DejaVuSans-111"/>
      <path d="M 45.40625 46.390625
L 45.40625 75.984375
L 54.390625 75.984375
L 54.390625 0
L 45.40625 0
L 45.40625 8.203125
Q 42.578125 3.328125 38.25 0.953125
Q 33.9375 -1.421875 27.875 -1.421875
Q 17.96875 -1.421875 11.734375 6.484375
Q 5.515625 14.40625 5.515625 27.296875
Q 5.515625 40.1875 11.734375 48.09375
Q 17.96875 56 27.875 56
Q 33.9375 56 38.25 53.625
Q 42.578125 51.265625 45.40625 46.390625
z
M 14.796875 27.296875
Q 14.796875 17.390625 18.875 11.75
Q 22.953125 6.109375 30.078125 6.109375
Q 37.203125 6.109375 41.296875 11.75
Q 45.40625 17.390625 45.40625 27.296875
Q 45.40625 37.203125 41.296875 42.84375
Q 37.203125 48.484375 30.078125 48.484375
Q 22.953125 48.484375 18.875 42.84375
Q 14.796875 37.203125 14.796875 27.296875
z
" id="DejaVuSans-100"/>
      <path d="M 31 75.875
Q 24.46875 64.65625 21.28125 53.65625
Q 18.109375 42.671875 18.109375 31.390625
Q 18.109375 20.125 21.3125 9.0625
Q 24.515625 -2 31 -13.1875
L 23.1875 -13.1875
Q 15.875 -1.703125 12.234375 9.375
Q 8.59375 20.453125 8.59375 31.390625
Q 8.59375 42.28125 12.203125 53.3125
Q 15.828125 64.359375 23.1875 75.875
z
" id="DejaVuSans-40"/>
      <path d="M 8.015625 75.875
L 15.828125 75.875
Q 23.140625 64.359375 26.78125 53.3125
Q 30.421875 42.28125 30.421875 31.390625
Q 30.421875 20.453125 26.78125 9.375
Q 23.140625 -1.703125 15.828125 -13.1875
L 8.015625 -13.1875
Q 14.5 -2 17.703125 9.0625
Q 20.90625 20.125 20.90625 31.390625
Q 20.90625 42.671875 17.703125 53.65625
Q 14.5 64.65625 8.015625 75.875
z
" id="DejaVuSans-41"/>
     </defs>
     <g transform="translate(41.390312 289.909044)rotate(-90)scale(0.1 -0.1)">
      <use xlink:href="#DejaVuSans-70"/>
      <use x="57.410156" xlink:href="#DejaVuSans-114"/>
      <use x="98.523438" xlink:href="#DejaVuSans-97"/>
      <use x="159.802734" xlink:href="#DejaVuSans-109"/>
      <use x="257.214844" xlink:href="#DejaVuSans-101"/>
      <use x="318.738281" xlink:href="#DejaVuSans-32"/>
      <use x="350.525391" xlink:href="#DejaVuSans-112"/>
      <use x="414.001953" xlink:href="#DejaVuSans-101"/>
      <use x="475.525391" xlink:href="#DejaVuSans-114"/>
      <use x="516.638672" xlink:href="#DejaVuSans-32"/>
      <use x="548.425781" xlink:href="#DejaVuSans-115"/>
      <use x="600.525391" xlink:href="#DejaVuSans-101"/>
      <use x="662.048828" xlink:href="#DejaVuSans-99"/>
      <use x="717.029297" xlink:href="#DejaVuSans-111"/>
      <use x="778.210938" xlink:href="#DejaVuSans-110"/>
      <use x="841.589844" xlink:href="#DejaVuSans-100"/>
      <use x="905.066406" xlink:href="#DejaVuSans-32"/>
      <use x="936.853516" xlink:href="#DejaVuSans-40"/>
      <use x="975.867188" xlink:href="#DejaVuSans-108"/>
      <use x="1003.650391" xlink:href="#DejaVuSans-111"/>
      <use x="1064.832031" xlink:href="#DejaVuSans-103"/>
      <use x="1128.308594" xlink:href="#DejaVuSans-32"/>
      <use x="1160.095703" xlink:href="#DejaVuSans-115"/>
      <use x="1212.195312" xlink:href="#DejaVuSans-99"/>
      <use x="1267.175781" xlink:href="#DejaVuSans-97"/>
      <use x="1328.455078" xlink:href="#DejaVuSans-108"/>
      <use x="1356.238281" xlink:href="#DejaVuSans-101"/>
      <use x="1417.761719" xlink:href="#DejaVuSans-41"/>
     </g>
    </g>
   </g>
   <g id="line2d_18">
    <path clip-path="url(#p986ac206f9)" d="M 91.576333 232.701932
L 123.828208 267.598587
L 186.806827 299.846731
L 247.759735 313.669732
L 418.288157 336.301725
L 564.678538 352.16378
" style="fill:none;stroke:#1f77b4;stroke-linecap:square;stroke-width:1.5;"/>
    <defs>
     <path d="M -3 3
L 3 3
L 3 -3
L -3 -3
z
" id="ma00b4a7336" style="stroke:#1f77b4;stroke-linejoin:miter;"/>
    </defs>
    <g clip-path="url(#p986ac206f9)">
     <use style="fill:#1f77b4;stroke:#1f77b4;stroke-linejoin:miter;" x="91.576333" xlink:href="#ma00b4a7336" y="232.701932"/>
     <use style="fill:#1f77b4;stroke:#1f77b4;stroke-linejoin:miter;" x="123.828208" xlink:href="#ma00b4a7336" y="267.598587"/>
     <use style="fill:#1f77b4;stroke:#1f77b4;stroke-linejoin:miter;" x="186.806827" xlink:href="#ma00b4a7336" y="299.846731"/>
     <use style="fill:#1f77b4;stroke:#1f77b4;stroke-linejoin:miter;" x="247.759735" xlink:href="#ma00b4a7336" y="313.669732"/>
     <use style="fill:#1f77b4;stroke:#1f77b4;stroke-linejoin:miter;" x="418.288157" xlink:href="#ma00b4a7336" y="336.301725"/>
     <use style="fill:#1f77b4;stroke:#1f77b4;stroke-linejoin:miter;" x="564.678538" xlink:href="#ma00b4a7336" y="352.16378"/>
    </g>
   </g>
   <g id="line2d_19">
    <path clip-path="url(#p986ac206f9)" d="M 91.576333 240.006303
L 123.828208 273.476885
L 186.806827 305.27515
L 247.759735 318.81932
L 418.288157 340.957807
L 564.678538 359.442218
" style="fill:none;stroke:#ff7f0e;stroke-linecap:square;stroke-width:1.5;"/>
    <defs>
     <path d="M 0 3
C 0.795609 3 1.55874 2.683901 2.12132 2.12132
C 2.683901 1.55874 3 0.795609 3 0
C 3 -0.795609 2.683901 -1.55874 2.12132 -2.12132
C 1.55874 -2.683901 0.795609 -3 0 -3
C -0.795609 -3 -1.55874 -2.683901 -2.12132 -2.12132
C -2.683901 -1.55874 -3 -0.795609 -3 0
C -3 0.795609 -2.683901 1.55874 -2.12132 2.12132
C -1.55874 2.683901 -0.795609 3 0 3
z
" id="mf195dfda9f" style="stroke:#ff7f0e;"/>
    </defs>
    <g clip-path="url(#p986ac206f9)">
     <use style="fill:#ff7f0e;stroke:#ff7f0e;" x="91.576333" xlink:href="#mf195dfda9f" y="240.006303"/>
     <use style="fill:#ff7f0e;stroke:#ff7f0e;" x="123.828208" xlink:href="#mf195dfda9f" y="273.476885"/>
     <use style="fill:#ff7f0e;stroke:#ff7f0e;" x="186.806827" xlink:href="#mf195dfda9f" y="305.27515"/>
     <use style="fill:#ff7f0e;stroke:#ff7f0e;" x="247.759735" xlink:href="#mf195dfda9f" y="318.81932"/>
     <use style="fill:#ff7f0e;stroke:#ff7f0e;" x="418.288157" xlink:href="#mf195dfda9f" y="340.957807"/>
     <use style="fill:#ff7f0e;stroke:#ff7f0e;" x="564.678538" xlink:href="#mf195dfda9f" y="359.442218"/>
    </g>
   </g>
   <g id="line2d_20">
    <path clip-path="url(#p986ac206f9)" d="M 91.576333 170.110244
L 123.828208 198.400354
L 186.806827 234.613003
L 247.759735 255.047066
L 418.288157 283.002727
L 564.678538 296.422496
" style="fill:none;stroke:#2ca02c;stroke-linecap:square;stroke-width:1.5;"/>
    <defs>
     <path d="M -3 3
L 3 3
L 3 -3
L -3 -3
z
" id="m0d6de1e585" style="stroke:#2ca02c;stroke-linejoin:miter;"/>
    </defs>
    <g clip-path="url(#p986ac206f9)">
     <use style="fill:#2ca02c;stroke:#2ca02c;stroke-linejoin:miter;" x="91.576333" xlink:href="#m0d6de1e585" y="170.110244"/>
     <use style="fill:#2ca02c;stroke:#2ca02c;stroke-linejoin:miter;" x="123.828208" xlink:href="#m0d6de1e585" y="198.400354"/>
     <use style="fill:#2ca02c;stroke:#2ca02c;stroke-linejoin:miter;" x="186.806827" xlink:href="#m0d6de1e585" y="234.613003"/>
     <use style="fill:#2ca02c;stroke:#2ca02c;stroke-linejoin:miter;" x="247.759735" xlink:href="#m0d6de1e585" y="255.047066"/>
     <use style="fill:#2ca02c;stroke:#2ca02c;stroke-linejoin:miter;" x="418.288157" xlink:href="#m0d6de1e585" y="283.002727"/>
     <use style="fill:#2ca02c;stroke:#2ca02c;stroke-linejoin:miter;" x="564.678538" xlink:href="#m0d6de1e585" y="296.422496"/>
    </g>
   </g>
   <g id="line2d_21">
    <path clip-path="url(#p986ac206f9)" d="M 91.576333 172.163248
L 123.828208 208.18253
L 186.806827 236.575202
L 247.759735 250.768673
L 418.288157 280.857738
L 564.678538 296.9173
" style="fill:none;stroke:#d62728;stroke-linecap:square;stroke-width:1.5;"/>
    <defs>
     <path d="M 0 3
C 0.795609 3 1.55874 2.683901 2.12132 2.12132
C 2.683901 1.55874 3 0.795609 3 0
C 3 -0.795609 2.683901 -1.55874 2.12132 -2.12132
C 1.55874 -2.683901 0.795609 -3 0 -3
C -0.795609 -3 -1.55874 -2.683901 -2.12132 -2.12132
C -2.683901 -1.55874 -3 -0.795609 -3 0
C -3 0.795609 -2.683901 1.55874 -2.12132 2.12132
C -1.55874 2.683901 -0.795609 3 0 3
z
" id="mda4a868a73" style="stroke:#d62728;"/>
    </defs>
    <g clip-path="url(#p986ac206f9)">
     <use style="fill:#d62728;stroke:#d62728;" x="91.576333" xlink:href="#mda4a868a73" y="172.163248"/>
     <use style="fill:#d62728;stroke:#d62728;" x="123.828208" xlink:href="#mda4a868a73" y="208.18253"/>
     <use style="fill:#d62728;stroke:#d62728;" x="186.806827" xlink:href="#mda4a868a73" y="236.575202"/>
     <use style="fill:#d62728;stroke:#d62728;" x="247.759735" xlink:href="#mda4a868a73" y="250.768673"/>
     <use style="fill:#d62728;stroke:#d62728;" x="418.288157" xlink:href="#mda4a868a73" y="280.857738"/>
     <use style="fill:#d62728;stroke:#d62728;" x="564.678538" xlink:href="#mda4a868a73" y="296.9173"/>
    </g>
   </g>
   <g id="line2d_22">
    <path clip-path="url(#p986ac206f9)" d="M 91.576333 117.174707
L 123.828208 137.061306
L 186.806827 166.066268
L 247.759735 188.000158
L 418.288157 213.247992
L 564.678538 218.996472
" style="fill:none;stroke:#9467bd;stroke-dasharray:5.55,2.4;stroke-dashoffset:0;stroke-width:1.5;"/>
    <defs>
     <path d="M -3 3
L 3 3
L 3 -3
L -3 -3
z
" id="maccd042963" style="stroke:#9467bd;stroke-linejoin:miter;"/>
    </defs>
    <g clip-path="url(#p986ac206f9)">
     <use style="fill:#9467bd;stroke:#9467bd;stroke-linejoin:miter;" x="91.576333" xlink:href="#maccd042963" y="117.174707"/>
     <use style="fill:#9467bd;stroke:#9467bd;stroke-linejoin:miter;" x="123.828208" xlink:href="#maccd042963" y="137.061306"/>
     <use style="fill:#9467bd;stroke:#9467bd;stroke-linejoin:miter;" x="186.806827" xlink:href="#maccd042963" y="166.066268"/>
     <use style="fill:#9467bd;stroke:#9467bd;stroke-linejoin:miter;" x="247.759735" xlink:href="#maccd042963" y="188.000158"/>
     <use style="fill:#9467bd;stroke:#9467bd;stroke-linejoin:miter;" x="418.288157" xlink:href="#maccd042963" y="213.247992"/>
     <use style="fill:#9467bd;stroke:#9467bd;stroke-linejoin:miter;" x="564.678538" xlink:href="#maccd042963" y="218.996472"/>
    </g>
   </g>
   <g id="line2d_23">
    <path clip-path="url(#p986ac206f9)" d="M 91.576333 117.950281
L 123.828208 139.335915
L 186.806827 168.687953
L 247.759735 189.632834
L 418.288157 215.126496
L 564.678538 221.416053
" style="fill:none;stroke:#8c564b;stroke-dasharray:5.55,2.4;stroke-dashoffset:0;stroke-width:1.5;"/>
    <defs>
     <path d="M 0 3
C 0.795609 3 1.55874 2.683901 2.12132 2.12132
C 2.683901 1.55874 3 0.795609 3 0
C 3 -0.795609 2.683901 -1.55874 2.12132 -2.12132
C 1.55874 -2.683901 0.795609 -3 0 -3
C -0.795609 -3 -1.55874 -2.683901 -2.12132 -2.12132
C -2.683901 -1.55874 -3 -0.795609 -3 0
C -3 0.795609 -2.683901 1.55874 -2.12132 2.12132
C -1.55874 2.683901 -0.795609 3 0 3
z
" id="m534e9d1cff" style="stroke:#8c564b;"/>
    </defs>
    <g clip-path="url(#p986ac206f9)">
     <use style="fill:#8c564b;stroke:#8c564b;" x="91.576333" xlink:href="#m534e9d1cff" y="117.950281"/>
     <use style="fill:#8c564b;stroke:#8c564b;" x="123.828208" xlink:href="#m534e9d1cff" y="139.335915"/>
     <use style="fill:#8c564b;stroke:#8c564b;" x="186.806827" xlink:href="#m534e9d1cff" y="168.687953"/>
     <use style="fill:#8c564b;stroke:#8c564b;" x="247.759735" xlink:href="#m534e9d1cff" y="189.632834"/>
     <use style="fill:#8c564b;stroke:#8c564b;" x="418.288157" xlink:href="#m534e9d1cff" y="215.126496"/>
     <use style="fill:#8c564b;stroke:#8c564b;" x="564.678538" xlink:href="#m534e9d1cff" y="221.416053"/>
    </g>
   </g>
   <g id="patch_3">
    <path d="M 79.92 382.5576
L 79.92 51.5808
" style="fill:none;stroke:#000000;stroke-linecap:square;stroke-linejoin:miter;stroke-width:0.8;"/>
   </g>
   <g id="patch_4">
    <path d="M 575.424 382.5576
L 575.424 51.5808
" style="fill:none;stroke:#000000;stroke-linecap:square;stroke-linejoin:miter;stroke-width:0.8;"/>
   </g>
   <g id="patch_5">
    <path d="M 79.92 382.5576
L 575.424 382.5576
" style="fill:none;stroke:#000000;stroke-linecap:square;stroke-linejoin:miter;stroke-width:0.8;"/>
   </g>
   <g id="patch_6">
    <path d="M 79.92 51.5808
L 575.424 51.5808
" style="fill:none;stroke:#000000;stroke-linecap:square;stroke-linejoin:miter;stroke-width:0.8;"/>
   </g>
   <g id="text_20">
    <!-- Intel(R) Xeon(R) CPU E5-1650 v4 @ 3.60GHz / GeForce GTX TITAN -->
    <defs>
     <path d="M 18.3125 70.21875
L 18.3125 54.6875
L 36.8125 54.6875
L 36.8125 47.703125
L 18.3125 47.703125
L 18.3125 18.015625
Q 18.3125 11.328125 20.140625 9.421875
Q 21.96875 7.515625 27.59375 7.515625
L 36.8125 7.515625
L 36.8125 0
L 27.59375 0
Q 17.1875 0 13.234375 3.875
Q 9.28125 7.765625 9.28125 18.015625
L 9.28125 47.703125
L 2.6875 47.703125
L 2.6875 54.6875
L 9.28125 54.6875
L 9.28125 70.21875
z
" id="DejaVuSans-116"/>
     <path d="M 44.390625 34.1875
Q 47.5625 33.109375 50.5625 29.59375
Q 53.5625 26.078125 56.59375 19.921875
L 66.609375 0
L 56 0
L 46.6875 18.703125
Q 43.0625 26.03125 39.671875 28.421875
Q 36.28125 30.8125 30.421875 30.8125
L 19.671875 30.8125
L 19.671875 0
L 9.8125 0
L 9.8125 72.90625
L 32.078125 72.90625
Q 44.578125 72.90625 50.734375 67.671875
Q 56.890625 62.453125 56.890625 51.90625
Q 56.890625 45.015625 53.6875 40.46875
Q 50.484375 35.9375 44.390625 34.1875
z
M 19.671875 64.796875
L 19.671875 38.921875
L 32.078125 38.921875
Q 39.203125 38.921875 42.84375 42.21875
Q 46.484375 45.515625 46.484375 51.90625
Q 46.484375 58.296875 42.84375 61.546875
Q 39.203125 64.796875 32.078125 64.796875
z
" id="DejaVuSans-82"/>
     <path d="M 6.296875 72.90625
L 16.890625 72.90625
L 35.015625 45.796875
L 53.21875 72.90625
L 63.8125 72.90625
L 40.375 37.890625
L 65.375 0
L 54.78125 0
L 34.28125 31
L 13.625 0
L 2.984375 0
L 29 38.921875
z
" id="DejaVuSans-88"/>
     <path d="M 64.40625 67.28125
L 64.40625 56.890625
Q 59.421875 61.53125 53.78125 63.8125
Q 48.140625 66.109375 41.796875 66.109375
Q 29.296875 66.109375 22.65625 58.46875
Q 16.015625 50.828125 16.015625 36.375
Q 16.015625 21.96875 22.65625 14.328125
Q 29.296875 6.6875 41.796875 6.6875
Q 48.140625 6.6875 53.78125 8.984375
Q 59.421875 11.28125 64.40625 15.921875
L 64.40625 5.609375
Q 59.234375 2.09375 53.4375 0.328125
Q 47.65625 -1.421875 41.21875 -1.421875
Q 24.65625 -1.421875 15.125 8.703125
Q 5.609375 18.84375 5.609375 36.375
Q 5.609375 53.953125 15.125 64.078125
Q 24.65625 74.21875 41.21875 74.21875
Q 47.75 74.21875 53.53125 72.484375
Q 59.328125 70.75 64.40625 67.28125
z
" id="DejaVuSans-67"/>
     <path d="M 19.671875 64.796875
L 19.671875 37.40625
L 32.078125 37.40625
Q 38.96875 37.40625 42.71875 40.96875
Q 46.484375 44.53125 46.484375 51.125
Q 46.484375 57.671875 42.71875 61.234375
Q 38.96875 64.796875 32.078125 64.796875
z
M 9.8125 72.90625
L 32.078125 72.90625
Q 44.34375 72.90625 50.609375 67.359375
Q 56.890625 61.8125 56.890625 51.125
Q 56.890625 40.328125 50.609375 34.8125
Q 44.34375 29.296875 32.078125 29.296875
L 19.671875 29.296875
L 19.671875 0
L 9.8125 0
z
" id="DejaVuSans-80"/>
     <path d="M 8.6875 72.90625
L 18.609375 72.90625
L 18.609375 28.609375
Q 18.609375 16.890625 22.84375 11.734375
Q 27.09375 6.59375 36.625 6.59375
Q 46.09375 6.59375 50.34375 11.734375
Q 54.59375 16.890625 54.59375 28.609375
L 54.59375 72.90625
L 64.5 72.90625
L 64.5 27.390625
Q 64.5 13.140625 57.4375 5.859375
Q 50.390625 -1.421875 36.625 -1.421875
Q 22.796875 -1.421875 15.734375 5.859375
Q 8.6875 13.140625 8.6875 27.390625
z
" id="DejaVuSans-85"/>
     <path d="M 9.8125 72.90625
L 55.90625 72.90625
L 55.90625 64.59375
L 19.671875 64.59375
L 19.671875 43.015625
L 54.390625 43.015625
L 54.390625 34.71875
L 19.671875 34.71875
L 19.671875 8.296875
L 56.78125 8.296875
L 56.78125 0
L 9.8125 0
z
" id="DejaVuSans-69"/>
     <path d="M 2.984375 54.6875
L 12.5 54.6875
L 29.59375 8.796875
L 46.6875 54.6875
L 56.203125 54.6875
L 35.6875 0
L 23.484375 0
z
" id="DejaVuSans-118"/>
     <path d="M 37.203125 26.21875
Q 37.203125 19.234375 40.671875 15.25
Q 44.140625 11.28125 50.203125 11.28125
Q 56.203125 11.28125 59.640625 15.28125
Q 63.09375 19.28125 63.09375 26.21875
Q 63.09375 33.0625 59.578125 37.078125
Q 56.0625 41.109375 50.09375 41.109375
Q 44.1875 41.109375 40.6875 37.109375
Q 37.203125 33.109375 37.203125 26.21875
z
M 63.8125 11.625
Q 60.890625 7.859375 57.109375 6.078125
Q 53.328125 4.296875 48.296875 4.296875
Q 39.890625 4.296875 34.640625 10.375
Q 29.390625 16.453125 29.390625 26.21875
Q 29.390625 35.984375 34.65625 42.078125
Q 39.9375 48.1875 48.296875 48.1875
Q 53.328125 48.1875 57.125 46.359375
Q 60.9375 44.53125 63.8125 40.828125
L 63.8125 47.21875
L 70.796875 47.21875
L 70.796875 11.28125
Q 77.9375 12.359375 81.953125 17.796875
Q 85.984375 23.25 85.984375 31.890625
Q 85.984375 37.109375 84.4375 41.703125
Q 82.90625 46.296875 79.78125 50.203125
Q 74.703125 56.59375 67.40625 59.984375
Q 60.109375 63.375 51.515625 63.375
Q 45.515625 63.375 39.984375 61.78125
Q 34.46875 60.203125 29.78125 57.078125
Q 22.125 52.09375 17.796875 44.015625
Q 13.484375 35.9375 13.484375 26.515625
Q 13.484375 18.75 16.28125 11.953125
Q 19.09375 5.171875 24.421875 0
Q 29.546875 -5.078125 36.28125 -7.734375
Q 43.015625 -10.40625 50.6875 -10.40625
Q 56.984375 -10.40625 63.0625 -8.28125
Q 69.140625 -6.15625 74.21875 -2.203125
L 78.609375 -7.625
Q 72.515625 -12.359375 65.3125 -14.875
Q 58.109375 -17.390625 50.6875 -17.390625
Q 41.65625 -17.390625 33.640625 -14.1875
Q 25.640625 -10.984375 19.390625 -4.890625
Q 13.140625 1.21875 9.859375 9.25
Q 6.59375 17.28125 6.59375 26.515625
Q 6.59375 35.40625 9.90625 43.453125
Q 13.234375 51.515625 19.390625 57.625
Q 25.6875 63.8125 33.9375 67.109375
Q 42.1875 70.40625 51.421875 70.40625
Q 61.765625 70.40625 70.625 66.15625
Q 79.5 61.921875 85.5 54.109375
Q 89.15625 49.3125 91.078125 43.703125
Q 93.015625 38.09375 93.015625 32.078125
Q 93.015625 19.234375 85.25 11.8125
Q 77.484375 4.390625 63.8125 4.109375
z
" id="DejaVuSans-64"/>
     <path d="M 40.578125 39.3125
Q 47.65625 37.796875 51.625 33
Q 55.609375 28.21875 55.609375 21.1875
Q 55.609375 10.40625 48.1875 4.484375
Q 40.765625 -1.421875 27.09375 -1.421875
Q 22.515625 -1.421875 17.65625 -0.515625
Q 12.796875 0.390625 7.625 2.203125
L 7.625 11.71875
Q 11.71875 9.328125 16.59375 8.109375
Q 21.484375 6.890625 26.8125 6.890625
Q 36.078125 6.890625 40.9375 10.546875
Q 45.796875 14.203125 45.796875 21.1875
Q 45.796875 27.640625 41.28125 31.265625
Q 36.765625 34.90625 28.71875 34.90625
L 20.21875 34.90625
L 20.21875 43.015625
L 29.109375 43.015625
Q 36.375 43.015625 40.234375 45.921875
Q 44.09375 48.828125 44.09375 54.296875
Q 44.09375 59.90625 40.109375 62.90625
Q 36.140625 65.921875 28.71875 65.921875
Q 24.65625 65.921875 20.015625 65.03125
Q 15.375 64.15625 9.8125 62.3125
L 9.8125 71.09375
Q 15.4375 72.65625 20.34375 73.4375
Q 25.25 74.21875 29.59375 74.21875
Q 40.828125 74.21875 47.359375 69.109375
Q 53.90625 64.015625 53.90625 55.328125
Q 53.90625 49.265625 50.4375 45.09375
Q 46.96875 40.921875 40.578125 39.3125
z
" id="DejaVuSans-51"/>
     <path d="M 10.6875 12.40625
L 21 12.40625
L 21 0
L 10.6875 0
z
" id="DejaVuSans-46"/>
     <path d="M 59.515625 10.40625
L 59.515625 29.984375
L 43.40625 29.984375
L 43.40625 38.09375
L 69.28125 38.09375
L 69.28125 6.78125
Q 63.578125 2.734375 56.6875 0.65625
Q 49.8125 -1.421875 42 -1.421875
Q 24.90625 -1.421875 15.25 8.5625
Q 5.609375 18.5625 5.609375 36.375
Q 5.609375 54.25 15.25 64.234375
Q 24.90625 74.21875 42 74.21875
Q 49.125 74.21875 55.546875 72.453125
Q 61.96875 70.703125 67.390625 67.28125
L 67.390625 56.78125
Q 61.921875 61.421875 55.765625 63.765625
Q 49.609375 66.109375 42.828125 66.109375
Q 29.4375 66.109375 22.71875 58.640625
Q 16.015625 51.171875 16.015625 36.375
Q 16.015625 21.625 22.71875 14.15625
Q 29.4375 6.6875 42.828125 6.6875
Q 48.046875 6.6875 52.140625 7.59375
Q 56.25 8.5 59.515625 10.40625
z
" id="DejaVuSans-71"/>
     <path d="M 9.8125 72.90625
L 19.671875 72.90625
L 19.671875 43.015625
L 55.515625 43.015625
L 55.515625 72.90625
L 65.375 72.90625
L 65.375 0
L 55.515625 0
L 55.515625 34.71875
L 19.671875 34.71875
L 19.671875 0
L 9.8125 0
z
" id="DejaVuSans-72"/>
     <path d="M 25.390625 72.90625
L 33.6875 72.90625
L 8.296875 -9.28125
L 0 -9.28125
z
" id="DejaVuSans-47"/>
     <path d="M -0.296875 72.90625
L 61.375 72.90625
L 61.375 64.59375
L 35.5 64.59375
L 35.5 0
L 25.59375 0
L 25.59375 64.59375
L -0.296875 64.59375
z
" id="DejaVuSans-84"/>
     <path d="M 34.1875 63.1875
L 20.796875 26.90625
L 47.609375 26.90625
z
M 28.609375 72.90625
L 39.796875 72.90625
L 67.578125 0
L 57.328125 0
L 50.6875 18.703125
L 17.828125 18.703125
L 11.1875 0
L 0.78125 0
z
" id="DejaVuSans-65"/>
     <path d="M 9.8125 72.90625
L 23.09375 72.90625
L 55.421875 11.921875
L 55.421875 72.90625
L 64.984375 72.90625
L 64.984375 0
L 51.703125 0
L 19.390625 60.984375
L 19.390625 0
L 9.8125 0
z
" id="DejaVuSans-78"/>
    </defs>
    <g transform="translate(129.021375 45.5808)scale(0.12 -0.12)">
     <use xlink:href="#DejaVuSans-73"/>
     <use x="29.492188" xlink:href="#DejaVuSans-110"/>
     <use x="92.871094" xlink:href="#DejaVuSans-116"/>
     <use x="132.080078" xlink:href="#DejaVuSans-101"/>
     <use x="193.603516" xlink:href="#DejaVuSans-108"/>
     <use x="221.386719" xlink:href="#DejaVuSans-40"/>
     <use x="260.400391" xlink:href="#DejaVuSans-82"/>
     <use x="329.882812" xlink:href="#DejaVuSans-41"/>
     <use x="368.896484" xlink:href="#DejaVuSans-32"/>
     <use x="400.683594" xlink:href="#DejaVuSans-88"/>
     <use x="469.126953" xlink:href="#DejaVuSans-101"/>
     <use x="530.650391" xlink:href="#DejaVuSans-111"/>
     <use x="591.832031" xlink:href="#DejaVuSans-110"/>
     <use x="655.210938" xlink:href="#DejaVuSans-40"/>
     <use x="694.224609" xlink:href="#DejaVuSans-82"/>
     <use x="763.707031" xlink:href="#DejaVuSans-41"/>
     <use x="802.720703" xlink:href="#DejaVuSans-32"/>
     <use x="834.507812" xlink:href="#DejaVuSans-67"/>
     <use x="904.332031" xlink:href="#DejaVuSans-80"/>
     <use x="964.634766" xlink:href="#DejaVuSans-85"/>
     <use x="1037.828125" xlink:href="#DejaVuSans-32"/>
     <use x="1069.615234" xlink:href="#DejaVuSans-69"/>
     <use x="1132.798828" xlink:href="#DejaVuSans-53"/>
     <use x="1196.421875" xlink:href="#DejaVuSans-45"/>
     <use x="1232.505859" xlink:href="#DejaVuSans-49"/>
     <use x="1296.128906" xlink:href="#DejaVuSans-54"/>
     <use x="1359.751953" xlink:href="#DejaVuSans-53"/>
     <use x="1423.375" xlink:href="#DejaVuSans-48"/>
     <use x="1486.998047" xlink:href="#DejaVuSans-32"/>
     <use x="1518.785156" xlink:href="#DejaVuSans-118"/>
     <use x="1577.964844" xlink:href="#DejaVuSans-52"/>
     <use x="1641.587891" xlink:href="#DejaVuSans-32"/>
     <use x="1673.375" xlink:href="#DejaVuSans-64"/>
     <use x="1773.375" xlink:href="#DejaVuSans-32"/>
     <use x="1805.162109" xlink:href="#DejaVuSans-51"/>
     <use x="1868.785156" xlink:href="#DejaVuSans-46"/>
     <use x="1900.572266" xlink:href="#DejaVuSans-54"/>
     <use x="1964.195312" xlink:href="#DejaVuSans-48"/>
     <use x="2027.818359" xlink:href="#DejaVuSans-71"/>
     <use x="2105.308594" xlink:href="#DejaVuSans-72"/>
     <use x="2180.503906" xlink:href="#DejaVuSans-122"/>
     <use x="2232.994141" xlink:href="#DejaVuSans-32"/>
     <use x="2264.78125" xlink:href="#DejaVuSans-47"/>
     <use x="2298.472656" xlink:href="#DejaVuSans-32"/>
     <use x="2330.259766" xlink:href="#DejaVuSans-71"/>
     <use x="2407.75" xlink:href="#DejaVuSans-101"/>
     <use x="2469.273438" xlink:href="#DejaVuSans-70"/>
     <use x="2526.746094" xlink:href="#DejaVuSans-111"/>
     <use x="2587.927734" xlink:href="#DejaVuSans-114"/>
     <use x="2629.009766" xlink:href="#DejaVuSans-99"/>
     <use x="2683.990234" xlink:href="#DejaVuSans-101"/>
     <use x="2745.513672" xlink:href="#DejaVuSans-32"/>
     <use x="2777.300781" xlink:href="#DejaVuSans-71"/>
     <use x="2854.744141" xlink:href="#DejaVuSans-84"/>
     <use x="2915.828125" xlink:href="#DejaVuSans-88"/>
     <use x="2984.333984" xlink:href="#DejaVuSans-32"/>
     <use x="3016.121094" xlink:href="#DejaVuSans-84"/>
     <use x="3077.205078" xlink:href="#DejaVuSans-73"/>
     <use x="3106.697266" xlink:href="#DejaVuSans-84"/>
     <use x="3167.671875" xlink:href="#DejaVuSans-65"/>
     <use x="3236.080078" xlink:href="#DejaVuSans-78"/>
    </g>
   </g>
   <g id="legend_1">
    <g id="patch_7">
     <path d="M 242.194312 149.3183
L 568.424 149.3183
Q 570.424 149.3183 570.424 147.3183
L 570.424 58.5808
Q 570.424 56.5808 568.424 56.5808
L 242.194312 56.5808
Q 240.194312 56.5808 240.194312 58.5808
L 240.194312 147.3183
Q 240.194312 149.3183 242.194312 149.3183
z
" style="fill:#ffffff;opacity:0.8;stroke:#cccccc;stroke-linejoin:miter;"/>
    </g>
    <g id="line2d_24">
     <path d="M 244.194312 64.679238
L 264.194312 64.679238
" style="fill:none;stroke:#1f77b4;stroke-linecap:square;stroke-width:1.5;"/>
    </g>
    <g id="line2d_25">
     <g>
      <use style="fill:#1f77b4;stroke:#1f77b4;stroke-linejoin:miter;" x="254.194312" xlink:href="#ma00b4a7336" y="64.679238"/>
     </g>
    </g>
    <g id="text_21">
     <!-- integrate1d_legacy CPU_serial -->
     <defs>
      <path d="M 50.984375 -16.609375
L 50.984375 -23.578125
L -0.984375 -23.578125
L -0.984375 -16.609375
z
" id="DejaVuSans-95"/>
      <path d="M 32.171875 -5.078125
Q 28.375 -14.84375 24.75 -17.8125
Q 21.140625 -20.796875 15.09375 -20.796875
L 7.90625 -20.796875
L 7.90625 -13.28125
L 13.1875 -13.28125
Q 16.890625 -13.28125 18.9375 -11.515625
Q 21 -9.765625 23.484375 -3.21875
L 25.09375 0.875
L 2.984375 54.6875
L 12.5 54.6875
L 29.59375 11.921875
L 46.6875 54.6875
L 56.203125 54.6875
z
" id="DejaVuSans-121"/>
     </defs>
     <g transform="translate(272.194312 68.179238)scale(0.1 -0.1)">
      <use xlink:href="#DejaVuSans-105"/>
      <use x="27.783203" xlink:href="#DejaVuSans-110"/>
      <use x="91.162109" xlink:href="#DejaVuSans-116"/>
      <use x="130.371094" xlink:href="#DejaVuSans-101"/>
      <use x="191.894531" xlink:href="#DejaVuSans-103"/>
      <use x="255.371094" xlink:href="#DejaVuSans-114"/>
      <use x="296.484375" xlink:href="#DejaVuSans-97"/>
      <use x="357.763672" xlink:href="#DejaVuSans-116"/>
      <use x="396.972656" xlink:href="#DejaVuSans-101"/>
      <use x="458.496094" xlink:href="#DejaVuSans-49"/>
      <use x="522.119141" xlink:href="#DejaVuSans-100"/>
      <use x="585.595703" xlink:href="#DejaVuSans-95"/>
      <use x="635.595703" xlink:href="#DejaVuSans-108"/>
      <use x="663.378906" xlink:href="#DejaVuSans-101"/>
      <use x="724.902344" xlink:href="#DejaVuSans-103"/>
      <use x="788.378906" xlink:href="#DejaVuSans-97"/>
      <use x="849.658203" xlink:href="#DejaVuSans-99"/>
      <use x="904.638672" xlink:href="#DejaVuSans-121"/>
      <use x="963.818359" xlink:href="#DejaVuSans-32"/>
      <use x="995.605469" xlink:href="#DejaVuSans-67"/>
      <use x="1065.429688" xlink:href="#DejaVuSans-80"/>
      <use x="1125.732422" xlink:href="#DejaVuSans-85"/>
      <use x="1198.925781" xlink:href="#DejaVuSans-95"/>
      <use x="1248.925781" xlink:href="#DejaVuSans-115"/>
      <use x="1301.025391" xlink:href="#DejaVuSans-101"/>
      <use x="1362.548828" xlink:href="#DejaVuSans-114"/>
      <use x="1403.662109" xlink:href="#DejaVuSans-105"/>
      <use x="1431.445312" xlink:href="#DejaVuSans-97"/>
      <use x="1492.724609" xlink:href="#DejaVuSans-108"/>
     </g>
    </g>
    <g id="line2d_26">
     <path d="M 244.194312 79.635488
L 264.194312 79.635488
" style="fill:none;stroke:#ff7f0e;stroke-linecap:square;stroke-width:1.5;"/>
    </g>
    <g id="line2d_27">
     <g>
      <use style="fill:#ff7f0e;stroke:#ff7f0e;" x="254.194312" xlink:href="#mf195dfda9f" y="79.635488"/>
     </g>
    </g>
    <g id="text_22">
     <!-- integrate1d_ng CPU_serial -->
     <g transform="translate(272.194312 83.135488)scale(0.1 -0.1)">
      <use xlink:href="#DejaVuSans-105"/>
      <use x="27.783203" xlink:href="#DejaVuSans-110"/>
      <use x="91.162109" xlink:href="#DejaVuSans-116"/>
      <use x="130.371094" xlink:href="#DejaVuSans-101"/>
      <use x="191.894531" xlink:href="#DejaVuSans-103"/>
      <use x="255.371094" xlink:href="#DejaVuSans-114"/>
      <use x="296.484375" xlink:href="#DejaVuSans-97"/>
      <use x="357.763672" xlink:href="#DejaVuSans-116"/>
      <use x="396.972656" xlink:href="#DejaVuSans-101"/>
      <use x="458.496094" xlink:href="#DejaVuSans-49"/>
      <use x="522.119141" xlink:href="#DejaVuSans-100"/>
      <use x="585.595703" xlink:href="#DejaVuSans-95"/>
      <use x="635.595703" xlink:href="#DejaVuSans-110"/>
      <use x="698.974609" xlink:href="#DejaVuSans-103"/>
      <use x="762.451172" xlink:href="#DejaVuSans-32"/>
      <use x="794.238281" xlink:href="#DejaVuSans-67"/>
      <use x="864.0625" xlink:href="#DejaVuSans-80"/>
      <use x="924.365234" xlink:href="#DejaVuSans-85"/>
      <use x="997.558594" xlink:href="#DejaVuSans-95"/>
      <use x="1047.558594" xlink:href="#DejaVuSans-115"/>
      <use x="1099.658203" xlink:href="#DejaVuSans-101"/>
      <use x="1161.181641" xlink:href="#DejaVuSans-114"/>
      <use x="1202.294922" xlink:href="#DejaVuSans-105"/>
      <use x="1230.078125" xlink:href="#DejaVuSans-97"/>
      <use x="1291.357422" xlink:href="#DejaVuSans-108"/>
     </g>
    </g>
    <g id="line2d_28">
     <path d="M 244.194312 94.591738
L 264.194312 94.591738
" style="fill:none;stroke:#2ca02c;stroke-linecap:square;stroke-width:1.5;"/>
    </g>
    <g id="line2d_29">
     <g>
      <use style="fill:#2ca02c;stroke:#2ca02c;stroke-linejoin:miter;" x="254.194312" xlink:href="#m0d6de1e585" y="94.591738"/>
     </g>
    </g>
    <g id="text_23">
     <!-- integrate1d_legacy CPU_CSR_OpenMP -->
     <defs>
      <path d="M 53.515625 70.515625
L 53.515625 60.890625
Q 47.90625 63.578125 42.921875 64.890625
Q 37.9375 66.21875 33.296875 66.21875
Q 25.25 66.21875 20.875 63.09375
Q 16.5 59.96875 16.5 54.203125
Q 16.5 49.359375 19.40625 46.890625
Q 22.3125 44.4375 30.421875 42.921875
L 36.375 41.703125
Q 47.40625 39.59375 52.65625 34.296875
Q 57.90625 29 57.90625 20.125
Q 57.90625 9.515625 50.796875 4.046875
Q 43.703125 -1.421875 29.984375 -1.421875
Q 24.8125 -1.421875 18.96875 -0.25
Q 13.140625 0.921875 6.890625 3.21875
L 6.890625 13.375
Q 12.890625 10.015625 18.65625 8.296875
Q 24.421875 6.59375 29.984375 6.59375
Q 38.421875 6.59375 43.015625 9.90625
Q 47.609375 13.234375 47.609375 19.390625
Q 47.609375 24.75 44.3125 27.78125
Q 41.015625 30.8125 33.5 32.328125
L 27.484375 33.5
Q 16.453125 35.6875 11.515625 40.375
Q 6.59375 45.0625 6.59375 53.421875
Q 6.59375 63.09375 13.40625 68.65625
Q 20.21875 74.21875 32.171875 74.21875
Q 37.3125 74.21875 42.625 73.28125
Q 47.953125 72.359375 53.515625 70.515625
z
" id="DejaVuSans-83"/>
      <path d="M 39.40625 66.21875
Q 28.65625 66.21875 22.328125 58.203125
Q 16.015625 50.203125 16.015625 36.375
Q 16.015625 22.609375 22.328125 14.59375
Q 28.65625 6.59375 39.40625 6.59375
Q 50.140625 6.59375 56.421875 14.59375
Q 62.703125 22.609375 62.703125 36.375
Q 62.703125 50.203125 56.421875 58.203125
Q 50.140625 66.21875 39.40625 66.21875
z
M 39.40625 74.21875
Q 54.734375 74.21875 63.90625 63.9375
Q 73.09375 53.65625 73.09375 36.375
Q 73.09375 19.140625 63.90625 8.859375
Q 54.734375 -1.421875 39.40625 -1.421875
Q 24.03125 -1.421875 14.8125 8.828125
Q 5.609375 19.09375 5.609375 36.375
Q 5.609375 53.65625 14.8125 63.9375
Q 24.03125 74.21875 39.40625 74.21875
z
" id="DejaVuSans-79"/>
      <path d="M 9.8125 72.90625
L 24.515625 72.90625
L 43.109375 23.296875
L 61.8125 72.90625
L 76.515625 72.90625
L 76.515625 0
L 66.890625 0
L 66.890625 64.015625
L 48.09375 14.015625
L 38.1875 14.015625
L 19.390625 64.015625
L 19.390625 0
L 9.8125 0
z
" id="DejaVuSans-77"/>
     </defs>
     <g transform="translate(272.194312 98.091738)scale(0.1 -0.1)">
      <use xlink:href="#DejaVuSans-105"/>
      <use x="27.783203" xlink:href="#DejaVuSans-110"/>
      <use x="91.162109" xlink:href="#DejaVuSans-116"/>
      <use x="130.371094" xlink:href="#DejaVuSans-101"/>
      <use x="191.894531" xlink:href="#DejaVuSans-103"/>
      <use x="255.371094" xlink:href="#DejaVuSans-114"/>
      <use x="296.484375" xlink:href="#DejaVuSans-97"/>
      <use x="357.763672" xlink:href="#DejaVuSans-116"/>
      <use x="396.972656" xlink:href="#DejaVuSans-101"/>
      <use x="458.496094" xlink:href="#DejaVuSans-49"/>
      <use x="522.119141" xlink:href="#DejaVuSans-100"/>
      <use x="585.595703" xlink:href="#DejaVuSans-95"/>
      <use x="635.595703" xlink:href="#DejaVuSans-108"/>
      <use x="663.378906" xlink:href="#DejaVuSans-101"/>
      <use x="724.902344" xlink:href="#DejaVuSans-103"/>
      <use x="788.378906" xlink:href="#DejaVuSans-97"/>
      <use x="849.658203" xlink:href="#DejaVuSans-99"/>
      <use x="904.638672" xlink:href="#DejaVuSans-121"/>
      <use x="963.818359" xlink:href="#DejaVuSans-32"/>
      <use x="995.605469" xlink:href="#DejaVuSans-67"/>
      <use x="1065.429688" xlink:href="#DejaVuSans-80"/>
      <use x="1125.732422" xlink:href="#DejaVuSans-85"/>
      <use x="1198.925781" xlink:href="#DejaVuSans-95"/>
      <use x="1248.925781" xlink:href="#DejaVuSans-67"/>
      <use x="1318.75" xlink:href="#DejaVuSans-83"/>
      <use x="1382.226562" xlink:href="#DejaVuSans-82"/>
      <use x="1451.708984" xlink:href="#DejaVuSans-95"/>
      <use x="1501.708984" xlink:href="#DejaVuSans-79"/>
      <use x="1580.419922" xlink:href="#DejaVuSans-112"/>
      <use x="1643.896484" xlink:href="#DejaVuSans-101"/>
      <use x="1705.419922" xlink:href="#DejaVuSans-110"/>
      <use x="1768.798828" xlink:href="#DejaVuSans-77"/>
      <use x="1855.078125" xlink:href="#DejaVuSans-80"/>
     </g>
    </g>
    <g id="line2d_30">
     <path d="M 244.194312 109.547988
L 264.194312 109.547988
" style="fill:none;stroke:#d62728;stroke-linecap:square;stroke-width:1.5;"/>
    </g>
    <g id="line2d_31">
     <g>
      <use style="fill:#d62728;stroke:#d62728;" x="254.194312" xlink:href="#mda4a868a73" y="109.547988"/>
     </g>
    </g>
    <g id="text_24">
     <!-- integrate1d_ng CPU_CSR_OpenMP -->
     <g transform="translate(272.194312 113.047988)scale(0.1 -0.1)">
      <use xlink:href="#DejaVuSans-105"/>
      <use x="27.783203" xlink:href="#DejaVuSans-110"/>
      <use x="91.162109" xlink:href="#DejaVuSans-116"/>
      <use x="130.371094" xlink:href="#DejaVuSans-101"/>
      <use x="191.894531" xlink:href="#DejaVuSans-103"/>
      <use x="255.371094" xlink:href="#DejaVuSans-114"/>
      <use x="296.484375" xlink:href="#DejaVuSans-97"/>
      <use x="357.763672" xlink:href="#DejaVuSans-116"/>
      <use x="396.972656" xlink:href="#DejaVuSans-101"/>
      <use x="458.496094" xlink:href="#DejaVuSans-49"/>
      <use x="522.119141" xlink:href="#DejaVuSans-100"/>
      <use x="585.595703" xlink:href="#DejaVuSans-95"/>
      <use x="635.595703" xlink:href="#DejaVuSans-110"/>
      <use x="698.974609" xlink:href="#DejaVuSans-103"/>
      <use x="762.451172" xlink:href="#DejaVuSans-32"/>
      <use x="794.238281" xlink:href="#DejaVuSans-67"/>
      <use x="864.0625" xlink:href="#DejaVuSans-80"/>
      <use x="924.365234" xlink:href="#DejaVuSans-85"/>
      <use x="997.558594" xlink:href="#DejaVuSans-95"/>
      <use x="1047.558594" xlink:href="#DejaVuSans-67"/>
      <use x="1117.382812" xlink:href="#DejaVuSans-83"/>
      <use x="1180.859375" xlink:href="#DejaVuSans-82"/>
      <use x="1250.341797" xlink:href="#DejaVuSans-95"/>
      <use x="1300.341797" xlink:href="#DejaVuSans-79"/>
      <use x="1379.052734" xlink:href="#DejaVuSans-112"/>
      <use x="1442.529297" xlink:href="#DejaVuSans-101"/>
      <use x="1504.052734" xlink:href="#DejaVuSans-110"/>
      <use x="1567.431641" xlink:href="#DejaVuSans-77"/>
      <use x="1653.710938" xlink:href="#DejaVuSans-80"/>
     </g>
    </g>
    <g id="line2d_32">
     <path d="M 244.194312 124.504238
L 264.194312 124.504238
" style="fill:none;stroke:#9467bd;stroke-dasharray:5.55,2.4;stroke-dashoffset:0;stroke-width:1.5;"/>
    </g>
    <g id="line2d_33">
     <g>
      <use style="fill:#9467bd;stroke:#9467bd;stroke-linejoin:miter;" x="254.194312" xlink:href="#maccd042963" y="124.504238"/>
     </g>
    </g>
    <g id="text_25">
     <!-- integrate1d_legacy_GPU_CSR_NVIDIA_GeForce_GTX_TITAN -->
     <defs>
      <path d="M 28.609375 0
L 0.78125 72.90625
L 11.078125 72.90625
L 34.1875 11.53125
L 57.328125 72.90625
L 67.578125 72.90625
L 39.796875 0
z
" id="DejaVuSans-86"/>
      <path d="M 19.671875 64.796875
L 19.671875 8.109375
L 31.59375 8.109375
Q 46.6875 8.109375 53.6875 14.9375
Q 60.6875 21.78125 60.6875 36.53125
Q 60.6875 51.171875 53.6875 57.984375
Q 46.6875 64.796875 31.59375 64.796875
z
M 9.8125 72.90625
L 30.078125 72.90625
Q 51.265625 72.90625 61.171875 64.09375
Q 71.09375 55.28125 71.09375 36.53125
Q 71.09375 17.671875 61.125 8.828125
Q 51.171875 0 30.078125 0
L 9.8125 0
z
" id="DejaVuSans-68"/>
     </defs>
     <g transform="translate(272.194312 128.004238)scale(0.1 -0.1)">
      <use xlink:href="#DejaVuSans-105"/>
      <use x="27.783203" xlink:href="#DejaVuSans-110"/>
      <use x="91.162109" xlink:href="#DejaVuSans-116"/>
      <use x="130.371094" xlink:href="#DejaVuSans-101"/>
      <use x="191.894531" xlink:href="#DejaVuSans-103"/>
      <use x="255.371094" xlink:href="#DejaVuSans-114"/>
      <use x="296.484375" xlink:href="#DejaVuSans-97"/>
      <use x="357.763672" xlink:href="#DejaVuSans-116"/>
      <use x="396.972656" xlink:href="#DejaVuSans-101"/>
      <use x="458.496094" xlink:href="#DejaVuSans-49"/>
      <use x="522.119141" xlink:href="#DejaVuSans-100"/>
      <use x="585.595703" xlink:href="#DejaVuSans-95"/>
      <use x="635.595703" xlink:href="#DejaVuSans-108"/>
      <use x="663.378906" xlink:href="#DejaVuSans-101"/>
      <use x="724.902344" xlink:href="#DejaVuSans-103"/>
      <use x="788.378906" xlink:href="#DejaVuSans-97"/>
      <use x="849.658203" xlink:href="#DejaVuSans-99"/>
      <use x="904.638672" xlink:href="#DejaVuSans-121"/>
      <use x="963.818359" xlink:href="#DejaVuSans-95"/>
      <use x="1013.818359" xlink:href="#DejaVuSans-71"/>
      <use x="1091.308594" xlink:href="#DejaVuSans-80"/>
      <use x="1151.611328" xlink:href="#DejaVuSans-85"/>
      <use x="1224.804688" xlink:href="#DejaVuSans-95"/>
      <use x="1274.804688" xlink:href="#DejaVuSans-67"/>
      <use x="1344.628906" xlink:href="#DejaVuSans-83"/>
      <use x="1408.105469" xlink:href="#DejaVuSans-82"/>
      <use x="1477.587891" xlink:href="#DejaVuSans-95"/>
      <use x="1527.587891" xlink:href="#DejaVuSans-78"/>
      <use x="1602.392578" xlink:href="#DejaVuSans-86"/>
      <use x="1670.800781" xlink:href="#DejaVuSans-73"/>
      <use x="1700.292969" xlink:href="#DejaVuSans-68"/>
      <use x="1777.294922" xlink:href="#DejaVuSans-73"/>
      <use x="1806.787109" xlink:href="#DejaVuSans-65"/>
      <use x="1875.195312" xlink:href="#DejaVuSans-95"/>
      <use x="1925.195312" xlink:href="#DejaVuSans-71"/>
      <use x="2002.685547" xlink:href="#DejaVuSans-101"/>
      <use x="2064.208984" xlink:href="#DejaVuSans-70"/>
      <use x="2121.681641" xlink:href="#DejaVuSans-111"/>
      <use x="2182.863281" xlink:href="#DejaVuSans-114"/>
      <use x="2223.945312" xlink:href="#DejaVuSans-99"/>
      <use x="2278.925781" xlink:href="#DejaVuSans-101"/>
      <use x="2340.449219" xlink:href="#DejaVuSans-95"/>
      <use x="2390.449219" xlink:href="#DejaVuSans-71"/>
      <use x="2467.892578" xlink:href="#DejaVuSans-84"/>
      <use x="2528.976562" xlink:href="#DejaVuSans-88"/>
      <use x="2597.482422" xlink:href="#DejaVuSans-95"/>
      <use x="2647.482422" xlink:href="#DejaVuSans-84"/>
      <use x="2708.566406" xlink:href="#DejaVuSans-73"/>
      <use x="2738.058594" xlink:href="#DejaVuSans-84"/>
      <use x="2799.033203" xlink:href="#DejaVuSans-65"/>
      <use x="2867.441406" xlink:href="#DejaVuSans-78"/>
     </g>
    </g>
    <g id="line2d_34">
     <path d="M 244.194312 139.460488
L 264.194312 139.460488
" style="fill:none;stroke:#8c564b;stroke-dasharray:5.55,2.4;stroke-dashoffset:0;stroke-width:1.5;"/>
    </g>
    <g id="line2d_35">
     <g>
      <use style="fill:#8c564b;stroke:#8c564b;" x="254.194312" xlink:href="#m534e9d1cff" y="139.460488"/>
     </g>
    </g>
    <g id="text_26">
     <!-- integrate1d_ng_GPU_CSR_NVIDIA_GeForce_GTX_TITAN -->
     <g transform="translate(272.194312 142.960488)scale(0.1 -0.1)">
      <use xlink:href="#DejaVuSans-105"/>
      <use x="27.783203" xlink:href="#DejaVuSans-110"/>
      <use x="91.162109" xlink:href="#DejaVuSans-116"/>
      <use x="130.371094" xlink:href="#DejaVuSans-101"/>
      <use x="191.894531" xlink:href="#DejaVuSans-103"/>
      <use x="255.371094" xlink:href="#DejaVuSans-114"/>
      <use x="296.484375" xlink:href="#DejaVuSans-97"/>
      <use x="357.763672" xlink:href="#DejaVuSans-116"/>
      <use x="396.972656" xlink:href="#DejaVuSans-101"/>
      <use x="458.496094" xlink:href="#DejaVuSans-49"/>
      <use x="522.119141" xlink:href="#DejaVuSans-100"/>
      <use x="585.595703" xlink:href="#DejaVuSans-95"/>
      <use x="635.595703" xlink:href="#DejaVuSans-110"/>
      <use x="698.974609" xlink:href="#DejaVuSans-103"/>
      <use x="762.451172" xlink:href="#DejaVuSans-95"/>
      <use x="812.451172" xlink:href="#DejaVuSans-71"/>
      <use x="889.941406" xlink:href="#DejaVuSans-80"/>
      <use x="950.244141" xlink:href="#DejaVuSans-85"/>
      <use x="1023.4375" xlink:href="#DejaVuSans-95"/>
      <use x="1073.4375" xlink:href="#DejaVuSans-67"/>
      <use x="1143.261719" xlink:href="#DejaVuSans-83"/>
      <use x="1206.738281" xlink:href="#DejaVuSans-82"/>
      <use x="1276.220703" xlink:href="#DejaVuSans-95"/>
      <use x="1326.220703" xlink:href="#DejaVuSans-78"/>
      <use x="1401.025391" xlink:href="#DejaVuSans-86"/>
      <use x="1469.433594" xlink:href="#DejaVuSans-73"/>
      <use x="1498.925781" xlink:href="#DejaVuSans-68"/>
      <use x="1575.927734" xlink:href="#DejaVuSans-73"/>
      <use x="1605.419922" xlink:href="#DejaVuSans-65"/>
      <use x="1673.828125" xlink:href="#DejaVuSans-95"/>
      <use x="1723.828125" xlink:href="#DejaVuSans-71"/>
      <use x="1801.318359" xlink:href="#DejaVuSans-101"/>
      <use x="1862.841797" xlink:href="#DejaVuSans-70"/>
      <use x="1920.314453" xlink:href="#DejaVuSans-111"/>
      <use x="1981.496094" xlink:href="#DejaVuSans-114"/>
      <use x="2022.578125" xlink:href="#DejaVuSans-99"/>
      <use x="2077.558594" xlink:href="#DejaVuSans-101"/>
      <use x="2139.082031" xlink:href="#DejaVuSans-95"/>
      <use x="2189.082031" xlink:href="#DejaVuSans-71"/>
      <use x="2266.525391" xlink:href="#DejaVuSans-84"/>
      <use x="2327.609375" xlink:href="#DejaVuSans-88"/>
      <use x="2396.115234" xlink:href="#DejaVuSans-95"/>
      <use x="2446.115234" xlink:href="#DejaVuSans-84"/>
      <use x="2507.199219" xlink:href="#DejaVuSans-73"/>
      <use x="2536.691406" xlink:href="#DejaVuSans-84"/>
      <use x="2597.666016" xlink:href="#DejaVuSans-65"/>
      <use x="2666.074219" xlink:href="#DejaVuSans-78"/>
     </g>
    </g>
   </g>
  </g>
 </g>
 <defs>
  <clipPath id="p986ac206f9">
   <rect height="330.9768" width="495.504" x="79.92" y="51.5808"/>
  </clipPath>
 </defs>
</svg>
