<?xml version="1.0" encoding="UTF-8" standalone="no"?>
<!-- Created with Inkscape (http://www.inkscape.org/) -->
<svg id="svg5454" xmlns:rdf="http://www.w3.org/1999/02/22-rdf-syntax-ns#" xmlns="http://www.w3.org/2000/svg" height="62" width="62" version="1.1" xmlns:cc="http://creativecommons.org/ns#" xmlns:dc="http://purl.org/dc/elements/1.1/">
 <metadata id="metadata5459">
  <rdf:RDF>
   <cc:Work rdf:about="">
    <dc:format>image/svg+xml</dc:format>
    <dc:type rdf:resource="http://purl.org/dc/dcmitype/StillImage"/>
    <dc:title/>
   </cc:Work>
  </rdf:RDF>
 </metadata>
 <g id="layer1" stroke="#000" transform="translate(-251.58 -246.96)">
  <rect id="rect2991-3-49-8-0" style="color:#000000" ry="0" height="20" width="20" y="247.96" x="252.58" stroke-width=".2" fill="#fff"/>
  <rect id="rect2991-3-3-7-3-0" style="color:#000000" ry="0" height="20" width="20" y="247.96" x="272.58" stroke-width=".2" fill="#fff"/>
  <rect id="rect2991-3-1-6-1-4" style="color:#000000" ry="0" height="20" width="20" y="247.96" x="292.58" stroke-width=".2" fill="#fff"/>
  <rect id="rect2991-3-5-5-0-6" style="color:#000000" ry="0" height="20" width="20" y="267.96" x="252.58" stroke-width=".2" fill="#fff"/>
  <rect id="rect2991-3-6-1-6-2" style="color:#000000" ry="0" height="20" width="20" y="267.96" x="292.58" stroke-width=".2" fill="#fff"/>
  <rect id="rect2991-3-52-6-2-6" style="color:#000000" ry="0" height="20" width="20" y="287.96" x="292.58" stroke-width=".2" fill="#fff"/>
  <rect id="rect2991-3-78-6-9-7" style="color:#000000" ry="0" height="20" width="20" y="287.96" x="272.58" stroke-width=".2" fill="#fff"/>
  <rect id="rect2991-3-4-1-3-5" style="color:#000000" ry="0" height="20" width="20" y="287.96" x="252.58" stroke-width=".2" fill="#fff"/>
  <path id="rect2991-3-3-7-3-1-3-9" style="color:#000000" stroke-width=".2" fill="none" d="m294.74 286.82-16.41 9.9768-14.697-23.202 16.578-10.289-0.016-0.02 6.9686-4.2736 14.92 23.202-7.348 4.508z"/>
  <path id="path3830-2-5-8" style="color:#000000" stroke-linecap="round" fill="none" d="m264.86 247.96c13.39 12.83 27.153 23.05 37.098 60"/>
  <rect id="rect2991-3-32-9-4-7" style="color:#000000" ry="0" height="20" width="20" stroke-dasharray="0.20000000000000001, 0.40000000000000002" y="267.96" x="272.58" stroke-width=".2" fill="#fff"/>
  <g id="g3889-06-1-6-2" style="color:#000000" stroke-width=".01" fill="none" transform="matrix(20 0 0 20 -1631.9 -4227.2)">
   <path id="path3869-15-7-2-8" style="color:#000000" d="m95.725 225.15v0.20982"/>
   <path id="path3869-0-5-7-5-2" style="color:#000000" d="m95.83 225.26h-0.20982"/>
  </g>
  <path id="path5217-9" style="color:#000000" stroke-width=".01" transform="matrix(20 0 0 20 -1825.5 -4254.7)" d="m104.95 226.13a0.048828 0.048828 0 1 1 -0.0977 0 0.048828 0.048828 0 1 1 0.0977 0z"/>
  <path id="path5217-5-9" style="color:#000000" stroke-width=".01" transform="matrix(20 0 0 20 -1805.5 -4254.7)" d="m104.95 226.13a0.048828 0.048828 0 1 1 -0.0977 0 0.048828 0.048828 0 1 1 0.0977 0z"/>
  <path id="path5217-6-6" style="color:#000000" stroke-width=".01" transform="matrix(20 0 0 20 -1805.5 -4234.7)" d="m104.95 226.13a0.048828 0.048828 0 1 1 -0.0977 0 0.048828 0.048828 0 1 1 0.0977 0z"/>
  <path id="path5217-64-0" style="color:#000000" stroke-width=".01" transform="matrix(20 0 0 20 -1825.5 -4234.7)" d="m104.95 226.13a0.048828 0.048828 0 1 1 -0.0977 0 0.048828 0.048828 0 1 1 0.0977 0z"/>
  <path id="rect2991-3-3-7-3-1-6-2" style="color:#000000" stroke-width=".2" fill="#ffb380" d="m286.04 263.94 11.024 17.143-5.429 3.331-10.743-17.316z"/>
  <path id="rect2991-3-3-7-3-1-3-9-7" style="color:#000000" stroke-width=".2" fill="#fea" d="m280.9 267.12 10.735 17.374-12.125 7.3718-10.859-17.143z"/>
 </g>
</svg>
