<?xml version="1.0" encoding="UTF-8" standalone="no"?>
<!-- Created with Inkscape (http://www.inkscape.org/) -->
<svg id="svg5454" xmlns:rdf="http://www.w3.org/1999/02/22-rdf-syntax-ns#" xmlns="http://www.w3.org/2000/svg" height="62" width="62" version="1.1" xmlns:cc="http://creativecommons.org/ns#" xmlns:dc="http://purl.org/dc/elements/1.1/">
 <metadata id="metadata5459">
  <rdf:RDF>
   <cc:Work rdf:about="">
    <dc:format>image/svg+xml</dc:format>
    <dc:type rdf:resource="http://purl.org/dc/dcmitype/StillImage"/>
    <dc:title/>
   </cc:Work>
  </rdf:RDF>
 </metadata>
 <rect id="rect2991-3-49-8" style="color:#000000" ry="0" height="20" width="20" stroke="#000" y="1" x="1" stroke-width=".2" fill="#fff"/>
 <rect id="rect2991-3-3-7-3" style="color:#000000" ry="0" height="20" width="20" stroke="#000" y="1" x="21" stroke-width=".2" fill="#fff"/>
 <rect id="rect2991-3-1-6-1" style="color:#000000" ry="0" height="20" width="20" stroke="#000" y="1" x="41" stroke-width=".2" fill="#fff"/>
 <rect id="rect2991-3-5-5-0" style="color:#000000" ry="0" height="20" width="20" stroke="#000" y="21" x="1" stroke-width=".2" fill="#fff"/>
 <rect id="rect2991-3-6-1-6" style="color:#000000" ry="0" height="20" width="20" stroke="#000" y="21" x="41" stroke-width=".2" fill="#fff"/>
 <rect id="rect2991-3-52-6-2" style="color:#000000" ry="0" height="20" width="20" stroke="#000" y="41" x="41" stroke-width=".2" fill="#fff"/>
 <rect id="rect2991-3-78-6-9" style="color:#000000" ry="0" height="20" width="20" stroke="#000" y="41" x="21" stroke-width=".2" fill="#fff"/>
 <rect id="rect2991-3-4-1-3" style="color:#000000" ry="0" height="20" width="20" stroke="#000" y="41" x="1" stroke-width=".2" fill="#fff"/>
 <path id="rect2991-3-3-7-3-1" style="color:#000000" d="m35.59 12.05 14.92 23.202-7.348 4.508-14.54-23.436z" stroke="#000" stroke-width=".2" fill="#ffb380"/>
 <path id="rect2991-3-3-7-3-1-3" style="color:#000000" d="m28.63 16.34 14.529 23.514-16.41 9.977-14.697-23.202z" stroke="#000" stroke-width=".2" fill="#fea"/>
 <path id="path3830-2-5" style="color:#000000" d="m13.28 1c13.39 12.83 27.153 23.05 37.098 60" stroke="#000" stroke-linecap="round" fill="none"/>
 <rect id="rect2991-3-32-9-4" style="color:#000000" ry="0" height="20" width="20" stroke="#000" stroke-dasharray="0.2, 0.4" y="21" x="21" stroke-width=".2" fill="none"/>
 <path id="path5217" style="color:#000000" stroke-width=".2" stroke="#000" d="m21.92 20.94a0.977 0.977 0 0 1 -1.954 0 0.977 0.977 0 1 1 1.954 0z"/>
 <path id="path5217-5" style="color:#000000" stroke-width=".2" stroke="#000" d="m41.92 20.94a0.977 0.977 0 0 1 -1.954 0 0.977 0.977 0 1 1 1.954 0z"/>
 <path id="path5217-6" style="color:#000000" stroke-width=".2" stroke="#000" d="m41.92 40.94a0.977 0.977 0 0 1 -1.954 0 0.977 0.977 0 1 1 1.954 0z"/>
 <path id="path5217-64" style="color:#000000" stroke-width=".2" stroke="#000" d="m21.92 40.94a0.977 0.977 0 0 1 -1.954 0 0.977 0.977 0 1 1 1.954 0z"/>
</svg>
