<?xml version="1.0" encoding="UTF-8" standalone="no"?>
<!-- Created with Inkscape (http://www.inkscape.org/) -->
<svg id="svg5454" xmlns:rdf="http://www.w3.org/1999/02/22-rdf-syntax-ns#" xmlns="http://www.w3.org/2000/svg" height="62" width="62" version="1.1" xmlns:cc="http://creativecommons.org/ns#" xmlns:dc="http://purl.org/dc/elements/1.1/">
 <metadata id="metadata5459">
  <rdf:RDF>
   <cc:Work rdf:about="">
    <dc:format>image/svg+xml</dc:format>
    <dc:type rdf:resource="http://purl.org/dc/dcmitype/StillImage"/>
    <dc:title/>
   </cc:Work>
  </rdf:RDF>
 </metadata>
 <g id="layer1" stroke="#000" transform="translate(-251.58 -246.96)">
  <path id="path4581" style="color:#000000" stroke-width=".2" fill="#fea" d="m272.58 255.3v12.5h-20v-20h12.5z"/>
  <path id="rect2991-3-61" style="color:#000000" stroke-width=".2" fill="#ffb380" d="m265.08 247.8h7.5v7.5z"/>
  <path id="path4598" style="color:#000000" stroke-width=".2" fill="#ffb380" d="m272.58 255.3v-7.5h20v20h-8.9844z"/>
  <path id="rect2991-3-3-4" style="color:#000000" stroke-width=".2" fill="#fea" d="m283.75 267.8h-11.172v-12.5z"/>
  <path id="rect2991-3-1-0" style="color:#000000" stroke-width=".2" fill="#ffb380" d="m292.58 247.8h20v20h-20z"/>
  <rect id="rect2991-3-5-7" style="color:#000000" ry="0" height="20" width="20" y="267.8" x="252.58" stroke-width=".2" fill="#fea"/>
  <path id="path4608" style="color:#000000" stroke-width=".2" fill="#fea" d="m292.58 282.41v5.3896h-20v-20h11.172z"/>
  <path id="rect2991-3-32-5" style="color:#000000" stroke-width=".2" fill="#ffb380" d="m283.6 267.8h8.9844v14.766z"/>
  <path id="path4618" style="color:#000000" stroke-width=".2" fill="#ffb380" d="m292.58 282.88v-15.078h20v20h-17.891"/>
  <path id="rect2991-3-6-8" style="color:#000000" stroke-width=".2" fill="#fea" d="m294.85 287.8h-2.2646v-4.999z"/>
  <path id="path4656" style="color:#000000" stroke-width=".2" fill="#fea" d="m301.64 307.8h-9.0626v-20h2.3438"/>
  <path id="rect2991-3-52-5" style="color:#000000" stroke-width=".2" fill="#ffb380" d="m295 287.8h17.578v20h-11.016z"/>
  <rect id="rect2991-3-78-8" style="color:#000000" ry="0" height="20" width="20" y="287.8" x="272.58" stroke-width=".2" fill="#fea"/>
  <rect id="rect2991-3-4-6" style="color:#000000" ry="0" height="20" width="20" y="287.8" x="252.58" stroke-width=".2" fill="#fea"/>
  <path id="path3830-7" style="color:#000000" stroke-linecap="round" fill="none" d="m264.57 247.96c13.39 12.83 27.153 23.05 37.098 60"/>
 </g>
</svg>
