<?xml version="1.0" encoding="UTF-8" standalone="no"?>
<!-- Created with Inkscape (http://www.inkscape.org/) -->
<svg id="svg2" xmlns:rdf="http://www.w3.org/1999/02/22-rdf-syntax-ns#" xmlns="http://www.w3.org/2000/svg" height="24" width="24" version="1.1" xmlns:cc="http://creativecommons.org/ns#" xmlns:dc="http://purl.org/dc/elements/1.1/">
 <metadata id="metadata4">
  <rdf:RDF>
   <cc:Work rdf:about="">
    <dc:format>image/svg+xml</dc:format>
    <dc:type rdf:resource="http://purl.org/dc/dcmitype/StillImage"/>
    <dc:title/>
   </cc:Work>
  </rdf:RDF>
 </metadata>
 <rect id="rect3234" style="color:#000000" height="15.317" width="17.186" stroke="#000" stroke-linecap="round" y="4.3417" x="3.3797" stroke-width="1.8285" fill="none"/>
 <path id="use3315" style="block-progression:tb;color:#000000;text-transform:none;text-indent:0" d="m12 6.6849c-0.82361 0-1.5357 0.52284-2 1.2812-0.46429 0.75841-0.71875 1.7494-0.71875 2.8438 0 1.0707 0.30166 2.0064 0.75 2.75-1.9497 0.99299-3.2812 3.3179-3.2812 6.0312 0 0.01354-0.0001139 0.01197 0 0.03125v0.4375h0.4375l4.8125-0.0625h5.25v-0.40625c0-2.7133-1.3315-5.0383-3.2812-6.0312 0.44834-0.74362 0.75-1.6793 0.75-2.75 0-1.0943-0.28571-2.0853-0.75-2.8438-0.46429-0.75841-1.1451-1.2812-1.9688-1.2812zm0 0.84375c0.4398 0 0.88799 0.31492 1.25 0.90625s0.59375 1.4251 0.59375 2.375c0 1.1021-0.32479 2.0782-0.78125 2.6562l-0.375 0.4375 0.5625 0.21875c1.6549 0.64166 2.8409 2.6462 3 5.0312h-4.25l-4.3125 0.03125c0.14688-2.4038 1.3982-4.4172 3.0625-5.0625l0.53125-0.21875-0.34375-0.4375c-0.45646-0.57804-0.78125-1.5542-0.78125-2.6562 0-0.94994 0.23174-1.7837 0.59375-2.375 0.36201-0.59133 0.8102-0.90625 1.25-0.90625z"/>
</svg>
