<?xml version="1.0" encoding="UTF-8" standalone="no"?>
<!-- Created with Inkscape (http://www.inkscape.org/) -->
<svg id="svg2" xmlns:rdf="http://www.w3.org/1999/02/22-rdf-syntax-ns#" xmlns="http://www.w3.org/2000/svg" height="32" width="32" version="1.1" xmlns:cc="http://creativecommons.org/ns#" xmlns:dc="http://purl.org/dc/elements/1.1/">
 <metadata id="metadata4">
  <rdf:RDF>
   <cc:Work rdf:about="">
    <dc:format>image/svg+xml</dc:format>
    <dc:type rdf:resource="http://purl.org/dc/dcmitype/StillImage"/>
    <dc:title/>
   </cc:Work>
  </rdf:RDF>
 </metadata>
 <path id="path4023-61" d="m67.428 288.43a11.617 11.617 0 1 1 -23.234 0 11.617 11.617 0 1 1 23.234 0z" transform="matrix(.33448 0 0 .33448 -2.6676 -80.475)" stroke="#fff" stroke-width="5.7032" fill="none"/>
 <path id="path4023-6-2" d="m67.428 288.43a11.617 11.617 0 1 1 -23.234 0 11.617 11.617 0 1 1 23.234 0z" transform="matrix(.57825 0 0 .57825 -16.273 -150.79)" stroke="#fff" stroke-width="3.2989" fill="none"/>
 <path id="path4023-8-9" d="m67.428 288.43a11.617 11.617 0 1 1 -23.234 0 11.617 11.617 0 1 1 23.234 0z" transform="matrix(.82418 0 0 .82418 -29.998 -221.72)" stroke="#fff" stroke-width="2.3145" fill="none"/>
</svg>
