<?xml version="1.0" encoding="UTF-8" standalone="no"?>
<!-- Created with Inkscape (http://www.inkscape.org/) -->
<svg id="svg2" xmlns:rdf="http://www.w3.org/1999/02/22-rdf-syntax-ns#" xmlns="http://www.w3.org/2000/svg" height="32" width="32" version="1.1" xmlns:cc="http://creativecommons.org/ns#" xmlns:xlink="http://www.w3.org/1999/xlink" xmlns:dc="http://purl.org/dc/elements/1.1/">
 <metadata id="metadata4">
  <rdf:RDF>
   <cc:Work rdf:about="">
    <dc:format>image/svg+xml</dc:format>
    <dc:type rdf:resource="http://purl.org/dc/dcmitype/StillImage"/>
    <dc:title/>
   </cc:Work>
  </rdf:RDF>
 </metadata>
 <g id="text3056" transform="matrix(.856 0 0 1.1682 -.61530 .32045)">
  <path id="path3061" d="m12.797 12.79c1.0686 0.27601 1.879 0.75726 2.431 1.4437 0.55908 0.67941 0.83862 1.5463 0.83864 2.6008-0.000014 1.5711-0.60156 2.7671-1.8047 3.5881-1.2031 0.81386-2.9582 1.2208-5.2654 1.2208-0.81387 0-1.6313-0.06723-2.4522-0.2017-0.81387-0.12739-1.6207-0.32201-2.4204-0.58386v-3.1528c0.76432 0.38217 1.5216 0.67233 2.2717 0.87048 0.75724 0.19108 1.5003 0.28662 2.2293 0.28662 1.0828 0.000003 1.9108-0.18754 2.4841-0.56263 0.58031-0.37508 0.87047-0.91294 0.87048-1.6136-0.00001-0.72186-0.29725-1.2668-0.89171-1.6348-0.58741-0.37508-1.4579-0.56262-2.6114-0.56263h-1.6348v-2.6327h1.7197c1.0262 0.00001 1.7905-0.15922 2.293-0.4777 0.50246-0.32554 0.7537-0.81739 0.75371-1.4756-0.000009-0.60862-0.24417-1.0792-0.73248-1.4119-0.489-0.3317-1.1789-0.498-2.0706-0.498-0.6581 0-1.3234 0.0743-1.9957 0.2229s-1.3411 0.368-2.0064 0.6582v-2.9936c0.8068-0.2265 1.6065-0.3963 2.3992-0.5096 0.79263-0.11322 1.5711-0.16983 2.3354-0.16985 2.0594 0.0000161 3.5987 0.33972 4.6178 1.0191 1.0262 0.67234 1.5393 1.6879 1.5393 3.0467-0.000013 0.92711-0.24417 1.6879-0.73248 2.2824-0.48833 0.58741-1.2102 1.0014-2.1656 1.242"/>
  <path id="path3063" d="m23.869 8.5756v9.6708h1.465c1.6702 0.000003 2.9441-0.41401 3.8216-1.242 0.88462-0.82801 1.3269-2.0311 1.327-3.6093-0.000013-1.5711-0.43879-2.7671-1.3163-3.5881-0.87757-0.82093-2.155-1.2314-3.8322-1.2314h-1.465m-4.087-3.0891h4.3099c2.4062 0.0000158 4.1967 0.1734 5.3715 0.52017 1.1819 0.33972 2.1939 0.92004 3.0361 1.741 0.74308 0.7148 1.2951 1.5393 1.656 2.4734 0.36092 0.93419 0.54138 1.9922 0.5414 3.1741-0.000017 1.196-0.18048 2.2647-0.5414 3.2059-0.36095 0.93418-0.91296 1.7587-1.656 2.4734-0.84926 0.82094-1.8684 1.4048-3.0573 1.7516-1.189 0.3397-2.9724 0.50955-5.3503 0.50955h-4.3099v-15.849"/>
 </g>
</svg>
