<?xml version="1.0" encoding="UTF-8" standalone="no"?>
<svg id="svg2" xmlns:rdf="http://www.w3.org/1999/02/22-rdf-syntax-ns#" xmlns="http://www.w3.org/2000/svg" xml:space="preserve" height="100%" viewBox="0 0 32 32" width="100%" version="1.1" xmlns:cc="http://creativecommons.org/ns#" xmlns:dc="http://purl.org/dc/elements/1.1/"><metadata id="metadata16"><rdf:RDF><cc:Work rdf:about=""><dc:format>image/svg+xml</dc:format><dc:type rdf:resource="http://purl.org/dc/dcmitype/StillImage"/><dc:title/></cc:Work></rdf:RDF></metadata><g id="text3808" transform="translate(.41084 .80458)"><path id="path3813" d="m3.8487 8.8582h23.481v4.3042h-23.481v-4.3042m0 8.3337h23.481v4.3408h-23.481v-4.3408"/></g><g id="g3802" stroke-miterlimit="10" transform="translate(-1.2425 -.96409)"><path id="path4" stroke="#00a651" stroke-width=".35694" fill="#00a651" d="m29.846 24.121c-1.6444-3.1982-5.5848-3.2718-6.9101 0.21238-0.87737-0.25414-1.3157-0.38086-2.1931-0.63536 1.8782-4.4643 8.0766-4.5903 9.6079 0.2131-0.20239 0.08353-0.3034 0.126-0.50472 0.20988z"/><path id="path6" stroke="#f7941e" stroke-width=".35694" fill="#f7941e" d="m21.869 26.876c1.6691 3.0076 5.4323 3.0497 6.7495-0.25986 0.88165 0.25736 1.3236 0.38372 2.2131 0.62894-1.839 4.339-7.8196 4.5211-9.4912-0.0589 0.21202-0.12886 0.31804-0.19132 0.52864-0.31018z"/><polygon id="polygon8" stroke="#f7941e" points="5.909 21.146 1.634 23.639 2.355 13.137 5.812 16.029 9.457 19.078" fill="#f7941e" transform="matrix(.35694 0 0 .35694 20.054 19.767)"/><polygon id="polygon10" stroke="#00a651" points="26.533 9.5 30.686 6.475 29.58 18.389 25.758 14.432 21.852 10.77" fill="#00a651" transform="matrix(.35694 0 0 .35694 20.054 19.767)"/></g></svg>
