<?xml version="1.0" encoding="UTF-8" standalone="no"?>
<svg id="svg2" xmlns:rdf="http://www.w3.org/1999/02/22-rdf-syntax-ns#" xmlns="http://www.w3.org/2000/svg" xml:space="preserve" height="100%" viewBox="0 0 32 32" width="100%" version="1.1" xmlns:cc="http://creativecommons.org/ns#" xmlns:dc="http://purl.org/dc/elements/1.1/"><metadata id="metadata16"><rdf:RDF><cc:Work rdf:about=""><dc:format>image/svg+xml</dc:format><dc:type rdf:resource="http://purl.org/dc/dcmitype/StillImage"/></cc:Work></rdf:RDF></metadata><path id="path3800" stroke="#000" stroke-width="1px" fill="#fff" d="m2.3414 15.335 4.8204-4.6827 8.3325-2.4102 8.8834 2.1348 5.0959 4.6138-4.2695 5.2336-8.539 3.0988-9.1588-2.5479z"/><path id="path3004" d="m15.958 7.0647c-9.9775 0-14.988 8.1993-14.988 8.1993s5.8829 9.3599 15.521 9.0764c9.6386-0.28349 14.225-9.1146 14.225-9.1146s-4.7813-8.1612-14.759-8.1612zm-0.03814 2.517c7.4278 0 11.708 5.6823 11.708 5.6823s-3.9862 6.3162-11.365 6.5213c-7.3785 0.20509-12.089-6.5213-12.089-6.5213s4.3182-5.6823 11.746-5.6823z"/><path id="path3794" style="color:#000000" d="m15.996 10.726c-2.7641 0-5.034 2.2317-5.034 4.9959 0 2.7641 2.2699 4.9959 5.034 4.9959s4.9959-2.2317 4.9959-4.9959c0-2.7641-2.2317-4.9959-4.9959-4.9959zm-0.91527 1.6017c1.1076 0 1.9831 0.91358 1.9831 2.0212s-0.87545 1.9831-1.9831 1.9831-2.0212-0.87545-2.0212-1.9831 0.91358-2.0212 2.0212-2.0212z"/><g id="g3802" stroke-miterlimit="10" transform="translate(-1.2425 -.96409)"><path id="path4" stroke="#00a651" stroke-width=".35694" fill="#00a651" d="m29.846 24.121c-1.6444-3.1982-5.5848-3.2718-6.9101 0.21238-0.87737-0.25414-1.3157-0.38086-2.1931-0.63536 1.8782-4.4643 8.0766-4.5903 9.6079 0.2131-0.20239 0.08353-0.3034 0.126-0.50472 0.20988z"/><path id="path6" stroke="#f7941e" stroke-width=".35694" fill="#f7941e" d="m21.869 26.876c1.6691 3.0076 5.4323 3.0497 6.7495-0.25986 0.88165 0.25736 1.3236 0.38372 2.2131 0.62894-1.839 4.339-7.8196 4.5211-9.4912-0.0589 0.21202-0.12886 0.31804-0.19132 0.52864-0.31018z"/><polygon id="polygon8" stroke="#f7941e" points="5.909 21.146 1.634 23.639 2.355 13.137 5.812 16.029 9.457 19.078" fill="#f7941e" transform="matrix(.35694 0 0 .35694 20.054 19.767)"/><polygon id="polygon10" stroke="#00a651" points="26.533 9.5 30.686 6.475 29.58 18.389 25.758 14.432 21.852 10.77" fill="#00a651" transform="matrix(.35694 0 0 .35694 20.054 19.767)"/></g></svg>
