<?xml version="1.0" encoding="UTF-8" standalone="no"?>
<!-- Created with Inkscape (http://www.inkscape.org/) -->
<svg id="svg2" xmlns:rdf="http://www.w3.org/1999/02/22-rdf-syntax-ns#" xmlns="http://www.w3.org/2000/svg" height="32" width="32" version="1.1" xmlns:cc="http://creativecommons.org/ns#" xmlns:dc="http://purl.org/dc/elements/1.1/">
 <metadata id="metadata4">
  <rdf:RDF>
   <cc:Work rdf:about="">
    <dc:format>image/svg+xml</dc:format>
    <dc:type rdf:resource="http://purl.org/dc/dcmitype/StillImage"/>
    <dc:title/>
   </cc:Work>
  </rdf:RDF>
 </metadata>
 <path id="path3003" style="block-progression:tb;color:#000000;text-transform:none;text-indent:0" fill="#f00" d="m23.348 16.698c-0.33279 0.01814-0.65072 0.21379-0.81692 0.5027l-3.7283 6.4303-3.7074 6.4094c-0.35236 0.61049 0.17486 1.5143 0.87972 1.5081h7.4144l7.4144 0.02094c0.70485 0.0063 1.2321-0.89762 0.87972-1.5081l-3.7066-6.4298-3.7079-6.4304c-0.18364-0.31909-0.5539-0.52105-0.92161-0.5027z"/>
 <g id="text3827" fill="#fff" transform="matrix(.67026 0 0 .67026 12.666 14.666)">
  <path id="path3832" fill="#fff" d="m16 19.15c-0.95334 0-1.7384 0.76641-1.7384 1.6824 0 0.99072 0.76641 1.7758 1.7197 1.7758 0.95334 0 1.7384-0.7851 1.7384-1.7384 0-0.95334-0.76641-1.7197-1.7197-1.7197m0.76641-0.82249c0.13085-1.7945 0.24301-2.5609 0.65425-4.3928 0.37386-1.5702 0.44863-1.9628 0.44863-2.4862 0-1.2524-0.72902-2.0562-1.8506-2.0562-1.0655 0-1.888 0.82249-1.888 1.8693 0 0.61687 0.07477 1.0655 0.44863 2.7852 0.31778 1.4394 0.48602 2.5422 0.65425 4.2807h1.5328"/>
 </g>
</svg>
