<?xml version="1.0" encoding="UTF-8" standalone="no"?>
<!-- Created with Inkscape (http://www.inkscape.org/) -->
<svg id="svg2" xmlns:rdf="http://www.w3.org/1999/02/22-rdf-syntax-ns#" xmlns="http://www.w3.org/2000/svg" height="32" width="32" version="1.1" xmlns:cc="http://creativecommons.org/ns#" xmlns:dc="http://purl.org/dc/elements/1.1/">
 <metadata id="metadata4">
  <rdf:RDF>
   <cc:Work rdf:about="">
    <dc:format>image/svg+xml</dc:format>
    <dc:type rdf:resource="http://purl.org/dc/dcmitype/StillImage"/>
    <dc:title/>
   </cc:Work>
  </rdf:RDF>
 </metadata>
 <g id="text2986" transform="scale(1.0477 .95447)">
  <path id="path2994" fill="#fff" d="m17.325 21.499h-6.6786v-0.90652c-0.000006-1.0113 0.2035-1.9055 0.61051-2.6825 0.407-0.78933 1.2642-1.7883 2.5715-2.9971l1.184-1.073c0.703-0.64133 1.2148-1.2457 1.5355-1.813 0.33299-0.56732 0.4995-1.1347 0.49951-1.702 0-0.8621-0.296-1.5343-0.888-2.0153-0.592-0.4934-1.418-0.74-2.479-0.7401-0.999 0.0001-2.078 0.2097-3.237 0.6291-1.1595 0.407-2.3682 1.0175-3.6262 1.8313v-5.8091c1.4924-0.5178 2.8552-0.9001 4.0882-1.1468 1.234-0.2467 2.424-0.37 3.571-0.37 3.0094 0.0000281 5.3034 0.6167 6.8821 1.85 1.5787 1.221 2.368 3.0094 2.368 5.3651-0.000019 1.2087-0.24052 2.2941-0.72151 3.2561-0.48103 0.9497-1.3012 1.9734-2.4605 3.0711l-1.184 1.0545c-0.8387 0.76469-1.3875 1.3814-1.6465 1.85-0.25902 0.45635-0.38852 0.96203-0.38851 1.517v0.83251m-6.6786 2.738h6.6786v6.5861h-6.6786v-6.5861"/>
 </g>
</svg>
